<svg width="20.000000" height="20.000000" viewBox="0 0 20 20" fill="none" xmlns="http://www.w3.org/2000/svg" xmlns:xlink="http://www.w3.org/1999/xlink">
	<desc>
			Created with Pixso.
	</desc>
	<defs>
		<clipPath id="clip544_2369">
			<rect id="cross-svgrepo-com" width="20.000000" height="20.000000" fill="white" fill-opacity="0"/>
		</clipPath>
	</defs>
	<g clip-path="url(#clip544_2369)">
		<path id="path" d="M1.1 17.77C0.61 18.28 0.61 19.1 1.1 19.61C1.59 20.12 2.38 20.12 2.87 19.61L1.1 17.77ZM11.25 10.92C11.74 10.41 11.74 9.58 11.25 9.07C10.76 8.56 9.96 8.56 9.47 9.07L11.25 10.92ZM9.47 9.07C8.98 9.58 8.98 10.41 9.47 10.92C9.96 11.43 10.76 11.43 11.25 10.92L9.47 9.07ZM19.63 2.22C20.12 1.71 20.12 0.89 19.63 0.38C19.14 -0.13 18.34 -0.13 17.85 0.38L19.63 2.22ZM11.25 9.07C10.76 8.56 9.96 8.56 9.47 9.07C8.98 9.58 8.98 10.41 9.47 10.92L11.25 9.07ZM17.85 19.61C18.34 20.12 19.14 20.12 19.63 19.61C20.12 19.1 20.12 18.28 19.63 17.77L17.85 19.61ZM9.47 10.92C9.96 11.43 10.76 11.43 11.25 10.92C11.74 10.41 11.74 9.58 11.25 9.07L9.47 10.92ZM2.87 0.38C2.38 -0.13 1.59 -0.13 1.1 0.38C0.61 0.89 0.61 1.71 1.1 2.22L2.87 0.38ZM2.87 19.61L11.25 10.92L9.47 9.07L1.1 17.77L2.87 19.61ZM11.25 10.92L19.63 2.22L17.85 0.38L9.47 9.07L11.25 10.92ZM9.47 10.92L17.85 19.61L19.63 17.77L11.25 9.07L9.47 10.92ZM11.25 9.07L2.87 0.38L1.1 2.22L9.47 10.92L11.25 9.07Z" fill="#FFFFFF" fill-opacity="1.000000" fill-rule="nonzero"/>
	</g>
</svg>
