<svg width="32.000000" height="32.000000" viewBox="0 0 32 32" fill="none" xmlns="http://www.w3.org/2000/svg" xmlns:xlink="http://www.w3.org/1999/xlink">
	<desc>
			Created with Pixso.
	</desc>
	<defs>
		<clipPath id="clip582_263">
			<rect id="cross-svgrepo-com(1)" width="32.000000" height="32.000000" fill="white" fill-opacity="0"/>
		</clipPath>
	</defs>
	<g clip-path="url(#clip582_263)">
		<path id="path" d="M0.61 27.75C-0.21 28.55 -0.21 29.84 0.61 30.63C1.42 31.43 2.74 31.43 3.56 30.63L0.61 27.75ZM17.47 17.05C18.29 16.26 18.29 14.97 17.47 14.17C16.66 13.38 15.33 13.38 14.52 14.17L17.47 17.05ZM14.52 14.17C13.7 14.97 13.7 16.26 14.52 17.05C15.33 17.85 16.66 17.85 17.47 17.05L14.52 14.17ZM31.38 3.47C32.2 2.68 32.2 1.39 31.38 0.59C30.57 -0.2 29.25 -0.2 28.43 0.59L31.38 3.47ZM17.47 14.17C16.66 13.38 15.33 13.38 14.52 14.17C13.7 14.97 13.7 16.26 14.52 17.05L17.47 14.17ZM28.43 30.63C29.25 31.43 30.57 31.43 31.38 30.63C32.2 29.84 32.2 28.55 31.38 27.75L28.43 30.63ZM14.52 17.05C15.33 17.85 16.66 17.85 17.47 17.05C18.29 16.26 18.29 14.97 17.47 14.17L14.52 17.05ZM3.56 0.59C2.74 -0.2 1.42 -0.2 0.61 0.59C-0.21 1.39 -0.21 2.68 0.61 3.47L3.56 0.59ZM3.56 30.63L17.47 17.05L14.52 14.17L0.61 27.75L3.56 30.63ZM17.47 17.05L31.38 3.47L28.43 0.59L14.52 14.17L17.47 17.05ZM14.52 17.05L28.43 30.63L31.38 27.75L17.47 14.17L14.52 17.05ZM17.47 14.17L3.56 0.59L0.61 3.47L14.52 17.05L17.47 14.17Z" fill="#000000" fill-opacity="1.000000" fill-rule="nonzero"/>
	</g>
</svg>
