<svg width="24.000000" height="24.000000" viewBox="0 0 24 24" fill="none" xmlns="http://www.w3.org/2000/svg" xmlns:xlink="http://www.w3.org/1999/xlink">
	<desc>
			Created with Pixso.
	</desc>
	<defs>
		<clipPath id="clip544_2371">
			<rect id="piece_of_paper_and_pencil_di15oi5f2ntv" width="24.000000" height="24.000000" fill="white" fill-opacity="0"/>
		</clipPath>
	</defs>
	<g clip-path="url(#clip544_2371)">
		<path id="path" d="M23.62 7.87L21.84 6.1L20.07 4.33C19.93 4.19 19.74 4.11 19.54 4.11C19.34 4.11 19.15 4.19 19.01 4.33L18.14 5.21L18.14 0.75C18.14 0.33 17.8 0 17.39 0L0.89 0C0.47 0 0.14 0.33 0.14 0.75L0.14 23.23C0.14 23.64 0.47 23.98 0.89 23.98L17.39 23.98C17.8 23.98 18.14 23.64 18.14 23.23L18.14 14.41L23.62 8.93C23.91 8.64 23.91 8.17 23.62 7.87ZM16.64 22.48L1.64 22.48L1.64 1.5L16.64 1.5L16.64 6.71L10.44 12.9C10.34 13.01 10.27 13.14 10.24 13.28L9.31 17.75C9.26 17.99 9.34 18.25 9.52 18.43C9.66 18.57 9.85 18.65 10.05 18.65C10.1 18.65 10.15 18.64 10.2 18.63L14.66 17.71C14.81 17.68 14.94 17.61 15.04 17.51L16.64 15.91L16.64 22.48ZM11.42 14.95L13 16.52L11.01 16.93L11.42 14.95ZM14.51 15.91L12.03 13.43L19.54 5.92L20.25 6.63L15.67 11.21C15.38 11.51 15.38 11.98 15.67 12.27C15.82 12.42 16.01 12.49 16.2 12.49C16.39 12.49 16.59 12.42 16.73 12.27L21.31 7.69L22.02 8.4L14.51 15.91Z" fill="#FFFFFF" fill-opacity="1.000000" fill-rule="nonzero"/>
	</g>
</svg>
