<svg width="49.000000" height="43.000000" viewBox="0 0 49 43" fill="none" xmlns="http://www.w3.org/2000/svg" xmlns:xlink="http://www.w3.org/1999/xlink">
	<desc>
			Created with Pixso.
	</desc>
	<defs>
		<clipPath id="clip306_186">
			<rect id="svg" width="49.000000" height="43.000000" fill="white" fill-opacity="0"/>
		</clipPath>
	</defs>
	<g clip-path="url(#clip306_186)">
		<path id="path" d="M29.62 10.2L15.34 11.22L3.1 18.36L6.16 18.36L6.16 27.74C5.55 28.25 5.14 29.6 5.14 31.11C5.14 33.08 5.82 34.68 6.66 34.68C7.51 34.68 8.2 33.08 8.2 31.11C8.2 29.6 7.78 28.25 7.18 27.74L7.18 18.36L10.4 18.36C10.3 18.85 10.24 19.36 10.24 19.89C10.24 20.41 10.29 20.93 10.39 21.43C10.68 21.42 10.96 21.42 11.26 21.42C14.93 21.42 17.95 22.24 19.41 23.46C20.01 21.65 21.82 19.34 24.17 17.23C24.38 17.04 24.6 16.85 24.82 16.67C24.48 15.93 24.01 15.26 23.45 14.67L29.62 10.2ZM22.65 12.74L17.73 16.32L10.64 16.32L15.95 13.22L22.65 12.74ZM32.68 16.32C30.32 16.32 28.18 17.22 26.56 18.68C26.26 18.41 25.71 17.33 25.56 17.33C23.9 18.82 22.3 20.99 21.46 22.44C22.69 23 23.5 24.57 23.5 26.01L23.5 37.74L29.62 37.74L29.62 26.01C29.62 24.04 31.22 22.44 33.18 22.44C35.15 22.44 36.76 24.04 36.76 26.01L36.76 37.74L42.87 37.74L42.87 25.5C42.87 20.45 38.74 16.32 33.7 16.32L32.68 16.32ZM32.68 18.36L33.7 18.36C37.63 18.36 40.84 21.56 40.84 25.5L40.84 35.7L38.8 35.7L38.8 26.01C38.8 22.91 36.28 20.4 33.18 20.4C30.09 20.4 27.58 22.91 27.58 26.01L27.58 35.7L25.54 35.7L25.54 26.01C25.54 24.54 25.01 23.11 24.14 22.04C24.52 21.5 24.96 20.94 25.41 20.4L26.56 21.43L27.92 20.2C29.24 19.01 30.93 18.36 32.68 18.36ZM11.26 22.44C11.09 22.44 10.94 22.44 10.78 22.45C10.43 23.4 10.24 24.42 10.24 25.5L10.24 37.74L16.35 37.74L16.35 26.01C16.35 24.98 16.8 24.05 17.5 23.4C15.87 22.81 13.68 22.44 11.26 22.44ZM12.35 24.5C13.08 24.54 13.8 24.61 14.47 24.73C14.37 25.14 14.32 25.57 14.32 26.01L14.32 35.7L12.28 35.7L12.28 25.5C12.28 25.17 12.3 24.83 12.35 24.5Z" fill="#000000" fill-opacity="1.000000" fill-rule="nonzero"/>
	</g>
</svg>
