<svg width="20.000000" height="20.000000" viewBox="0 0 20 20" fill="none" xmlns="http://www.w3.org/2000/svg" xmlns:xlink="http://www.w3.org/1999/xlink">
	<desc>
			Created with Pixso.
	</desc>
	<defs>
		<clipPath id="clip2_58">
			<rect id="filter-square" width="20.000000" height="20.000000" fill="white" fill-opacity="0"/>
		</clipPath>
	</defs>
	<g clip-path="url(#clip2_58)">
		<path id="path" d="M17.5 1.25C18.33 1.25 18.75 1.66 18.75 2.5L18.75 17.5C18.75 18.33 18.33 18.75 17.5 18.75L2.5 18.75C1.66 18.75 1.25 18.33 1.25 17.5L1.25 2.5C1.25 1.66 1.66 1.25 2.5 1.25L17.5 1.25ZM2.5 0C1.8 0 1.22 0.24 0.73 0.73C0.24 1.22 0 1.8 0 2.5L0 17.5C0 18.19 0.24 18.77 0.73 19.26C1.22 19.75 1.8 20 2.5 20L17.5 20C18.19 20 18.77 19.75 19.26 19.26C19.75 18.77 20 18.19 20 17.5L20 2.5C20 1.8 19.75 1.22 19.26 0.73C18.77 0.24 18.19 0 17.5 0L2.5 0Z" fill="#808080" fill-opacity="1.000000" fill-rule="nonzero"/>
		<path id="path" d="M7.5 14.37C7.5 13.95 7.7 13.75 8.12 13.75L11.87 13.75C12.29 13.75 12.5 13.95 12.5 14.37C12.5 14.79 12.29 15 11.87 15L8.12 15C7.7 15 7.5 14.79 7.5 14.37ZM5 10.62C5 10.2 5.2 10 5.62 10L14.37 10C14.79 10 15 10.2 15 10.62C15 11.04 14.79 11.25 14.37 11.25L5.62 11.25C5.2 11.25 5 11.04 5 10.62ZM2.5 6.87C2.5 6.45 2.7 6.25 3.12 6.25L16.87 6.25C17.29 6.25 17.5 6.45 17.5 6.87C17.5 7.29 17.29 7.5 16.87 7.5L3.12 7.5C2.7 7.5 2.5 7.29 2.5 6.87Z" fill="#808080" fill-opacity="1.000000" fill-rule="nonzero"/>
	</g>
</svg>
