<?xml version="1.0" standalone="no"?>
<!DOCTYPE svg PUBLIC "-//W3C//DTD SVG 20010904//EN"
 "http://www.w3.org/TR/2001/REC-SVG-20010904/DTD/svg10.dtd">
<svg version="1.0" xmlns="http://www.w3.org/2000/svg"
 width="32.000000pt" height="32.000000pt" viewBox="0 0 32.000000 32.000000"
 preserveAspectRatio="xMidYMid meet">

<g transform="translate(0.000000,32.000000) scale(0.100000,-0.100000)"
fill="#000000" stroke="none">
<path d="M151 292 c4 -27 -5 -40 -35 -49 -31 -9 -33 -9 -28 9 3 11 10 17 19
14 8 -3 11 -1 8 4 -3 6 2 10 11 10 10 0 14 3 11 6 -4 4 -20 1 -37 -6 -29 -12
-30 -14 -29 -79 0 -41 3 -59 8 -47 5 14 10 16 15 8 4 -7 12 -12 17 -12 6 0 7
5 4 10 -4 6 5 5 20 -2 21 -9 28 -9 34 1 6 8 11 9 15 3 3 -6 -6 -15 -21 -20
-25 -9 -25 -11 -6 -11 12 -1 25 4 29 11 12 18 11 58 -1 58 -5 0 -2 5 8 11 22
13 40 2 34 -21 -2 -10 -1 -24 4 -31 5 -9 9 9 9 48 l0 61 -45 15 c-24 9 -44 13
-44 9z m53 -22 c16 -6 26 -17 26 -29 0 -19 -2 -19 -32 -4 -42 20 -41 20 -33
32 8 13 8 13 39 1z m-84 -74 c0 -6 -9 -12 -20 -13 -22 -2 -23 -1 -14 21 6 17
34 10 34 -8z"/>
<path d="M40 259 c-6 -11 -10 -25 -7 -32 2 -6 9 3 15 21 12 36 8 42 -8 11z"/>
<path d="M258 255 c6 -12 10 -27 10 -35 -2 -32 3 -48 15 -53 20 -8 8 63 -16
87 -19 21 -19 21 -9 1z"/>
<path d="M15 166 c4 -58 3 -56 28 -66 19 -7 19 -9 3 -9 -16 -1 -16 -3 -5 -17
7 -8 21 -13 31 -11 10 3 18 1 18 -4 0 -5 -8 -9 -17 -9 -29 0 -4 -14 31 -16
l34 -3 -23 25 c-13 14 -27 24 -31 22 -4 -2 -11 7 -15 20 -5 13 -13 21 -17 18
-9 -5 -12 7 -13 60 -1 18 -6 31 -14 31 -9 0 -12 -13 -10 -41z"/>
<path d="M263 128 c2 -23 -1 -34 -6 -29 -14 14 -37 2 -30 -16 5 -12 3 -14 -6
-8 -8 4 -17 2 -22 -6 -14 -23 -10 -39 10 -39 24 0 36 16 19 23 -9 4 -7 6 3 6
16 1 59 41 44 41 -5 0 -4 5 3 12 14 14 16 42 3 34 -5 -4 -12 0 -15 6 -3 7 -5
-4 -3 -24z"/>
<path d="M220 131 c0 -7 -13 -17 -30 -22 -29 -11 -41 -29 -19 -29 8 0 8 -4 -1
-15 -9 -11 -17 -12 -32 -4 -19 10 -19 11 -1 24 10 8 14 15 8 15 -5 1 -1 5 10
10 19 8 19 9 -2 9 -13 1 -23 -3 -23 -9 0 -5 -7 -10 -16 -10 -14 0 -15 2 -3 18
13 15 12 16 -3 3 -21 -15 -11 -41 24 -65 20 -14 24 -14 41 2 29 26 60 72 53
79 -3 4 -6 1 -6 -6z"/>
</g>
</svg>
