<svg width="81.000000" height="104.000000" viewBox="0 0 81 104" fill="none" xmlns="http://www.w3.org/2000/svg" xmlns:xlink="http://www.w3.org/1999/xlink">
	<desc>
			Created with Pixso.
	</desc>
	<defs>
		<clipPath id="clip266_336">
			<rect id="arrow_rjfnfkmhm72a" width="103.776680" height="81.000000" transform="translate(81.000000 -0.046387) rotate(90.000000)" fill="white" fill-opacity="0"/>
		</clipPath>
		<linearGradient id="paint_linear_266_339_0" x1="66.824913" y1="4.369568" x2="35.664810" y2="89.977432" gradientUnits="userSpaceOnUse">
			<stop stop-color="#FFFFFF" stop-opacity="0.200000"/>
			<stop offset="1.000000" stop-color="#FFFFFF" stop-opacity="0.000000"/>
		</linearGradient>
	</defs>
	<g clip-path="url(#clip266_336)">
		<path id="path" d="M20.24 51.84C20.24 51.3 20.4 50.76 20.71 50.34L57.84 0.62C58.48 -0.25 59.55 -0.28 60.22 0.55C60.9 1.37 60.92 2.74 60.28 3.61L24.27 51.84L60.28 100.07C60.92 100.94 60.89 102.3 60.22 103.13C59.55 103.95 58.48 103.92 57.84 103.06L20.71 53.33C20.4 52.91 20.24 52.38 20.24 51.84Z" fill="#999999" fill-opacity="1.000000" fill-rule="nonzero"/>
		<path id="path" d="M20.24 51.84C20.24 51.3 20.4 50.76 20.71 50.34L57.84 0.62C58.48 -0.25 59.55 -0.28 60.22 0.55C60.9 1.37 60.92 2.74 60.28 3.61L24.27 51.84L60.28 100.07C60.92 100.94 60.89 102.3 60.22 103.13C59.55 103.95 58.48 103.92 57.84 103.06L20.71 53.33C20.4 52.91 20.24 52.38 20.24 51.84Z" fill="url(#paint_linear_266_339_0)" fill-opacity="1.000000" fill-rule="nonzero"/>
	</g>
</svg>
