<!-- icon666.com - MILLIONS vector ICONS FREE --><svg viewBox="0 0 384 384" xmlns="http://www.w3.org/2000/svg"><path d="m373.332031 0h-298.664062c-5.890625 0-10.667969 4.777344-10.667969 10.667969v53.332031h-53.332031c-5.890625 0-10.667969 4.777344-10.667969 10.667969v266.664062c.0273438 23.554688 19.113281 42.640625 42.667969 42.667969h288c29.441406-.03125 53.300781-23.890625 53.332031-53.332031v-320c0-5.890625-4.777344-10.667969-10.667969-10.667969zm-352 341.332031v-256h42.667969v256c0 11.785157-9.550781 21.335938-21.332031 21.335938-11.785157 0-21.335938-9.550781-21.335938-21.335938zm341.335938-10.664062c-.019531 17.664062-14.335938 31.980469-32 32h-251.269531c3.84375-6.457031 5.890624-13.820313 5.933593-21.335938v-320h277.335938zm0 0"></path><path d="m138.667969 85.332031h170.664062c5.890625 0 10.667969-4.773437 10.667969-10.664062s-4.777344-10.667969-10.667969-10.667969h-170.664062c-5.890625 0-10.667969 4.777344-10.667969 10.667969s4.777344 10.664062 10.667969 10.664062zm0 0"></path><path d="m138.667969 149.332031h170.664062c5.890625 0 10.667969-4.773437 10.667969-10.664062s-4.777344-10.667969-10.667969-10.667969h-170.664062c-5.890625 0-10.667969 4.777344-10.667969 10.667969s4.777344 10.664062 10.667969 10.664062zm0 0"></path><path d="m138.667969 213.332031h170.664062c5.890625 0 10.667969-4.773437 10.667969-10.664062s-4.777344-10.667969-10.667969-10.667969h-170.664062c-5.890625 0-10.667969 4.777344-10.667969 10.667969s4.777344 10.664062 10.667969 10.664062zm0 0"></path><path d="m138.667969 277.332031h170.664062c5.890625 0 10.667969-4.773437 10.667969-10.664062s-4.777344-10.667969-10.667969-10.667969h-170.664062c-5.890625 0-10.667969 4.777344-10.667969 10.667969s4.777344 10.664062 10.667969 10.664062zm0 0"></path></svg>