<?xml version="1.0" standalone="no"?>
<!DOCTYPE svg PUBLIC "-//W3C//DTD SVG 20010904//EN"
 "http://www.w3.org/TR/2001/REC-SVG-20010904/DTD/svg10.dtd">
<svg version="1.0" xmlns="http://www.w3.org/2000/svg"
 width="1513.000000pt" height="2167.000000pt" viewBox="0 0 1513.000000 2167.000000"
 preserveAspectRatio="xMidYMid meet">

<g transform="translate(0.000000,2167.000000) scale(0.100000,-0.100000)"
fill="#000000" stroke="none">
<path d="M7504 20963 c3 -21 9 -62 13 -92 6 -49 5 -53 -13 -48 -10 3 -41 9
-69 12 -27 4 -58 9 -67 12 -16 4 -18 -6 -18 -120 l0 -124 43 7 c23 4 62 10 86
14 l44 7 -7 -53 c-4 -29 -10 -70 -13 -90 l-6 -38 123 0 123 0 -6 38 c-3 20 -9
61 -13 90 l-7 53 44 -7 c24 -4 63 -10 87 -14 l42 -7 0 124 c0 114 -1 124 -17
119 -10 -3 -40 -8 -68 -11 -27 -4 -59 -9 -69 -12 -20 -6 -20 6 1 140 l6 37
-123 0 -123 0 7 -37z"/>
<path d="M7005 20609 c-306 -29 -600 -140 -757 -287 -177 -165 -292 -480 -259
-713 23 -168 74 -268 319 -634 96 -142 184 -280 195 -305 16 -37 22 -78 28
-225 4 -99 8 -181 8 -183 1 -1 486 -1 1079 0 l1077 3 8 165 c4 91 14 188 22
216 10 35 71 135 188 310 206 307 256 391 299 504 32 82 33 90 32 230 -1 171
-19 253 -87 395 -151 313 -475 487 -981 527 -142 11 -149 11 -163 -8 -38 -53
-115 -364 -234 -953 -105 -524 -146 -711 -159 -724 -11 -12 -47 144 -155 683
-120 593 -169 804 -227 958 l-19 52 -62 -1 c-34 -1 -102 -6 -152 -10z m135
-281 c0 -14 -12 -9 -62 23 -35 22 -67 44 -72 49 -5 5 15 33 45 65 l54 57 17
-88 c10 -49 17 -97 18 -106z m1087 77 c-1 -8 -56 -47 -124 -88 -7 -4 -10 -1
-8 10 2 10 9 50 15 88 19 112 15 109 69 52 27 -29 49 -56 48 -62z m-1377 89
c0 -8 -123 -164 -129 -164 -4 0 -29 22 -55 49 l-49 50 34 20 c30 18 74 30 159
44 14 2 28 5 33 6 4 0 7 -1 7 -5z m1654 -15 c27 -5 65 -19 84 -31 l34 -21 -48
-48 c-27 -27 -53 -49 -59 -48 -5 0 -30 27 -55 61 -25 33 -53 71 -64 85 l-19
24 39 -6 c22 -3 61 -11 88 -16z m-2034 -157 c-19 -33 -29 -41 -59 -45 -20 -2
-38 -3 -40 0 -9 7 54 66 84 78 17 7 32 12 34 10 1 -2 -7 -22 -19 -43z m2335
16 c31 -14 69 -76 40 -64 -9 3 -25 6 -36 6 -15 0 -49 44 -49 65 0 8 17 6 45
-7z m-2196 -133 c28 -36 54 -71 57 -78 5 -14 -94 -168 -111 -174 -12 -3 -121
163 -117 178 3 14 105 137 113 138 3 1 29 -28 58 -64z m388 -48 l26 -38 -49
-71 c-27 -40 -54 -73 -59 -74 -6 -2 -32 25 -60 58 -86 105 -84 89 -13 169 l63
70 33 -38 c17 -21 44 -55 59 -76z m1396 -108 c-76 -91 -71 -91 -139 10 l-43
64 57 74 57 74 67 -72 67 -71 -66 -79z m352 151 c35 -43 55 -76 51 -85 -10
-26 -106 -165 -114 -165 -5 0 -34 39 -65 86 l-56 87 60 73 c33 41 62 74 64 74
1 0 28 -31 60 -70z m-685 -131 c-23 -41 -44 -76 -47 -79 -6 -5 -1 36 19 149
l10 63 30 -30 30 -29 -42 -74z m-851 39 c7 -46 15 -94 18 -108 5 -24 5 -24 -9
-5 -8 11 -30 48 -48 83 l-33 62 23 25 c13 14 26 25 30 25 4 0 12 -37 19 -82z
m-909 5 c-5 -56 -6 -58 -59 -95 -30 -21 -56 -36 -59 -34 -2 3 1 28 8 57 9 37
24 63 51 90 55 55 65 52 59 -18z m2669 41 c40 -24 73 -78 79 -130 l5 -47 -49
33 c-27 18 -55 40 -61 48 -13 16 -19 112 -7 112 3 0 18 -7 33 -16z m-2526
-295 l58 -90 -23 -32 c-12 -18 -42 -58 -65 -90 l-43 -59 -59 93 -60 93 46 66
c26 36 54 75 62 87 9 12 18 22 21 23 3 0 31 -41 63 -91z m407 -93 c0 -11 -122
-175 -130 -175 -6 0 -111 171 -112 182 0 5 28 47 62 94 l63 84 58 -88 c33 -48
59 -92 59 -97z m303 85 l56 -85 -26 -35 c-28 -38 -91 -120 -104 -135 -6 -7
-115 148 -122 174 -3 13 126 181 134 172 3 -4 32 -45 62 -91z m1477 -77 c0 -7
-110 -184 -114 -184 -3 0 -119 150 -130 167 -4 7 18 50 54 103 l61 91 65 -85
c35 -47 64 -88 64 -92z m290 91 c34 -47 60 -91 57 -98 -7 -17 -100 -161 -109
-167 -8 -6 -115 134 -123 161 -4 11 15 49 50 103 31 47 58 86 60 86 2 0 31
-38 65 -85z m-701 -4 c33 -44 61 -83 61 -87 0 -7 -93 -156 -111 -177 -6 -8
-139 152 -139 167 0 11 113 176 120 176 4 0 35 -36 69 -79z m-2074 -110 c-3
-10 -15 -27 -26 -37 l-21 -19 7 50 c4 28 10 54 12 58 9 15 34 -33 28 -52z
m2983 2 c10 -58 3 -67 -22 -28 -19 29 -21 56 -4 73 15 15 15 16 26 -45z
m-2864 -307 l56 -99 -27 -29 c-17 -18 -37 -28 -55 -28 -24 0 -32 8 -63 70 -19
38 -35 81 -35 94 0 21 57 103 65 94 2 -2 28 -48 59 -102z m358 14 l57 -89 -32
-58 -33 -58 -45 3 c-67 5 -98 21 -120 63 -10 21 -19 43 -19 50 0 12 121 178
130 178 3 1 31 -39 62 -89z m351 -1 l57 -91 -58 -84 c-31 -46 -60 -84 -65 -84
-9 0 -127 158 -127 171 0 11 122 178 131 179 3 0 31 -41 62 -91z m359 -10 c44
-73 45 -77 31 -105 -31 -60 -96 -154 -103 -149 -10 6 -118 159 -122 172 -2 5
26 49 61 97 73 100 64 101 133 -15z m699 23 c31 -42 59 -83 63 -89 4 -8 -18
-50 -56 -104 l-63 -91 -23 29 c-12 15 -39 56 -58 91 l-36 62 53 90 c29 50 56
90 59 90 3 -1 30 -35 61 -78z m368 -17 c58 -78 59 -81 44 -105 -30 -47 -108
-150 -115 -150 -4 0 -32 37 -63 82 -64 93 -65 81 10 198 26 41 50 69 55 64 5
-5 36 -45 69 -89z m338 18 c79 -104 77 -97 53 -143 -26 -50 -51 -66 -118 -73
l-52 -6 -30 60 c-25 49 -29 63 -19 81 16 30 99 158 103 158 1 0 30 -35 63 -77z
m353 6 c11 -25 8 -37 -25 -109 -35 -73 -41 -80 -67 -80 -28 0 -78 38 -78 59 0
6 13 32 28 58 16 27 41 70 56 96 l28 49 23 -22 c13 -12 29 -35 35 -51z m-1976
-350 c9 -23 15 -43 12 -46 -4 -5 -76 7 -76 13 0 11 35 74 41 74 4 0 14 -19 23
-41z m1055 5 c12 -20 21 -38 19 -39 -2 -2 -22 -6 -45 -10 l-43 -7 16 39 c18
43 24 53 29 53 1 0 13 -16 24 -36z m-1649 -11 c74 -18 147 -52 173 -81 17 -19
17 -20 -27 -32 -49 -13 -106 -45 -106 -58 0 -10 78 -27 194 -42 71 -9 156 -42
156 -61 0 -3 -13 -12 -28 -18 -33 -14 -119 -98 -109 -107 3 -3 81 2 173 11
264 28 334 16 576 -99 l96 -45 114 53 c226 108 290 118 557 91 95 -9 174 -15
176 -13 10 9 -60 80 -102 105 l-46 26 49 25 c32 16 83 29 156 39 60 7 121 18
136 24 l27 11 -23 19 c-13 10 -48 26 -78 36 -30 9 -54 20 -54 24 0 13 54 47
109 69 85 33 281 62 281 42 0 -10 -73 -107 -208 -280 -100 -127 -128 -177
-151 -270 -12 -49 -23 -70 -44 -86 -28 -21 -34 -21 -855 -24 -455 -2 -851 0
-879 3 -73 9 -89 26 -113 120 -24 94 -58 148 -216 347 -60 75 -118 151 -128
169 l-19 32 74 -7 c41 -3 103 -14 139 -23z m955 -136 c20 -87 35 -161 32 -164
-6 -5 -197 145 -197 155 0 6 124 171 127 168 1 0 18 -72 38 -159z m390 76 c33
-43 60 -81 60 -84 0 -7 -198 -169 -202 -165 -4 4 72 326 77 326 3 0 32 -35 65
-77z"/>
<path d="M7557 20361 c-64 -42 -77 -104 -57 -283 20 -194 96 -567 119 -591 15
-15 70 214 112 463 7 41 13 139 14 218 l0 143 -37 35 c-31 28 -46 34 -80 34
-25 0 -55 -8 -71 -19z"/>
<path d="M7239 18045 c-11 -11 -204 -57 -314 -75 -186 -31 -371 -35 -704 -15
-194 11 -363 16 -495 12 -241 -6 -301 -19 -486 -107 -69 -32 -150 -66 -180
-74 -60 -17 -245 -36 -352 -36 -82 0 -169 -26 -234 -70 -27 -19 -87 -74 -134
-124 -106 -112 -177 -181 -229 -224 -23 -19 -42 -45 -46 -62 -10 -48 -41 -77
-123 -116 -93 -45 -185 -132 -225 -216 -46 -97 -59 -162 -63 -321 -3 -118 -8
-162 -26 -220 -19 -59 -23 -95 -23 -197 0 -110 3 -134 26 -197 46 -126 125
-230 335 -443 l192 -194 7 49 c11 80 50 151 98 179 58 34 161 49 282 41 55 -4
219 -8 365 -10 590 -7 808 -100 904 -387 78 -234 41 -624 -84 -883 -48 -101
-155 -226 -217 -256 -41 -20 -50 -21 -101 -9 -157 34 -236 102 -447 382 -183
242 -355 416 -470 475 -151 78 -218 91 -630 123 -230 18 -346 57 -523 178
-204 139 -383 200 -612 209 -226 8 -427 -38 -643 -149 -280 -144 -545 -425
-647 -686 -83 -211 -165 -524 -219 -837 -192 -1111 -305 -1595 -465 -1993 -36
-88 -78 -198 -95 -245 l-30 -85 52 23 c29 12 115 52 191 89 76 36 143 66 147
66 5 0 9 -705 9 -1567 0 -906 4 -1640 10 -1738 18 -315 48 -448 205 -925 109
-332 145 -472 169 -660 18 -139 36 -485 36 -702 0 -87 4 -158 9 -158 5 0 30
25 56 55 26 31 49 54 51 52 3 -2 -2 -56 -11 -118 -23 -165 -30 -487 -16 -660
91 -1071 689 -2091 1741 -2970 1258 -1051 3053 -1718 4505 -1675 1865 54 3893
1023 5027 2401 556 677 878 1415 959 2200 16 159 14 547 -4 710 -8 72 -13 132
-10 135 3 3 14 -7 26 -22 12 -14 37 -45 56 -68 18 -23 37 -38 42 -33 5 5 13
170 19 368 17 589 30 661 209 1209 55 166 111 355 126 421 62 277 59 179 59
2042 1 936 4 1704 7 1707 3 3 87 -22 188 -55 100 -34 185 -59 188 -56 3 3 -35
117 -85 254 -102 279 -147 423 -227 716 -68 255 -80 310 -160 731 -155 822
-233 1109 -390 1431 -77 159 -151 260 -287 391 -399 384 -925 504 -1382 314
-43 -18 -127 -66 -188 -107 -231 -155 -319 -182 -668 -203 -286 -17 -416 -50
-554 -140 -135 -88 -226 -186 -453 -486 -135 -178 -214 -259 -291 -298 -69
-35 -165 -59 -203 -51 -42 9 -150 113 -199 191 -133 212 -201 582 -155 847 41
236 143 364 343 430 164 54 287 69 637 75 441 9 483 8 537 -7 94 -27 158 -112
158 -213 0 -21 4 -38 9 -38 19 0 380 381 430 454 107 156 146 301 123 460 -7
47 -20 104 -29 128 -12 31 -17 82 -18 183 -3 159 -20 245 -66 343 -42 86 -126
168 -221 214 -83 41 -110 67 -127 120 -12 38 -55 82 -90 93 -10 3 -48 40 -84
83 -108 129 -221 230 -293 264 -58 27 -79 31 -212 39 -281 16 -319 25 -493
109 -185 89 -242 101 -494 107 -133 3 -307 -1 -475 -11 -146 -9 -311 -16 -366
-16 -194 0 -398 28 -584 80 -58 17 -109 30 -113 30 -13 0 4 -53 36 -114 39
-73 112 -148 252 -256 61 -47 130 -105 154 -129 53 -53 60 -45 -114 -132 -66
-34 -156 -85 -201 -114 -135 -90 -253 -231 -279 -336 l-6 -25 208 0 c183 0
214 -2 261 -20 l53 -19 -71 -38 c-103 -56 -237 -147 -302 -206 -80 -72 -153
-174 -258 -357 -50 -87 -94 -162 -98 -166 -4 -4 -41 52 -81 125 -180 321 -307
453 -576 598 l-79 43 29 12 c66 27 169 37 332 30 l162 -6 -13 45 c-48 159
-208 302 -498 446 -71 35 -128 68 -128 74 0 16 72 82 185 170 181 141 250 218
285 320 18 52 18 55 1 55 -10 0 -20 -2 -22 -5z m-340 -292 c-76 -81 -210 -153
-464 -248 -276 -104 -395 -164 -463 -238 -21 -22 -3 -18 180 44 233 78 329 96
441 80 129 -18 295 -88 496 -209 l84 -51 -48 -30 c-62 -39 -121 -59 -219 -71
-126 -16 -265 5 -536 80 -179 49 -184 46 -40 -28 554 -282 870 -621 1083
-1162 73 -185 128 -380 192 -675 18 -82 35 -143 38 -135 3 8 20 85 37 170 180
863 489 1351 1079 1700 64 38 160 90 214 116 53 26 96 49 94 51 -2 2 -48 -8
-103 -23 -54 -14 -149 -38 -211 -54 -193 -50 -373 -57 -493 -19 -43 14 -150
69 -150 78 0 21 330 195 433 229 190 62 309 51 619 -58 78 -28 147 -49 152
-47 18 6 -122 104 -207 145 -45 22 -147 63 -227 92 -266 97 -380 155 -472 239
l-53 49 620 -4 c510 -3 631 -6 680 -19 33 -8 128 -48 210 -89 231 -114 289
-127 527 -119 152 6 156 5 213 -21 75 -34 208 -167 297 -296 35 -52 68 -100
71 -107 9 -15 -93 -38 -233 -53 -167 -18 -305 5 -524 87 l-119 45 -81 -56
c-100 -68 -123 -78 -276 -115 -111 -28 -180 -55 -180 -72 0 -14 109 -51 166
-56 77 -7 117 6 196 64 110 81 178 98 284 72 l44 -11 0 -47 c0 -33 -9 -60 -30
-96 -34 -57 -40 -126 -15 -162 9 -12 45 -36 81 -54 l66 -33 -24 -18 c-42 -34
-122 -78 -162 -89 -36 -10 -41 -8 -68 18 -17 15 -45 61 -64 101 l-33 72 -43 0
c-24 0 -86 -12 -137 -25 -52 -14 -103 -25 -113 -25 -27 0 -22 -15 14 -45 31
-26 35 -27 114 -21 l82 7 37 -43 c56 -65 95 -138 95 -179 0 -74 -51 -105 -255
-159 -178 -46 -272 -78 -350 -118 -129 -66 -246 -211 -249 -305 -1 -32 5 -44
29 -64 91 -74 92 -79 35 -204 -82 -183 -120 -374 -120 -605 0 -432 156 -821
415 -1037 l60 -50 -75 6 c-423 37 -742 395 -811 914 -16 123 -6 381 20 505 41
190 118 372 225 533 35 52 59 95 52 95 -6 0 -96 -42 -201 -95 -104 -52 -203
-96 -220 -97 -29 -3 -30 -1 -37 47 -11 86 -8 226 7 325 8 52 13 96 11 98 -2 2
-18 -12 -35 -30 -64 -67 -111 -204 -130 -382 -13 -112 -14 -385 -2 -404 5 -9
30 13 85 78 76 88 137 140 184 155 23 7 23 6 17 -42 -13 -91 -94 -488 -140
-683 -86 -363 -182 -695 -227 -784 l-20 -38 -40 38 c-103 100 -185 273 -214
452 -23 138 -14 401 24 707 17 132 33 287 37 345 7 105 7 105 -13 87 -28 -26
-77 -121 -101 -199 -29 -95 -47 -200 -81 -463 -48 -364 -80 -520 -140 -665
-33 -79 -86 -169 -126 -215 l-27 -29 -34 39 c-19 22 -59 90 -89 150 -83 168
-115 312 -180 810 -39 302 -92 483 -164 565 l-21 25 5 -115 c3 -63 17 -205 30
-315 73 -589 55 -811 -84 -1046 -39 -65 -125 -169 -140 -169 -24 0 -124 313
-209 655 -88 352 -186 833 -179 875 3 19 4 19 43 1 37 -17 94 -71 202 -190
l41 -45 7 102 c17 239 -27 523 -99 646 -25 43 -76 96 -76 80 0 -5 7 -61 16
-124 20 -147 10 -350 -18 -350 -21 0 -142 54 -237 105 -97 53 -200 99 -207 93
-1 -2 22 -39 52 -83 180 -260 278 -609 260 -930 -29 -540 -313 -935 -734
-1020 -44 -9 -96 -15 -115 -13 l-35 3 54 47 c199 172 330 423 391 751 24 130
24 438 0 562 -25 124 -61 241 -102 327 -54 111 -50 132 39 205 34 28 34 77 0
146 -40 78 -80 123 -157 177 -85 61 -177 97 -383 151 -87 23 -180 52 -206 65
-52 26 -88 66 -88 98 1 35 37 105 88 168 l47 59 87 -7 87 -7 33 34 c30 30 31
34 13 37 -11 2 -64 14 -118 28 -54 13 -116 24 -138 24 -34 0 -42 -5 -59 -32
-11 -18 -22 -45 -25 -60 -4 -15 -23 -46 -43 -69 l-37 -41 -45 12 c-55 14 -186
98 -173 111 5 5 35 19 68 32 102 41 119 112 54 211 -19 28 -34 65 -37 91 -4
42 -3 45 24 56 46 18 147 23 187 10 20 -7 65 -33 99 -58 93 -69 139 -86 212
-81 33 3 88 15 120 28 l60 23 -27 22 c-17 15 -64 32 -135 49 -134 31 -204 57
-262 96 -25 16 -62 41 -83 55 l-37 25 -126 -45 c-190 -69 -279 -88 -414 -88
-107 -1 -301 25 -330 43 -25 15 175 282 264 353 28 22 74 51 103 64 49 23 60
24 240 22 154 -2 200 1 253 15 86 24 167 58 259 111 94 54 181 84 274 93 40 4
330 8 646 9 l573 2 -23 -26z m-2609 -780 c35 -17 87 -60 145 -119 49 -50 164
-151 255 -224 296 -236 412 -345 454 -427 27 -53 23 -57 -47 -50 -130 12 -232
67 -517 281 -107 81 -228 163 -268 183 -72 36 -75 37 -255 47 l-182 11 -3 44
c-4 59 22 125 71 178 71 77 123 101 228 102 52 1 76 -4 119 -26z m6936 3 c28
-13 67 -38 88 -56 61 -54 105 -158 91 -219 l-6 -29 -162 -7 c-249 -11 -247
-10 -602 -276 -232 -174 -333 -226 -457 -236 l-70 -6 16 37 c34 83 146 192
414 407 97 78 227 191 289 251 133 129 185 158 283 158 47 0 79 -7 116 -24z
m-7029 -531 c211 -40 451 -153 683 -319 l85 -61 -65 -7 c-388 -45 -575 -134
-757 -363 l-31 -40 -87 90 c-118 122 -181 213 -207 298 -40 131 -8 374 52 404
35 18 230 16 327 -2z m7223 -13 c36 -37 54 -117 54 -247 1 -165 -44 -254 -212
-427 l-98 -100 -63 76 c-68 82 -175 169 -256 209 -103 51 -280 95 -463 113
-78 8 -77 10 77 113 189 126 386 219 548 260 104 26 118 28 261 30 123 1 124
1 152 -27z m-5710 -502 c57 -32 80 -76 80 -153 0 -67 -7 -72 -85 -71 -33 0
-67 9 -100 26 -126 65 -258 85 -455 68 -331 -28 -464 -23 -574 19 -27 11 -28
12 -12 30 23 26 103 59 185 78 78 17 404 31 706 29 204 -1 211 -2 255 -26z
m4500 20 c301 -11 383 -25 484 -88 l40 -25 -28 -14 c-43 -23 -154 -43 -239
-43 -43 0 -168 7 -279 16 -274 21 -345 12 -533 -70 -65 -28 -99 -32 -139 -16
-24 9 -26 14 -26 70 0 96 34 143 117 166 57 15 248 16 603 4z m-7340 -780
c106 -26 280 -110 380 -186 167 -125 304 -169 580 -185 299 -17 390 -33 497
-84 212 -101 303 -189 517 -499 194 -279 392 -397 729 -431 l67 -7 0 -894 0
-893 -26 -73 c-46 -128 -101 -226 -183 -327 -39 -47 -166 -151 -185 -151 -18
0 -101 142 -140 240 -41 104 -71 221 -91 360 -14 99 -33 504 -38 835 l-2 150
-48 -189 c-110 -428 -215 -687 -352 -866 -60 -78 -162 -171 -230 -210 -70 -40
-62 -46 -140 115 -134 279 -171 511 -160 1020 3 154 8 303 10 330 9 86 -10 33
-100 -283 -136 -484 -188 -632 -293 -837 -105 -205 -234 -373 -354 -462 l-50
-36 -20 24 c-61 75 -123 262 -157 477 -49 300 -48 504 5 1100 14 155 24 313
22 350 l-3 67 -74 -245 c-139 -460 -223 -691 -336 -925 -121 -251 -245 -414
-365 -483 -30 -18 -61 -32 -68 -32 -35 0 -101 183 -127 355 -22 144 -23 454
-1 626 9 69 38 240 65 380 47 245 76 427 68 435 -2 2 -18 -40 -36 -94 -78
-229 -213 -543 -335 -777 -282 -540 -563 -882 -831 -1010 -40 -19 -75 -35 -78
-35 -3 0 15 51 39 113 133 334 206 632 354 1426 80 431 171 858 210 983 81
263 242 492 457 650 130 96 325 177 473 198 92 13 250 4 350 -20z m9918 -5
c226 -47 411 -152 598 -339 131 -131 204 -237 273 -398 99 -230 143 -396 300
-1128 254 -1177 231 -1084 321 -1299 58 -137 67 -171 50 -171 -24 0 -139 70
-216 131 -318 253 -694 802 -818 1194 -71 225 -215 650 -240 710 -19 46 -25
54 -26 33 0 -48 39 -254 79 -416 155 -613 159 -933 20 -1439 -17 -62 -34 -113
-38 -113 -3 0 -30 14 -60 31 -169 97 -388 423 -535 796 -31 78 -83 236 -117
350 -82 282 -139 466 -148 476 -9 9 -10 19 21 -358 30 -365 33 -970 5 -1143
-30 -188 -93 -372 -156 -451 l-19 -24 -48 28 c-247 144 -493 686 -719 1580
-51 199 -53 181 -29 -255 13 -240 14 -322 5 -440 -22 -277 -58 -453 -121 -588
-51 -109 -108 -202 -124 -202 -25 0 -132 77 -193 140 -87 87 -174 218 -248
373 -74 154 -119 285 -174 504 -38 148 -67 244 -72 233 -1 -3 -5 -178 -9 -390
-10 -476 -28 -616 -106 -849 -31 -95 -103 -246 -139 -295 -14 -18 -17 -17 -70
29 -62 52 -154 156 -204 228 -54 80 -120 228 -147 332 -35 138 -43 336 -44
1111 l0 631 93 12 c268 34 457 127 596 292 32 38 103 133 157 212 156 224 291
347 471 429 94 42 172 56 383 68 237 14 324 25 424 57 106 33 142 52 256 133
203 144 358 199 572 200 75 0 155 -6 196 -15z m-5303 -1030 c82 -117 152 -212
156 -209 4 2 74 99 154 215 l147 210 60 -93 c124 -191 269 -353 358 -398 58
-30 65 -27 79 33 14 62 50 141 84 182 l25 30 43 -70 c24 -38 63 -99 86 -135
l42 -65 -540 -3 c-296 -1 -782 -1 -1079 0 l-540 3 82 132 82 132 24 -22 c13
-12 34 -42 47 -67 23 -46 26 -54 45 -128 10 -41 13 -43 38 -37 96 22 282 221
416 443 20 34 38 62 40 62 1 0 69 -97 151 -215z m-1075 -174 l-32 -131 -104 0
-105 0 12 23 c19 36 251 263 256 250 2 -7 -10 -71 -27 -142z m2522 70 c76 -72
168 -178 168 -194 0 -4 -45 -7 -100 -7 l-99 0 -10 38 c-5 20 -19 75 -31 122
-12 47 -23 93 -26 103 -10 32 12 18 98 -62z m573 -403 c3 -35 5 -907 3 -1938
l-3 -1875 -22 -78 c-56 -195 -156 -288 -367 -342 -146 -37 -286 -46 -694 -44
-332 2 -385 0 -447 -15 -66 -17 -227 -88 -306 -136 l-35 -22 -67 41 c-91 55
-149 84 -235 115 -130 46 -181 49 -510 31 -391 -23 -508 -16 -684 41 -135 44
-247 134 -302 243 -59 115 -56 5 -56 2109 l0 1932 1859 0 1859 0 7 -62z
m-7746 -2459 l1 -687 -24 -53 c-13 -30 -34 -94 -46 -143 -19 -79 -21 -97 -11
-142 7 -29 25 -71 42 -93 l29 -41 0 -762 c0 -420 5 -923 11 -1118 5 -195 13
-463 17 -595 8 -284 0 -533 -22 -667 -16 -99 -60 -253 -75 -262 -4 -3 -17 55
-29 129 -48 299 -90 465 -242 949 -80 256 -118 473 -139 791 -26 395 -32 3263
-7 3303 4 6 67 63 140 126 74 63 180 165 237 225 l104 110 6 -192 c4 -106 7
-501 8 -878z m11950 929 c65 -77 126 -134 219 -207 71 -55 133 -108 137 -118
19 -48 26 -638 20 -1733 -6 -1202 -14 -1523 -41 -1760 -33 -291 -70 -445 -193
-815 -49 -148 -101 -324 -116 -390 -29 -129 -65 -359 -65 -415 0 -65 -16 -67
-39 -4 -78 207 -91 495 -63 1369 10 307 13 881 10 2285 -2 1031 1 1886 6 1899
10 27 -2 37 125 -111z m-11654 -173 c58 -131 107 -240 109 -242 9 -9 85 31
176 91 111 74 255 194 322 269 l48 52 0 -522 0 -523 -70 0 c-191 0 -387 -81
-577 -237 -82 -67 -81 -68 -83 112 0 72 -7 252 -15 400 -17 309 -31 853 -22
844 4 -3 54 -113 112 -244z m1885 60 c88 -207 165 -339 251 -430 l50 -53 182
114 182 114 9 -68 c5 -37 7 -321 6 -632 -5 -697 -5 -945 -2 -1700 1 -327 -2
-626 -6 -665 l-7 -69 -117 129 c-136 152 -299 346 -468 556 l-120 149 0 723
c0 397 -3 997 -6 1332 -4 336 -4 608 -2 605 3 -3 25 -50 48 -105z m8800 -1
c58 -58 134 -127 170 -153 62 -47 236 -151 251 -151 4 0 46 69 93 153 l86 152
0 -480 c0 -264 3 -497 6 -518 l7 -38 -104 104 c-165 165 -342 251 -541 264
l-88 6 0 383 c0 211 3 384 8 384 4 0 55 -48 112 -106z m-1302 -1348 l-3 -474
-339 175 c-286 148 -342 174 -358 164 -17 -11 -18 11 -18 603 l0 614 110 -73
c61 -41 147 -88 192 -105 l83 -32 32 38 c65 76 155 221 226 364 l72 145 3
-472 c1 -260 1 -686 0 -947z m-913 859 c4 -198 4 -556 0 -796 l-7 -436 -134
-158 c-74 -88 -134 -162 -134 -165 0 -9 63 -83 173 -202 l99 -108 -8 -654 -7
-655 -59 53 c-76 69 -148 106 -275 140 -56 16 -110 34 -119 41 -25 18 -30 78
-44 461 -13 347 -11 2216 2 2229 3 4 34 -9 68 -29 74 -43 69 -46 145 69 105
157 247 489 272 635 l8 45 6 -55 c4 -30 10 -217 14 -415z m-5561 75 c68 -151
165 -331 212 -389 2 -2 38 17 80 43 42 26 78 46 80 44 14 -14 24 -289 23 -643
0 -632 -17 -1614 -29 -1750 -12 -141 -28 -255 -41 -307 l-10 -38 -132 3 c-133
2 -170 -5 -309 -58 -17 -7 -18 79 -18 1716 l1 1724 48 -120 c27 -66 69 -167
95 -225z m6823 60 c69 -65 286 -225 350 -259 20 -10 25 -6 62 48 34 50 123
220 158 301 l11 25 5 -25 c3 -14 11 -112 18 -219 13 -213 15 -204 -50 -216
-61 -11 -182 -73 -258 -131 -285 -218 -417 -599 -328 -944 18 -71 81 -212 116
-261 21 -30 16 -28 -101 34 -68 36 -132 72 -142 81 -17 15 -18 54 -18 897 l0
882 49 -69 c26 -38 84 -103 128 -144z m-8089 -1411 l-3 -523 -66 89 c-39 54
-75 116 -89 155 -12 36 -30 75 -38 88 -17 27 -62 52 -92 52 -45 0 -179 176
-310 408 l-52 92 -9 128 c-8 109 -13 135 -39 187 l-29 60 -7 366 c-3 201 -3
375 1 388 5 18 22 -10 92 -156 47 -98 89 -182 93 -187 5 -4 30 0 56 10 108 41
312 197 427 327 l62 69 3 -515 c1 -284 1 -751 0 -1038z m6034 1232 l75 -70 6
-969 c4 -532 4 -1149 0 -1371 -6 -361 -8 -401 -22 -396 -101 38 -293 218 -389
364 -56 85 -109 200 -126 273 -6 25 -1 29 56 60 93 49 178 139 227 239 80 164
75 99 79 1072 1 480 6 867 11 867 5 0 42 -31 83 -69z m-4092 -787 c0 -557 4
-849 11 -897 23 -145 85 -276 168 -350 41 -37 152 -97 178 -97 14 0 -6 -51
-68 -175 -75 -148 -166 -274 -283 -390 l-111 -110 -5 1365 c-5 1307 -4 1366
13 1397 17 31 73 83 90 83 4 0 7 -372 7 -826z m7132 467 c198 -51 392 -202
478 -373 56 -112 74 -204 67 -347 -9 -203 -76 -360 -212 -497 -122 -124 -262
-184 -431 -184 -35 0 -66 5 -69 10 -13 21 127 211 245 335 66 68 129 143 140
166 100 195 21 457 -169 557 -159 85 -327 77 -462 -22 -77 -57 -117 -115 -179
-264 -32 -77 -74 -168 -95 -203 -44 -76 -106 -159 -118 -159 -4 0 -22 30 -40
68 -30 64 -32 73 -32 187 0 100 4 132 24 194 45 137 151 289 270 387 173 143
385 195 583 145z m-9953 -210 c47 -33 59 -86 37 -164 -77 -279 -481 -636 -796
-702 -101 -21 -158 -19 -210 8 -36 17 -48 30 -58 62 -65 195 306 624 665 770
142 57 302 69 362 26z m320 -692 l180 -266 -23 -49 c-93 -199 -408 -448 -631
-499 -65 -15 -69 -15 -86 2 -71 74 -417 489 -411 494 4 3 36 16 72 29 212 74
366 188 585 430 65 72 121 129 126 128 4 -2 89 -123 188 -269z m9457 199 c26
-18 56 -49 66 -68 58 -110 -28 -337 -222 -588 l-71 -92 -47 26 c-68 39 -300
192 -307 204 -3 5 29 67 71 137 216 365 367 477 510 381z m-1667 -156 l130
-79 -184 -249 c-102 -137 -191 -250 -198 -252 -6 -1 -66 51 -131 117 l-119
120 71 94 c138 185 266 327 292 327 5 0 67 -35 139 -78z m462 -247 c327 -165
718 -401 954 -578 84 -63 435 -404 435 -422 0 -51 -322 -565 -354 -565 -30 0
-382 145 -716 294 -213 95 -215 96 -293 173 -82 81 -526 547 -591 619 l-36 42
68 103 c73 111 190 264 279 366 l54 61 54 -23 c30 -14 95 -45 146 -70z m1950
-1507 l-6 -1437 -125 89 c-384 274 -533 511 -585 929 -7 58 -12 107 -11 108 1
1 69 -27 151 -63 82 -35 155 -62 161 -60 11 4 387 591 392 613 2 7 -21 40 -50
73 -95 108 -622 615 -724 696 l-99 79 60 2 c346 15 602 127 783 344 32 37 58
67 58 66 1 -1 -1 -649 -5 -1439z m-11295 1324 c122 -89 364 -433 379 -537 12
-88 49 -134 127 -157 28 -8 57 -31 98 -76 74 -80 75 -84 67 -397 -8 -319 -39
-594 -88 -790 -43 -172 -183 -400 -335 -547 -100 -96 -277 -238 -298 -238 -3
0 -6 623 -6 1385 0 762 4 1385 8 1385 5 0 27 -13 48 -28z m1600 -314 c271
-351 632 -801 823 -1027 l172 -203 -23 -86 c-29 -115 -31 -253 -4 -336 11 -33
44 -99 73 -148 50 -82 52 -90 39 -111 -36 -54 -198 -166 -324 -224 -82 -37
-218 -77 -234 -67 -14 9 -250 325 -583 784 -349 481 -628 855 -750 1005 l-83
102 107 41 c199 77 359 196 500 372 46 57 85 109 88 116 3 8 8 14 12 14 4 0
88 -104 187 -232z m7453 -460 l65 -71 -25 -46 c-35 -67 -216 -337 -279 -416
l-53 -67 -14 26 c-22 42 -52 184 -63 301 -5 61 -10 231 -10 378 l0 269 158
-152 c86 -83 186 -182 221 -222z m-4875 198 c138 -37 202 -39 507 -20 231 15
295 16 372 6 124 -16 167 -30 167 -55 0 -11 -25 -175 -55 -364 -30 -190 -55
-349 -55 -353 0 -13 -104 11 -157 37 -101 50 -168 134 -244 308 -71 162 -167
237 -389 305 -162 50 -250 100 -250 142 0 22 -6 23 104 -6z m2936 1 c0 -25
-33 -43 -145 -81 -197 -68 -336 -147 -427 -244 -50 -53 -68 -85 -119 -207 -57
-138 -143 -201 -303 -223 -49 -6 -66 -6 -66 3 0 18 -69 626 -75 662 -6 31 -5
32 52 44 40 8 154 11 362 10 299 -2 487 9 626 34 93 17 95 17 95 2z m-1317
-644 c15 -291 30 -545 33 -565 l6 -38 -241 0 -241 0 0 23 c0 45 80 1091 84
1094 2 2 39 -9 81 -26 74 -29 79 -29 108 -14 27 14 123 50 137 52 3 1 18 -236
33 -526z m5195 179 c61 -52 112 -98 112 -102 0 -14 -156 -285 -217 -375 l-55
-84 -32 13 c-146 62 -276 119 -276 123 0 2 75 123 167 268 96 151 172 261 178
257 5 -3 61 -48 123 -100z m-1658 -53 c25 -26 61 -46 125 -69 50 -19 92 -35
94 -36 8 -6 -68 -127 -173 -276 -374 -531 -452 -644 -544 -791 -109 -174 -203
-349 -252 -468 -86 -209 -83 -384 10 -530 96 -149 250 -226 470 -236 142 -6
258 12 423 67 197 66 383 175 491 288 43 45 43 46 -37 57 -112 15 -291 77
-284 98 14 44 977 480 1003 454 7 -7 -93 -434 -152 -643 -70 -253 -149 -464
-173 -464 -13 0 -80 206 -99 305 l-18 89 -69 -100 c-244 -349 -455 -550 -708
-674 -487 -237 -939 -111 -1403 392 -197 214 -378 504 -477 763 -59 154 -70
132 106 219 396 196 671 432 973 836 39 52 158 219 264 370 106 151 224 317
262 369 l70 93 31 -38 c18 -22 48 -55 67 -75z m-8227 -314 c74 -99 162 -222
197 -272 l64 -93 -11 -95 c-27 -225 -159 -366 -365 -389 l-58 -6 0 542 0 543
21 -25 c11 -14 79 -106 152 -205z m8902 11 l290 -122 3 -373 2 -372 -37 7
c-71 12 -247 75 -323 115 -96 51 -191 128 -253 204 -62 77 -132 218 -157 319
l-20 78 77 112 c104 152 107 155 118 155 6 0 141 -55 300 -123z m-5255 19 c58
-30 112 -86 145 -152 29 -60 52 -198 41 -256 l-7 -37 -79 0 c-79 0 -80 0 -86
28 -16 79 -36 114 -72 129 -48 20 -127 13 -154 -14 -11 -12 -28 -49 -38 -84
-20 -74 -21 -74 -126 -64 l-72 7 -4 46 c-11 119 26 250 90 323 35 40 120 89
172 100 54 11 140 -1 190 -26z m1804 5 c144 -54 230 -212 211 -388 l-7 -63
-96 3 -97 3 -7 49 c-4 28 -15 61 -26 75 -58 78 -194 31 -226 -78 l-13 -46 -81
-3 c-81 -3 -81 -3 -88 24 -4 14 -4 63 -1 108 10 166 83 275 214 322 57 20 153
17 217 -6z m856 -32 c114 -58 170 -159 170 -307 0 -117 -3 -121 -64 -120 -85
2 -100 9 -108 56 -10 62 -33 99 -69 112 -89 31 -147 -14 -152 -117 l-1 -42
-122 0 -122 0 -7 50 c-26 190 83 365 248 400 73 15 155 4 227 -32z m-3457 2
c59 -29 112 -86 140 -149 16 -35 22 -72 25 -158 l4 -113 -106 0 -106 0 0 35
c0 98 -65 148 -164 125 -53 -12 -91 -52 -111 -116 l-17 -55 -66 3 -66 3 -9 40
c-14 63 -2 175 24 231 31 66 106 138 171 163 77 30 213 26 281 -9z m-813 -73
c61 -29 131 -101 163 -168 24 -51 55 -184 45 -194 -2 -3 -38 -6 -80 -7 -72 -2
-77 -1 -112 30 -58 50 -114 54 -184 12 -73 -45 -92 -140 -52 -270 11 -36 20
-68 20 -72 0 -32 -138 45 -176 98 -92 128 -104 280 -33 415 84 157 261 225
409 156z m5029 -4 c63 -30 161 -125 191 -183 12 -23 24 -62 27 -88 7 -68 -38
-146 -159 -271 l-96 -101 14 47 c17 55 18 153 3 208 -6 21 -26 54 -45 73 -31
31 -39 34 -79 30 -28 -4 -59 -17 -86 -37 -41 -29 -47 -31 -136 -31 -107 0
-106 -2 -78 103 37 142 131 247 250 278 49 13 136 0 194 -28z m-4525 -528 c53
-102 150 -186 226 -197 l25 -3 3 128 3 127 295 0 296 0 -7 -42 c-12 -86 -28
-144 -52 -191 -13 -27 -22 -51 -19 -54 12 -12 139 28 182 57 54 38 111 108
143 178 l24 52 768 0 768 0 42 -80 c48 -94 106 -150 183 -179 69 -25 126 -36
126 -23 0 5 -18 68 -40 140 -22 71 -40 132 -40 136 0 3 140 6 310 6 l310 0 0
-22 c-1 -13 -6 -69 -13 -126 -7 -56 -11 -104 -9 -107 2 -2 27 5 55 15 68 26
128 88 167 171 l32 69 236 -2 237 -3 -1 -66 c-1 -83 -35 -159 -97 -216 -53
-48 -227 -148 -287 -163 -34 -9 -502 -12 -1905 -12 -1654 0 -1867 2 -1927 16
-117 27 -223 83 -390 205 l-77 56 -1 93 0 92 203 0 202 0 29 -55z m5791 -200
c149 -48 274 -90 278 -95 4 -4 -18 -10 -50 -14 -74 -9 -247 -67 -332 -111
-143 -76 -306 -226 -406 -376 -52 -77 -153 -268 -174 -329 -10 -29 -14 -32
-21 -19 -17 30 -23 154 -11 223 27 153 88 278 315 644 60 97 113 171 119 169
7 -2 134 -44 282 -92z m-6275 -145 c36 -12 92 -38 125 -58 69 -42 185 -149
244 -226 l41 -53 -10 -115 c-14 -159 -50 -291 -114 -423 -76 -154 -159 -267
-318 -430 -120 -123 -138 -138 -151 -125 -31 32 -705 1030 -699 1034 4 2 63
25 132 51 231 88 310 138 460 290 l85 87 70 -5 c39 -3 99 -15 135 -27z m6899
-90 c93 -12 235 -50 224 -60 -4 -4 -234 -117 -510 -250 -277 -134 -503 -246
-503 -250 0 -4 106 -46 235 -94 129 -49 233 -92 230 -96 -9 -14 -246 -110
-333 -136 -176 -51 -347 -52 -477 -3 l-53 20 14 51 c45 172 213 418 384 562
245 207 509 292 789 256z m-8693 -25 c453 -79 818 -406 931 -834 22 -80 26
-118 26 -231 0 -119 -3 -145 -26 -215 -57 -175 -168 -289 -335 -347 -60 -20
-84 -23 -227 -22 -139 1 -172 4 -255 27 -52 14 -97 23 -100 21 -11 -11 49
-102 99 -152 61 -60 195 -130 297 -156 310 -79 702 1 1031 211 287 182 569
486 788 848 68 112 189 349 238 464 l28 64 946 -6 c521 -4 1300 -7 1733 -7
l787 0 94 -197 c106 -222 212 -404 315 -543 374 -502 882 -782 1419 -783 270
0 501 72 627 195 43 41 86 113 76 124 -2 2 -38 -14 -79 -35 -65 -35 -122 -54
-224 -75 -18 -4 5 13 55 39 153 83 333 236 466 396 32 38 61 69 64 69 13 0
112 -177 128 -230 26 -87 20 -229 -16 -370 -88 -342 -296 -534 -659 -607 -134
-27 -426 -24 -596 6 -397 70 -730 213 -1048 452 -285 215 -502 467 -709 824
-51 88 -115 195 -143 238 l-49 77 -1463 0 -1464 0 -51 -82 c-28 -46 -94 -157
-147 -248 -357 -619 -910 -1057 -1538 -1218 -230 -59 -290 -67 -540 -66 -216
0 -236 2 -328 27 -225 60 -393 181 -497 355 -68 116 -93 207 -98 357 -5 150
10 229 58 325 99 196 323 263 650 196 63 -13 119 -20 124 -16 16 16 10 260 -9
335 -51 203 -189 340 -384 385 -67 16 -216 16 -299 1 -279 -52 -563 -237 -749
-488 -154 -208 -254 -496 -284 -823 -43 -466 104 -1028 402 -1536 265 -452
742 -995 1240 -1412 913 -764 2070 -1257 3269 -1392 1358 -153 2817 189 3940
925 327 213 507 359 877 708 669 631 1050 1157 1244 1717 227 656 189 1330
-99 1740 -25 36 -88 109 -141 163 l-95 97 53 223 c65 271 58 250 73 241 84
-49 175 -124 255 -213 237 -262 315 -383 396 -617 87 -249 113 -500 87 -844
-74 -989 -437 -1848 -1101 -2604 -124 -141 -381 -395 -524 -518 -1267 -1085
-3217 -1724 -4801 -1573 -1360 130 -2794 770 -3884 1732 -164 145 -469 456
-599 613 -743 889 -1053 1806 -935 2764 107 875 544 1397 1256 1500 129 19
317 19 424 1z m20 -610 c107 -53 178 -146 209 -277 8 -35 15 -68 15 -73 0 -7
-48 -6 -147 3 -278 24 -414 -17 -556 -168 -107 -114 -157 -262 -157 -468 0
-447 254 -783 693 -917 142 -43 258 -58 437 -58 771 -1 1588 474 2080 1208 81
121 166 266 211 359 l34 69 1010 -7 c556 -3 1177 -6 1380 -6 l370 0 109 -178
c228 -370 247 -395 534 -699 179 -189 271 -270 407 -358 399 -260 956 -406
1395 -365 352 32 602 137 782 328 180 191 261 463 228 769 l-12 112 104 200
104 200 54 -62 c357 -412 415 -1026 162 -1722 -47 -131 -164 -364 -246 -494
-311 -487 -885 -1104 -1361 -1461 -1351 -1014 -2988 -1428 -4600 -1164 -608
100 -1168 282 -1735 565 -140 71 -315 164 -387 208 -801 482 -1483 1146 -1887
1834 -385 656 -512 1382 -330 1887 129 359 436 664 755 750 58 16 98 19 180
17 93 -3 114 -7 165 -32z m1369 -702 c52 -79 85 -138 82 -147 -13 -33 -176
-149 -282 -201 -156 -76 -339 -126 -459 -125 l-41 1 58 24 c151 63 282 183
346 318 47 99 67 177 83 319 l11 107 57 -82 c31 -45 96 -141 145 -214z"/>
<path d="M4242 16108 c-11 -13 -25 -36 -31 -51 -11 -29 -15 -107 -6 -107 11 0
165 93 165 99 -1 6 -95 81 -102 81 -3 0 -14 -10 -26 -22z"/>
<path d="M1912 14151 c-92 -205 -303 -1019 -346 -1333 -21 -157 129 194 295
693 102 303 179 583 179 645 0 28 -5 36 -25 44 -70 27 -69 27 -103 -49z"/>
<path d="M2665 13878 c-87 -276 -243 -1130 -223 -1224 18 -85 244 634 343
1092 36 164 36 167 -26 193 -29 11 -55 21 -60 21 -4 0 -20 -37 -34 -82z"/>
<path d="M3569 13634 c-36 -95 -86 -387 -124 -724 -30 -263 -44 -527 -28 -517
19 12 72 151 109 284 61 223 145 676 167 896 5 47 4 49 -27 62 -71 30 -85 30
-97 -1z"/>
<path d="M4436 13323 c-39 -230 -70 -518 -82 -770 -7 -147 1 -277 16 -268 13
8 65 174 94 301 59 257 109 589 104 688 l-3 59 -45 13 c-69 21 -77 19 -84 -23z"/>
<path d="M5370 13047 c0 -1 -11 -81 -25 -177 -31 -221 -52 -435 -61 -615 -7
-146 1 -299 16 -290 23 14 103 315 155 585 28 142 76 442 72 445 -4 4 -157 54
-157 52z"/>
<path d="M13330 14196 c-34 -9 -45 -17 -44 -32 2 -29 169 -627 229 -819 88
-279 185 -500 241 -546 15 -12 16 -9 9 51 -22 200 -101 524 -234 957 -39 126
-81 266 -94 313 -27 95 -30 97 -107 76z"/>
<path d="M12587 13945 c-27 -7 -51 -16 -55 -19 -42 -43 201 -961 323 -1221
l33 -70 1 68 c1 97 -32 323 -94 632 -68 340 -141 631 -158 624 -1 0 -24 -7
-50 -14z"/>
<path d="M11735 13652 c-11 -2 -37 -8 -57 -13 l-38 -10 0 -54 c0 -204 202
-1101 265 -1180 15 -18 16 -7 11 145 -8 244 -56 648 -112 934 -30 155 -41 184
-69 178z"/>
<path d="M10825 13348 c-33 -10 -63 -22 -67 -26 -34 -34 162 -1032 202 -1032
24 0 27 254 5 486 -17 175 -62 527 -73 566 l-7 24 -60 -18z"/>
<path d="M9883 13032 l-53 -15 0 -61 c0 -216 170 -1006 211 -981 30 19 -7 627
-57 930 -27 166 -16 152 -101 127z"/>
<path d="M5888 12163 c-4 -2199 -4 -2204 15 -2310 41 -226 125 -329 292 -363
101 -20 326 -22 559 -6 284 20 394 20 516 1 118 -18 197 -44 284 -95 l67 -39
66 44 c36 24 95 55 132 67 74 26 94 26 766 17 309 -4 336 -2 427 18 183 40
273 102 332 228 44 93 45 116 36 780 -5 347 -12 1136 -15 1755 -3 619 -8 1162
-11 1208 l-6 82 -1729 0 -1729 0 -2 -1387z m1789 1053 c-6 -39 -4 -44 19 -55
19 -8 25 -8 23 2 -4 31 2 38 29 35 23 -2 27 -8 27 -33 0 -20 6 -31 18 -33 19
-4 24 -34 5 -31 -26 3 -37 -2 -67 -27 -35 -29 -43 -74 -13 -75 14 0 14 -2 -3
-9 -19 -7 -18 -8 7 -15 17 -4 25 -12 21 -21 -4 -10 3 -14 22 -14 25 0 27 2 21
33 -6 31 -2 38 53 89 33 30 70 71 81 92 22 36 40 40 40 9 0 -9 -12 -32 -27
-52 l-26 -36 29 28 c17 15 33 27 37 27 15 0 6 -30 -13 -48 l-21 -19 28 5 c28
5 28 5 9 -17 -19 -21 -19 -21 0 -21 17 -1 17 -3 -5 -20 -23 -20 -23 -20 -2
-20 12 0 21 -4 21 -10 0 -5 -10 -10 -22 -10 -21 -1 -21 -2 -5 -11 21 -13 22
-29 1 -29 -14 0 -14 -3 -4 -15 10 -13 9 -15 -11 -15 -18 0 -20 -3 -11 -12 19
-19 14 -31 -9 -25 -17 5 -18 3 -7 -10 11 -14 10 -16 -14 -11 -23 4 -28 2 -28
-16 -1 -20 -1 -20 -21 3 l-20 25 6 -27 c9 -36 -10 -35 -29 1 -15 26 -15 26
-16 4 0 -30 -24 -24 -28 6 -4 27 -29 29 -37 2 -8 -25 5 -48 35 -63 25 -13 50
-73 26 -64 -7 3 -19 1 -26 -3 -21 -13 7 -40 41 -40 24 0 29 4 29 23 0 13 11
33 25 45 14 13 23 28 19 34 -4 7 -3 8 5 4 6 -4 9 -12 5 -17 -3 -6 3 -17 15
-25 12 -8 21 -24 21 -34 0 -26 -49 -63 -75 -55 -11 3 -42 10 -69 15 -50 10
-98 44 -73 53 9 3 9 7 -1 20 -21 25 -43 10 -40 -29 2 -27 8 -36 39 -50 21 -9
41 -14 47 -10 5 3 9 -7 10 -23 1 -29 -4 -33 -71 -60 -23 -9 -26 -14 -17 -30
15 -29 12 -62 -9 -104 l-19 -37 39 0 c43 0 47 -8 28 -57 -27 -71 -30 -138 -8
-259 21 -121 20 -189 -3 -240 -8 -18 -9 -28 -1 -32 7 -5 8 -42 3 -111 -4 -57
-5 -112 -3 -122 4 -15 27 1 122 89 64 60 206 187 316 284 279 245 416 390 391
416 -11 10 -97 -17 -151 -47 -44 -25 -50 -33 -51 -62 0 -28 -9 -40 -75 -91
-112 -87 -126 -77 -83 59 33 103 40 115 65 108 13 -4 47 14 106 56 l88 61 -67
-5 c-88 -6 -163 -41 -163 -77 0 -20 -11 -30 -65 -56 -36 -17 -74 -41 -84 -53
-21 -23 -52 -28 -59 -8 -8 24 50 157 91 207 16 19 23 22 33 13 9 -9 25 -2 70
28 189 129 382 99 469 -72 11 -21 20 -44 20 -51 0 -8 28 -26 63 -41 84 -37
130 -76 161 -139 48 -95 32 -171 -53 -261 -31 -33 -47 -57 -41 -63 18 -18 -5
-31 -97 -58 -155 -44 -165 -34 -76 75 47 57 63 69 83 67 14 -1 31 1 37 5 13 8
48 115 40 123 -2 2 -31 -27 -63 -65 -44 -51 -73 -76 -114 -94 -160 -73 -227
-57 -130 30 28 25 56 57 61 70 6 17 16 23 38 23 65 0 121 88 106 167 -3 18 -8
33 -11 33 -32 0 -151 -104 -512 -447 -235 -223 -427 -409 -427 -414 0 -5 184
-184 408 -399 l408 -390 33 25 c40 30 44 31 72 4 l21 -20 95 50 c52 28 100 51
106 51 15 0 52 -59 52 -81 0 -10 -25 -28 -64 -48 -89 -44 -191 -120 -178 -133
7 -7 17 -6 30 1 32 17 109 13 150 -8 69 -36 122 -113 122 -178 0 -76 -83 -166
-164 -178 -142 -22 -279 131 -224 250 8 17 8 29 1 36 -11 11 -71 -62 -127
-156 -52 -88 -49 -86 -97 -67 -23 9 -43 21 -46 28 -5 14 26 79 74 151 l35 53
-28 23 -27 24 28 37 28 37 -154 147 c-84 81 -255 244 -379 363 -124 119 -226
216 -228 214 -2 -1 2 -78 8 -171 9 -160 2 -351 -16 -397 -4 -12 0 -23 11 -31
10 -7 15 -18 11 -25 -10 -15 -10 -172 -1 -200 3 -12 0 -34 -8 -49 -12 -24 -12
-35 0 -73 14 -45 18 -128 11 -232 -4 -68 -21 -87 -78 -87 -48 0 -71 25 -70 76
0 22 -3 68 -6 103 -4 46 -1 83 11 128 12 44 14 67 7 76 -12 15 -11 279 1 288
5 4 4 37 -2 77 -13 83 -14 332 -1 447 4 44 7 81 6 82 -1 1 -165 -158 -366
-354 -317 -309 -406 -390 -542 -493 -26 -20 -26 -22 -12 -55 19 -46 17 -81 -5
-131 -36 -80 -135 -134 -220 -119 -54 9 -116 55 -142 107 -44 85 -3 195 91
245 36 20 56 23 100 20 30 -2 65 -7 77 -12 18 -6 28 2 64 52 53 73 221 238
607 596 166 155 301 284 300 288 -5 12 -966 930 -975 930 -19 1 -34 -80 -30
-166 5 -108 39 -214 63 -194 22 18 39 5 53 -41 7 -24 32 -63 57 -90 24 -26 44
-52 44 -59 0 -18 -47 -13 -150 14 -105 29 -119 37 -101 59 11 13 7 24 -23 65
-85 115 -115 242 -97 406 15 131 14 209 -4 252 -22 52 -8 60 60 38 51 -16 68
-16 190 -5 229 22 350 0 479 -85 48 -33 58 -36 72 -24 14 11 18 11 29 -4 17
-23 67 -215 60 -227 -11 -18 -31 -10 -65 25 -20 21 -59 44 -93 57 -65 24 -74
32 -56 54 15 18 15 18 -46 37 -110 36 -255 39 -316 7 l-23 -13 31 -26 c16 -14
216 -204 442 -421 227 -217 416 -396 421 -398 12 -5 20 40 9 59 -12 23 -12
176 0 184 6 3 4 19 -5 40 -18 45 -18 128 2 234 18 96 15 182 -9 250 -9 25 -14
48 -11 53 3 4 24 8 47 8 33 1 38 3 25 11 -25 14 -42 84 -30 119 12 33 0 50
-35 50 -13 0 -23 5 -23 10 0 6 -5 9 -12 8 -7 -2 -12 11 -14 29 -1 19 2 30 8
27 11 -7 88 25 88 37 0 4 3 14 6 22 3 8 -3 22 -12 31 -16 16 -18 16 -33 1 -12
-13 -13 -19 -4 -22 22 -8 -5 -43 -32 -43 -37 0 -75 -18 -75 -36 0 -15 -2 -15
-22 -2 -15 10 -24 27 -25 48 -1 19 2 29 5 24 17 -23 58 -35 85 -25 15 6 27 15
27 20 0 12 -29 23 -43 14 -7 -4 -8 0 -4 11 4 10 7 24 7 31 0 8 12 20 28 27 20
10 27 20 27 43 0 37 -32 49 -37 14 -4 -31 -28 -37 -29 -7 0 23 0 23 -9 2 -12
-29 -29 -39 -36 -20 -3 9 -12 12 -21 9 -13 -5 -15 -2 -11 15 6 20 5 20 -17 6
-22 -14 -25 -14 -44 5 -12 12 -25 21 -31 21 -5 0 -10 5 -10 11 0 5 5 7 12 3 7
-4 8 -3 4 5 -4 6 -2 18 4 26 10 12 9 15 -4 15 -21 0 -20 9 2 26 16 12 15 13
-5 14 -13 0 -23 5 -23 10 0 6 9 10 21 10 21 0 21 0 -2 20 -22 17 -22 19 -5 20
18 0 18 1 1 20 -18 19 -17 20 4 20 20 0 21 1 7 16 -17 17 -22 44 -7 44 5 0 14
-7 21 -16 8 -8 23 -20 34 -26 15 -8 12 -1 -11 26 -33 37 -41 60 -24 70 5 3 21
-14 35 -39 15 -25 33 -45 41 -45 8 0 15 -4 15 -10 0 -5 18 -26 40 -46 36 -33
40 -41 34 -71 -6 -31 -4 -33 21 -33 22 0 25 3 20 21 -5 14 -4 19 4 15 6 -4 19
-2 28 3 11 7 13 11 5 11 -10 0 -10 4 2 15 30 31 -23 92 -81 94 -29 1 -30 17
-3 31 14 8 20 19 18 38 -3 24 0 27 27 27 25 0 30 -4 29 -22 -1 -27 4 -28 33
-8 19 13 21 19 11 40 -18 40 -4 55 48 55 l47 0 -6 -44z m-218 -5 c0 -9 -4 -25
-9 -36 -7 -17 -9 -15 -9 13 -1 30 -3 32 -21 22 -15 -8 -18 -15 -11 -28 4 -9 5
-26 0 -37 -6 -17 -8 -17 -8 -2 -1 9 -5 17 -9 17 -17 0 -5 43 17 61 25 20 51
15 50 -10z m418 -21 c-1 -8 4 -21 13 -28 13 -10 13 -11 -4 -6 -10 4 -22 1 -28
-7 -7 -10 -8 -5 -4 17 5 29 -7 54 -26 54 -4 0 -8 -15 -9 -32 l-1 -33 -10 34
c-7 25 -6 36 3 42 18 11 70 -22 66 -41z m-502 -430 c9 -16 12 -30 7 -30 -8 0
-32 42 -32 55 0 13 11 2 25 -25z"/>
<path d="M6420 10383 c-28 -11 -70 -56 -80 -88 -15 -46 6 -103 49 -132 67 -45
167 -19 197 52 17 41 17 55 4 91 -8 21 -14 24 -22 16 -30 -30 -74 2 -48 33 7
9 10 18 7 21 -9 9 -90 14 -107 7z"/>
<path d="M8761 10379 c-19 -8 -21 -12 -11 -24 18 -21 -6 -47 -38 -43 -21 2
-27 -2 -33 -25 -8 -30 3 -80 22 -104 37 -44 129 -59 175 -28 32 20 64 73 64
103 0 45 -30 90 -74 112 -46 22 -68 24 -105 9z"/>
<path d="M2450 10741 c-137 -44 -285 -147 -373 -259 -53 -68 -73 -106 -86
-161 -9 -40 -8 -41 18 -41 41 0 125 25 198 59 179 84 350 262 370 386 l6 35
-39 -1 c-22 0 -64 -8 -94 -18z"/>
<path d="M5860 4974 l0 -536 238 4 c206 4 246 8 302 26 166 54 250 162 250
322 0 200 -134 309 -401 327 l-99 6 0 79 0 78 205 0 205 0 0 115 0 115 -350 0
-350 0 0 -536z m398 -85 c67 -14 94 -44 94 -104 0 -75 -53 -115 -152 -115
l-50 0 0 115 0 115 30 0 c16 0 51 -5 78 -11z"/>
<path d="M6822 4978 l3 -533 145 0 145 0 3 418 2 417 210 0 210 0 0 115 0 115
-360 0 -360 0 2 -532z"/>
<path d="M7640 5390 l0 -120 130 0 130 0 0 -415 0 -415 145 0 145 0 0 415 0
415 130 0 130 0 0 120 0 120 -405 0 -405 0 0 -120z"/>
<path d="M8555 5393 c29 -65 107 -237 173 -382 116 -255 120 -266 106 -293
-27 -52 -54 -61 -157 -55 -51 2 -100 8 -109 12 -17 7 -18 -2 -18 -108 0 -100
2 -116 18 -122 9 -4 65 -9 124 -12 228 -12 355 49 448 212 22 38 218 484 366
833 l14 32 -157 0 -158 0 -77 -214 c-42 -117 -82 -234 -89 -260 -11 -44 -29
-63 -29 -30 0 8 -43 125 -97 260 l-96 244 -158 0 -158 0 54 -117z"/>
<path d="M5355 4160 c-204 -37 -327 -153 -381 -360 -22 -86 -22 -270 0 -363
58 -243 227 -367 501 -367 278 1 443 121 501 367 23 99 15 335 -15 417 -57
159 -145 243 -301 290 -65 20 -235 29 -305 16z m188 -242 c85 -25 130 -105
142 -251 13 -150 -25 -277 -98 -325 -34 -23 -51 -27 -112 -27 -61 0 -78 4
-112 27 -53 35 -83 97 -96 200 -20 152 22 310 95 352 61 36 115 44 181 24z"/>
<path d="M3990 3615 l0 -535 238 0 c253 0 329 9 415 50 58 27 117 83 142 135
23 49 31 164 15 223 -15 56 -70 117 -127 138 l-45 17 29 15 c172 87 180 349
13 434 -93 48 -169 58 -437 58 l-243 0 0 -535z m475 285 c18 -17 25 -34 25
-60 0 -69 -48 -100 -157 -100 l-53 0 0 96 0 97 80 -5 c66 -4 84 -9 105 -28z
m-21 -384 c44 -18 66 -52 66 -99 0 -79 -40 -107 -155 -107 l-75 0 0 110 0 110
65 0 c36 0 81 -6 99 -14z"/>
<path d="M6180 3615 l0 -535 320 0 320 0 0 120 0 120 -175 0 -175 0 0 100 0
100 160 0 160 0 0 115 0 115 -160 0 -160 0 0 85 0 85 175 0 175 0 0 115 0 115
-320 0 -320 0 0 -535z"/>
<path d="M7000 3615 l0 -536 148 3 147 3 3 218 2 217 160 0 160 0 2 -217 3
-218 148 -3 147 -3 0 536 0 535 -150 0 -150 0 0 -195 0 -195 -160 0 -160 0 0
195 0 195 -150 0 -150 0 0 -535z"/>
<path d="M8142 3618 l3 -533 128 -3 129 -3 -4 380 -3 380 91 -322 c50 -177 99
-348 108 -379 l17 -58 137 0 137 0 104 373 c57 204 105 373 106 375 1 1 0
-166 -3 -373 l-5 -375 137 0 136 0 0 535 0 535 -193 0 -193 0 -97 -337 c-54
-186 -102 -355 -108 -376 -6 -22 -13 -37 -15 -34 -3 2 -53 170 -113 373 l-109
369 -196 3 -196 2 2 -532z"/>
<path d="M9590 3615 l0 -535 315 0 315 0 0 120 0 120 -170 0 -170 0 0 100 0
100 160 0 160 0 0 115 0 115 -160 0 -160 0 0 85 0 85 170 0 170 0 0 115 0 115
-315 0 -315 0 0 -535z"/>
<path d="M10320 4145 c0 -2 72 -118 160 -256 88 -138 160 -255 160 -260 0 -5
-74 -124 -165 -265 -91 -140 -168 -261 -172 -270 -5 -12 17 -14 158 -12 l163
3 93 150 c52 83 97 156 102 163 5 10 40 -38 111 -152 l103 -166 169 0 169 0
-33 48 c-17 26 -99 143 -181 261 -81 117 -146 219 -144 225 3 6 72 119 154
251 82 132 155 250 162 263 l12 22 -165 0 -165 0 -81 -143 c-44 -79 -86 -151
-93 -161 -11 -15 -23 2 -106 143 l-93 161 -159 0 c-87 0 -159 -2 -159 -5z"/>
<path d="M6890 2738 c0 -20 -8 -25 -52 -36 -168 -39 -169 -256 -2 -293 50 -11
54 -14 54 -41 0 -29 1 -29 53 -26 47 3 52 5 55 29 3 21 12 28 65 45 78 24 107
61 107 138 0 85 -43 134 -132 151 -27 5 -38 13 -40 29 -3 18 -11 21 -55 24
-50 3 -53 2 -53 -20z m0 -183 c0 -54 -3 -65 -17 -65 -27 0 -53 31 -53 63 0 35
25 67 52 67 16 0 18 -8 18 -65z m154 49 c23 -23 21 -91 -3 -104 -36 -19 -41
-12 -41 55 0 69 12 82 44 49z"/>
<path d="M6215 2708 c-19 -131 -70 -268 -99 -268 -14 0 -16 -17 -16 -111 l0
-110 53 3 52 3 3 63 3 62 109 0 109 0 3 -62 3 -63 53 -3 52 -3 0 110 0 111
-25 0 -25 0 0 155 0 155 -134 0 -134 0 -7 -42z m165 -158 l0 -110 -64 0 -64 0
23 68 c12 37 26 86 30 110 6 40 9 42 41 42 l34 0 0 -110z"/>
<path d="M7434 2718 c7 -18 37 -84 65 -146 60 -131 58 -146 -16 -140 l-43 3 0
-41 c0 -46 10 -54 63 -54 52 0 101 18 130 47 14 16 55 94 91 176 90 206 89
187 18 187 l-59 0 -33 -97 c-26 -75 -35 -92 -42 -77 -4 10 -21 53 -37 94 l-29
75 -61 3 -62 3 15 -33z"/>
<path d="M7907 2656 c-71 -26 -97 -66 -97 -151 0 -78 23 -123 74 -146 48 -22
84 -24 137 -7 38 11 39 13 39 56 0 38 -2 43 -17 37 -43 -17 -90 -17 -106 0
-25 24 -23 97 3 120 18 16 26 17 61 8 41 -11 41 -10 55 23 20 48 19 50 -30 63
-56 14 -72 13 -119 -3z"/>
<path d="M9326 2660 c-108 -33 -138 -202 -50 -280 120 -105 296 12 254 170
-25 91 -111 138 -204 110z m88 -96 c3 -9 6 -35 6 -59 0 -61 -8 -75 -40 -75
-16 0 -30 7 -34 16 -10 27 -6 110 6 122 17 17 55 15 62 -4z"/>
<path d="M10065 2664 c-11 -3 -35 -10 -52 -15 l-33 -10 16 -32 c9 -18 18 -33
19 -35 1 -2 23 2 49 9 36 9 49 9 61 -1 25 -21 17 -27 -39 -33 -101 -10 -144
-52 -132 -126 11 -72 86 -100 161 -62 34 18 40 19 48 6 5 -9 23 -15 47 -15
l40 0 0 109 c0 121 -10 162 -46 186 -26 17 -105 27 -139 19z m75 -198 c0 -19
-27 -46 -46 -46 -17 0 -28 24 -20 45 7 20 66 20 66 1z"/>
<path d="M4980 2505 l0 -155 63 0 62 0 55 88 55 87 3 -87 3 -88 49 0 50 0 0
155 0 155 -64 0 -63 0 -56 -87 -56 -88 -1 88 0 87 -50 0 -50 0 0 -155z"/>
<path d="M5390 2505 l0 -155 50 0 50 0 1 93 1 92 31 -92 31 -93 37 0 37 0 35
103 35 102 1 -102 1 -103 50 0 50 0 0 155 0 155 -75 0 -74 0 -29 -92 -30 -92
-28 92 -27 92 -74 0 -73 0 0 -155z"/>
<path d="M8100 2620 l0 -40 50 0 50 0 0 -115 0 -115 55 0 55 0 0 115 0 115 50
0 50 0 0 40 0 40 -155 0 -155 0 0 -40z"/>
<path d="M8460 2505 l0 -155 60 0 60 0 57 87 58 86 3 -86 3 -87 49 0 50 0 0
155 0 155 -64 0 -64 0 -58 -90 c-31 -49 -57 -90 -58 -90 0 0 1 40 2 90 l4 90
-51 0 -51 0 0 -155z"/>
<path d="M8860 2505 l0 -155 60 0 60 0 0 60 0 60 40 0 40 0 0 -60 0 -60 55 0
55 0 0 155 0 155 -55 0 -55 0 0 -55 0 -55 -40 0 -40 0 0 55 0 55 -60 0 -60 0
0 -155z"/>
<path d="M9590 2505 l0 -155 120 0 c88 0 129 4 150 15 54 28 66 86 26 124 -24
22 -24 23 -5 42 23 23 25 72 2 94 -28 29 -61 35 -179 35 l-114 0 0 -155z m197
70 c8 -21 1 -26 -46 -32 -39 -5 -41 -4 -41 21 0 24 3 26 40 26 27 0 43 -5 47
-15z m8 -115 c12 -20 -17 -40 -56 -40 -35 0 -39 3 -39 25 0 23 4 25 44 25 25
0 48 -5 51 -10z"/>
<path d="M5870 2430 c-11 -11 -20 -27 -20 -35 0 -23 37 -55 63 -55 13 0 31 8
40 18 52 57 -29 126 -83 72z"/>
<path d="M6590 2430 c-11 -11 -20 -27 -20 -35 0 -23 37 -55 64 -55 31 0 56 25
56 55 0 51 -62 73 -100 35z"/>
<path d="M7212 2434 c-27 -19 -28 -48 -2 -74 25 -25 62 -26 83 -2 22 24 21 55
-1 75 -23 21 -51 22 -80 1z"/>
</g>
</svg>
