<?xml version="1.0"?>
<svg width="291.06" height="314.04" xmlns="http://www.w3.org/2000/svg" xmlns:svg="http://www.w3.org/2000/svg" data-name="Слой 1">
 <defs>
  <style>.cls-1{fill:#034d92;}</style>
 </defs>
 <g class="layer">
  <title>Layer 1</title>
  <path class="cls-1" d="m91.83,119.11c-2.29,-0.11 -6.15,2.75 -6.27,5c2.31,0.1 6.17,-2.71 6.27,-5z" id="svg_29"/>
  <path class="cls-1" d="m171.22,204.36a3.07,3.07 0 0 0 -1.44,0.3l0.33,0.74a2.37,2.37 0 0 1 0.9,-0.24a0.35,0.35 0 0 1 0.4,0.4l0,0.05l-0.54,0a2.05,2.05 0 0 0 -1.05,0.29a0.9,0.9 0 0 0 -0.37,0.78a1,1 0 0 0 0.27,0.77a0.94,0.94 0 0 0 0.72,0.28a1.49,1.49 0 0 0 0.61,-0.1a1.27,1.27 0 0 0 0.47,-0.39l0,0l0.22,0.43l0.77,0l0,-2.14a1.12,1.12 0 0 0 -0.34,-0.87a1.43,1.43 0 0 0 -0.95,-0.3zm0.2,2.12a0.4,0.4 0 0 1 -0.15,0.33a0.49,0.49 0 0 1 -0.35,0.13c-0.21,0 -0.32,-0.1 -0.32,-0.3s0.19,-0.39 0.56,-0.4l0.26,0l0,0.24z" id="svg_30"/>
  <path class="cls-1" d="m168.25,206l0,0a0.75,0.75 0 0 0 0.46,-0.23a0.72,0.72 0 0 0 0.17,-0.48a0.69,0.69 0 0 0 -0.35,-0.63a2.15,2.15 0 0 0 -1.07,-0.21l-1.78,0l0,3.26l1.78,0c1,0 1.52,-0.31 1.52,-0.93a0.73,0.73 0 0 0 -0.19,-0.51a0.76,0.76 0 0 0 -0.54,-0.27zm-1.44,-0.84l0.64,0c0.2,0 0.31,0.08 0.31,0.26a0.19,0.19 0 0 1 -0.09,0.16a0.41,0.41 0 0 1 -0.27,0.07l-0.59,0l0,-0.49zm0.61,1.78l-0.61,0l0,-0.58l0.62,0a0.61,0.61 0 0 1 0.3,0.06a0.25,0.25 0 0 1 0.1,0.22c0,0.2 -0.13,0.3 -0.41,0.3z" id="svg_31"/>
  <path class="cls-1" d="m141,206.65a0.65,0.65 0 0 0 -0.45,0.14a0.53,0.53 0 0 0 -0.16,0.41a0.55,0.55 0 0 0 0.16,0.41a0.69,0.69 0 0 0 0.45,0.14a0.66,0.66 0 0 0 0.44,-0.14a0.64,0.64 0 0 0 0,-0.82a0.64,0.64 0 0 0 -0.44,-0.14z" id="svg_32"/>
  <path class="cls-1" d="m133,203.47l-2.8,0a9.13,9.13 0 0 1 -0.32,1.8a6.46,6.46 0 0 1 -0.62,1.48l-0.35,0l0,2.25l1.09,0l0,-1.31l2.45,0l0,1.31l1.11,0l0,-2.24l-0.56,0l0,-3.29zm-1.14,3.28l-1.4,0a6.81,6.81 0 0 0 0.65,-2.34l0.75,0l0,2.34z" id="svg_33"/>
  <path class="cls-1" d="m134.49,206.65a0.65,0.65 0 0 0 -0.45,0.14a0.53,0.53 0 0 0 -0.16,0.41a0.52,0.52 0 0 0 0.17,0.41a0.76,0.76 0 0 0 0.88,0a0.64,0.64 0 0 0 0,-0.82a0.64,0.64 0 0 0 -0.44,-0.14z" id="svg_34"/>
  <path class="cls-1" d="m139.32,204.13a2.13,2.13 0 0 0 -0.94,-0.2l-0.09,0l0,-0.51l-1.09,0l0,0.51l-0.11,0a2.19,2.19 0 0 0 -0.92,0.19a1.38,1.38 0 0 0 -0.62,0.55a1.54,1.54 0 0 0 -0.22,0.83a1.62,1.62 0 0 0 0.21,0.85a1.36,1.36 0 0 0 0.61,0.55a2.27,2.27 0 0 0 1,0.19l0.06,0l0,0.65l1.09,0l0,-0.65l0,0a2.27,2.27 0 0 0 1,-0.19a1.38,1.38 0 0 0 0.63,-0.56a1.6,1.6 0 0 0 0.21,-0.83a1.5,1.5 0 0 0 -0.22,-0.82a1.41,1.41 0 0 0 -0.6,-0.56zm-2.12,2.1l-0.06,0a0.71,0.71 0 0 1 -0.53,-0.17a0.78,0.78 0 0 1 -0.17,-0.56a0.7,0.7 0 0 1 0.18,-0.52a0.69,0.69 0 0 1 0.51,-0.18l0.07,0l0,1.43zm1.67,-0.18a0.73,0.73 0 0 1 -0.54,0.18l0,0l0,-1.43l0.05,0a0.7,0.7 0 0 1 0.53,0.19a0.69,0.69 0 0 1 0.18,0.51a0.73,0.73 0 0 1 -0.22,0.55z" id="svg_35"/>
  <polygon class="cls-1" id="svg_36" points="160.03 205.6 159.14 205.6 159.14 204.42 158.01 204.42 158.01 207.68 159.14 207.68 159.14 206.43 160.03 206.43 160.03 207.68 161.15 207.68 161.15 204.42 160.03 204.42 160.03 205.6"/>
  <path class="cls-1" d="m160.41,195l0,4.91l2.79,0l0,-11.18l-4,0l-2.3,8l-0.06,0l-2.34,-8l-4,0l0,11.21l2.69,0l0,-4.87c0,-0.76 -0.05,-1.83 -0.16,-3.21l-0.03,0l2.29,8.08l2.89,0l2.26,-8.06l0.07,0c-0.06,1.22 -0.1,2 -0.1,2.29s0,0.6 0,0.83z" id="svg_37"/>
  <path class="cls-1" d="m154.69,206.41c0,-0.62 0,-1 0,-1l0,-1l-1,0l0,3.26l1.31,0l1.29,-2c0,0.42 0,0.79 0,1.1l0,0.88l1,0l0,-3.26l-1.29,0l-1.31,2.02z" id="svg_38"/>
  <polygon class="cls-1" id="svg_39" points="149.93 205.26 151 205.26 151 207.68 152.13 207.68 152.13 205.26 153.2 205.26 153.2 204.42 149.93 204.42 149.93 205.26"/>
  <path class="cls-1" d="m133.44,184.67a3.2,3.2 0 0 0 1.21,-2.7a2.91,2.91 0 0 0 -1.23,-2.57a6.24,6.24 0 0 0 -3.58,-0.86l-0.44,0l0,-1.71l4.34,0l0,-2.44l-7.38,0l0,11.22l3.64,0a5.56,5.56 0 0 0 3.44,-0.94zm-4,-1.4l0,-2.43l0.39,0a2.48,2.48 0 0 1 1.36,0.29a1,1 0 0 1 0.44,0.9a1.09,1.09 0 0 1 -0.42,0.93a2.27,2.27 0 0 1 -1.36,0.31l-0.41,0z" id="svg_40"/>
  <path class="cls-1" d="m148.57,205.25a1,1 0 0 1 0.36,0.05l0.38,0.14l0.33,-0.83a2.44,2.44 0 0 0 -1.07,-0.25a1.56,1.56 0 0 0 -1.71,1.71a1.75,1.75 0 0 0 0.41,1.24a1.65,1.65 0 0 0 1.22,0.43a1.87,1.87 0 0 0 1,-0.29l0,-0.89a1.75,1.75 0 0 1 -0.95,0.28c-0.39,0 -0.58,-0.26 -0.58,-0.78a1,1 0 0 1 0.15,-0.6a0.49,0.49 0 0 1 0.46,-0.21z" id="svg_41"/>
  <path class="cls-1" d="m145.15,204.65a9.54,9.54 0 0 0 -0.3,0.91l0,0c0,-0.05 0,-0.12 -0.05,-0.19s0,-0.14 -0.07,-0.22l-0.09,-0.21a1.71,1.71 0 0 0 -0.07,-0.18l-0.52,-1.29l-1.22,0l1.37,3a0.55,0.55 0 0 1 -0.2,0.29a0.49,0.49 0 0 1 -0.3,0.09a1.9,1.9 0 0 1 -0.68,-0.11l0,0.9a2.75,2.75 0 0 0 0.73,0.09a2.23,2.23 0 0 0 0.79,-0.12a1.33,1.33 0 0 0 0.55,-0.38a3,3 0 0 0 0.47,-0.81l1.28,-3l-1.23,0l-0.46,1.23z" id="svg_42"/>
  <polygon class="cls-1" id="svg_43" points="141.43 188.73 138.39 188.73 138.39 199.94 141.43 199.94 141.43 195.37 144.95 195.37 144.95 199.94 148 199.94 148 188.73 144.95 188.73 144.95 192.89 141.43 192.89 141.43 188.73"/>
  <polygon class="cls-1" id="svg_44" points="139.57 176.84 144 176.84 144 174.39 136.52 174.39 136.52 185.61 139.57 185.61 139.57 176.84"/>
  <polygon class="cls-1" id="svg_45" points="147.84 185.61 150.87 185.61 150.87 176.88 153.6 176.88 153.6 174.39 145.1 174.39 145.1 176.88 147.84 176.88 147.84 185.61"/>
  <path class="cls-1" d="m157.31,183.19a1.4,1.4 0 0 1 -0.81,0.22a5,5 0 0 1 -1.82,-0.28l0,2.41a8,8 0 0 0 2,0.23a6.12,6.12 0 0 0 2.11,-0.32a3.53,3.53 0 0 0 1.46,-1a8.68,8.68 0 0 0 1.26,-2.17l3.4,-7.88l-3.31,0l-1.14,3.13c-0.34,0.93 -0.6,1.74 -0.78,2.44l-0.1,0l-0.15,-0.51c-0.06,-0.19 -0.12,-0.39 -0.2,-0.58s-0.14,-0.39 -0.22,-0.58l-0.18,-0.47l-1.38,-3.43l-3.27,0l3.66,8a1.56,1.56 0 0 1 -0.53,0.79z" id="svg_46"/>
  <path class="cls-1" d="m164.27,204.57a1.67,1.67 0 0 0 -0.85,-0.21a1.58,1.58 0 0 0 -1.2,0.45a1.66,1.66 0 0 0 -0.43,1.23a1.68,1.68 0 0 0 0.44,1.24a1.53,1.53 0 0 0 1.18,0.46a1.59,1.59 0 0 0 1.2,-0.45a1.71,1.71 0 0 0 0.39,-1.29a2,2 0 0 0 -0.2,-0.89a1.33,1.33 0 0 0 -0.53,-0.54zm-0.48,2.11a0.38,0.38 0 0 1 -0.37,0.22a0.39,0.39 0 0 1 -0.38,-0.22a1.5,1.5 0 0 1 -0.11,-0.64a1.45,1.45 0 0 1 0.11,-0.63a0.39,0.39 0 0 1 0.37,-0.21a0.4,0.4 0 0 1 0.38,0.21a1.48,1.48 0 0 1 0.11,0.63a1.5,1.5 0 0 1 -0.11,0.64z" id="svg_47"/>
  <polygon class="cls-1" id="svg_48" points="129.77 199.94 136.43 199.94 136.43 197.48 132.8 197.48 132.8 195.36 136.16 195.36 136.16 192.92 132.8 192.92 132.8 191.16 136.43 191.16 136.43 188.73 129.77 188.73 129.77 199.94"/>
  <polygon class="cls-1" id="svg_49" points="176.48 199.94 178.64 196.44 180.83 199.94 184.33 199.94 180.52 194.44 184.07 188.73 180.61 188.73 178.66 192.19 176.64 188.73 173.28 188.73 176.77 194.21 173.05 199.94 176.48 199.94"/>
  <path class="cls-1" d="m123.84,205.39l-0.12,0.38c-0.12,0.42 -0.19,0.68 -0.2,0.77c0,-0.12 -0.07,-0.34 -0.16,-0.66s-0.15,-0.55 -0.19,-0.7l-0.26,-0.76l-1.54,0l0,3.26l1,0l0,-2.43l0.06,0.21c0.13,0.44 0.25,0.83 0.36,1.18l0.34,1l0.76,0c0.28,-0.85 0.46,-1.4 0.54,-1.67s0.15,-0.52 0.21,-0.76l0,2.43l1,0l0,-3.26l-1.51,0l-0.29,1.01z" id="svg_50"/>
  <path class="cls-1" d="m126.9,206.65a0.67,0.67 0 0 0 -0.45,0.14a0.53,0.53 0 0 0 -0.16,0.41a0.52,0.52 0 0 0 0.17,0.41a0.76,0.76 0 0 0 0.88,0a0.64,0.64 0 0 0 0,-0.82a0.64,0.64 0 0 0 -0.44,-0.14z" id="svg_51"/>
  <path class="cls-1" d="m122.29,200.1a5.31,5.31 0 0 0 4.06,-1.47a7.38,7.38 0 0 0 0,-8.61a6.36,6.36 0 0 0 -8.12,0a7.25,7.25 0 0 0 0,8.59a5.32,5.32 0 0 0 4.06,1.49zm0,-9.06a1.92,1.92 0 0 1 1.69,0.8a4.39,4.39 0 0 1 0.56,2.48a4.3,4.3 0 0 1 -0.55,2.46a1.94,1.94 0 0 1 -1.71,0.79c-1.51,0 -2.26,-1.08 -2.26,-3.25s0.77,-3.32 2.28,-3.32l-0.01,0.04z" id="svg_52"/>
  <polygon class="cls-1" id="svg_53" points="172.27 197.48 168.64 197.48 168.64 195.36 172 195.36 172 192.92 168.64 192.92 168.64 191.16 172.27 191.16 172.27 188.73 165.61 188.73 165.61 199.94 172.27 199.94 172.27 197.48"/>
  <path class="cls-1" d="m118.05,206.41c0,-0.62 0,-1 0,-1l0,-1l-1,0l0,3.26l1.25,0l1.3,-2c0,0.42 0,0.79 0,1.1l0,0.88l1,0l0,-3.26l-1.25,0l-1.3,2.02z" id="svg_54"/>
  <path class="cls-1" d="m114.16,199.07a2.88,2.88 0 0 0 1.14,-2.41a2.73,2.73 0 0 0 -0.47,-1.67a2.56,2.56 0 0 0 -1.51,-0.92l0,-0.07a2.17,2.17 0 0 0 1.28,-0.86a2.67,2.67 0 0 0 0.48,-1.61a2.29,2.29 0 0 0 -1.11,-2.11a6.57,6.57 0 0 0 -3.39,-0.68l-3.92,0l0,11.21l4.34,0a5.08,5.08 0 0 0 3.16,-0.88zm-4.47,-8l0.86,0c1,0 1.42,0.32 1.42,0.95a0.94,0.94 0 0 1 -0.35,0.79a1.66,1.66 0 0 1 -1,0.27l-0.92,0l-0.01,-2.01zm0,6.58l0,-2.35l1,0a1.74,1.74 0 0 1 1.1,0.3a1,1 0 0 1 0.38,0.86c0,0.8 -0.48,1.19 -1.42,1.19l-1.06,0z" id="svg_55"/>
  <path class="cls-1" d="m207.6,163.41l0.34,-1c4.89,-14.94 3.6,-65.59 3.56,-75.53c0,-3.31 -1.74,-7.69 -3,-10.06c-1.76,-3.32 -5.31,-7.43 -10,-9a11.57,11.57 0 0 0 -9.39,0.62l-0.14,0.07l-0.15,0.07c-1.14,0.57 -3.27,1.63 -8,6.12l-0.82,0.78a29.86,29.86 0 0 1 -6.39,5.11c-2.13,1.06 -5.25,2 -8.05,0.56c-1.92,-1 -3.07,-3.08 -3.32,-6l0,-0.15a8.28,8.28 0 0 1 2.11,-5.85a7,7 0 0 1 0.67,-0.66l0.7,-0.38l0.28,-0.11a16.21,16.21 0 0 1 5.37,-2.16c3.19,-0.6 5.75,-0.78 8.56,0.23l0.43,0.66a1.21,1.21 0 0 0 1.66,0.43a8.22,8.22 0 0 0 2.61,-2.43c2,-2.94 1.41,-6.24 1.15,-7.66a17,17 0 0 0 -3.66,-7.1a0.19,0.19 0 0 0 -0.07,-0.08a29.89,29.89 0 0 0 -6.79,-5.13l-0.06,0c-1.17,-0.59 -7.35,-3.5 -13.78,-2.48l-0.51,0.08a14.89,14.89 0 0 1 -2.08,0.26a17.74,17.74 0 0 1 -8.13,-1.62a1.22,1.22 0 0 0 -1.18,0.12a1.2,1.2 0 0 0 -0.52,1.08a7.13,7.13 0 0 0 1.43,3.86a9.47,9.47 0 0 0 1.57,1.63c-0.44,0.23 -0.76,0.43 -1,0.6a13.94,13.94 0 0 0 -1.18,0.88l-0.16,0.14c-0.17,0.15 -0.35,0.29 -0.54,0.44a1.26,1.26 0 0 0 -0.42,1.31a1.24,1.24 0 0 0 1.08,0.86l3.77,0.29a28.36,28.36 0 0 0 -4.41,2.95a12.3,12.3 0 0 0 -3.92,7l-0.06,0.33l-0.06,-0.33a12.3,12.3 0 0 0 -3.92,-7a29.11,29.11 0 0 0 -4.41,-2.95l3.78,-0.29a1.21,1.21 0 0 0 1.06,-0.87a1.25,1.25 0 0 0 -0.42,-1.31c-0.19,-0.14 -0.36,-0.28 -0.54,-0.44l-0.16,-0.13a13.69,13.69 0 0 0 -1.17,-0.88a11.24,11.24 0 0 0 -1.05,-0.59a9.62,9.62 0 0 0 1.55,-1.64a7.13,7.13 0 0 0 1.43,-3.86a1.2,1.2 0 0 0 -0.52,-1.07a1.21,1.21 0 0 0 -1.18,-0.12a17.9,17.9 0 0 1 -8.09,1.56a15.49,15.49 0 0 1 -2.09,-0.26l-0.51,-0.09c-6.48,-1 -12.6,1.9 -13.76,2.49a28.68,28.68 0 0 0 -6.66,5l0,0l-0.07,0.12c-1,1.14 -3.25,4.12 -3.82,7.24c-0.26,1.41 -0.86,4.71 1.14,7.63a8.15,8.15 0 0 0 2.62,2.43a1.22,1.22 0 0 0 1.66,-0.43c0.19,-0.32 0.41,-0.64 0.63,-0.95c2,-0.7 4.69,-0.69 8.33,0a15,15 0 0 1 5.4,2.15c0.38,0.24 0.7,0.42 1,0.56a8.42,8.42 0 0 1 0.67,0.66a8.29,8.29 0 0 1 2,5.88l0,0.09c-0.25,2.89 -1.41,5 -3.33,6c-2.79,1.47 -5.91,0.5 -8,-0.56a30.1,30.1 0 0 1 -6.39,-5.11l-0.81,-0.78c-4.77,-4.49 -6.9,-5.55 -8,-6.13l-0.14,-0.06l-0.13,-0.07a11.59,11.59 0 0 0 -9.4,-0.62c-4.69,1.59 -7.93,5.88 -10,9c-2.38,3.63 -3,10.15 -3,10.84c-0.29,11.58 -1.21,60.2 3.56,74.78l0.41,1.36a21.36,21.36 0 0 0 -1.33,5c-5.59,31.29 33.69,57.36 63.81,57.57c30.31,0 69.91,-24.78 63.81,-58.83a17.6,17.6 0 0 0 -1.46,-4.07zm-32,-100.51a26,26 0 0 0 -4.71,0.51a19.26,19.26 0 0 0 -6.14,2.46l-0.09,0l-0.44,0.25a3.28,3.28 0 0 1 -1.22,-1.47a2.73,2.73 0 0 1 0.41,-2.7a3.6,3.6 0 0 1 2,-1a5.49,5.49 0 0 1 1.37,-0.12c1.13,0 2.57,0.12 3.18,0.17s1,0.08 1.16,0.07a12.85,12.85 0 0 1 4.32,1.18q0.66,0.33 1.23,0.69c-0.41,-0.03 -0.74,-0.04 -1.08,-0.04l0.01,0zm5,-10.94l0,0a14,14 0 0 1 2.77,5.55c0.22,1.21 0.68,3.72 -0.75,5.82a5.37,5.37 0 0 1 -0.92,1a12.56,12.56 0 0 0 -1.51,-1.73a14.7,14.7 0 0 0 -3.72,-2.57a14.88,14.88 0 0 0 -2.75,-1a11.54,11.54 0 0 0 0.92,-1.47c0.09,-0.18 0.21,-0.41 0.32,-0.64a12.12,12.12 0 0 1 1.75,-2.88a6.51,6.51 0 0 1 3.7,-2.1l0.19,0.02zm-5,-0.39l0.16,0l-0.11,0.09l-0.05,-0.09zm-65.6,11.06a12.52,12.52 0 0 0 -1.5,1.73a5,5 0 0 1 -0.91,-1c-1.46,-2.11 -1,-4.62 -0.75,-5.83a14.39,14.39 0 0 1 2.91,-5.63l0.07,0a6.37,6.37 0 0 1 3.66,2.2a11.87,11.87 0 0 1 1.76,2.9c0.07,0.13 0.12,0.26 0.18,0.37l0.14,0.28a11.11,11.11 0 0 0 0.92,1.46a14,14 0 0 0 -2.75,1a14.76,14.76 0 0 0 -3.73,2.52zm4.43,-11.05l0.16,0c0,0.05 0,0.09 0,0.13a0.52,0.52 0 0 1 -0.16,-0.13zm12.79,13.07a3.18,3.18 0 0 1 -1.22,1.52a5.38,5.38 0 0 1 -0.51,-0.31a17.6,17.6 0 0 0 -6.15,-2.44a27.67,27.67 0 0 0 -5.37,-0.62l-0.17,0c0.31,-0.19 0.66,-0.38 1,-0.57a12.87,12.87 0 0 1 4.29,-1.18c0.25,0 0.62,0 1.18,-0.07l0.08,0a19.81,19.81 0 0 1 4.48,0a3.53,3.53 0 0 1 2,1a2.72,2.72 0 0 1 0.39,2.67zm-46.14,22.45c0,-0.31 0.85,-6.59 2.74,-9.16c0.68,-0.93 3.47,-6.12 8.63,-7.87a9,9 0 0 1 7.5,0.49l0.1,0l0.2,0.1c1,0.51 3,1.46 7.47,5.72l0.76,0.71c2.45,2.33 4.56,4.33 7,5.57c2.64,1.32 6.56,2.49 10.26,0.54c2.66,-1.4 4.3,-4.2 4.63,-7.93l0,0a10.87,10.87 0 0 0 -2.5,-7.48l0,0a6,6 0 0 0 1.6,-2.26a5.18,5.18 0 0 0 -0.79,-5.1a5.65,5.65 0 0 0 -3.21,-1.82a18.82,18.82 0 0 0 -5.42,0l-0.63,0l0,0a6.14,6.14 0 0 1 -1.72,-2.15c-0.06,-0.1 -0.11,-0.22 -0.18,-0.35l-0.11,-0.22c-0.19,-0.43 -0.43,-0.9 -0.71,-1.41a0,0 0 0 1 0,0a2.07,2.07 0 0 0 1.78,-2a2,2 0 0 0 -0.62,-1.46l0,0a5.27,5.27 0 0 1 2.58,0.24a5,5 0 0 1 1.74,1a1.21,1.21 0 0 0 1.72,-0.08a1.27,1.27 0 0 0 0.31,-0.71a1.33,1.33 0 0 0 -0.47,-1.08a7.81,7.81 0 0 0 -2.46,-1.48a9.23,9.23 0 0 0 -5.11,-0.13l-0.75,0.15c-0.86,0.16 -1.89,0.35 -3.07,0.46c0,0 0,0 0,0a26.94,26.94 0 0 1 3.76,-2.5c1,-0.53 6.58,-3.14 12.27,-2.24l0.24,0l0.24,0a19.08,19.08 0 0 0 2.37,0.29a19.53,19.53 0 0 0 6.87,-0.89c-0.1,0.16 -0.21,0.32 -0.32,0.48a6.44,6.44 0 0 1 -2.66,2.16a1.21,1.21 0 0 0 -0.75,1.13a1.23,1.23 0 0 0 0.76,1.11c0.38,0.15 1.08,0.46 1.72,0.77l-4.94,0.39a1.21,1.21 0 0 0 -0.3,2.36a31.44,31.44 0 0 1 7.81,4.43a9.83,9.83 0 0 1 3.19,5.7a55.77,55.77 0 0 1 0.62,5.64a1.73,1.73 0 0 0 1.77,1.68l0.06,0a1.75,1.75 0 0 0 1.82,-1.62a49.79,49.79 0 0 1 0.63,-5.64a9.8,9.8 0 0 1 3.19,-5.7a31,31 0 0 1 7.8,-4.43a1.21,1.21 0 0 0 -0.3,-2.36l-5,-0.39c0.45,-0.22 1,-0.47 1.6,-0.75l0.1,0a1.21,1.21 0 0 0 0.73,-1.36a1.19,1.19 0 0 0 -0.72,-0.88a6.44,6.44 0 0 1 -2.62,-2.14c-0.12,-0.16 -0.22,-0.32 -0.32,-0.48a19.53,19.53 0 0 0 6.87,0.89a18.2,18.2 0 0 0 2.35,-0.29l0.28,0l0.22,0c5.92,-0.93 11.63,1.92 12.27,2.25a26.48,26.48 0 0 1 3.85,2.55s0,0 0,0c-1.14,-0.12 -2.18,-0.33 -3,-0.49l-0.37,-0.07l-0.61,-0.11a9.09,9.09 0 0 0 -5.07,0.13a7.81,7.81 0 0 0 -2.52,1.55a1.24,1.24 0 0 0 -0.09,1.72a1.21,1.21 0 0 0 1.72,0.08a5,5 0 0 1 1.74,-1a5.09,5.09 0 0 1 2.56,-0.24l0,0a2,2 0 0 0 -0.62,1.46a2.07,2.07 0 0 0 1.79,2.05l0,0c-0.28,0.5 -0.5,1 -0.71,1.4a5,5 0 0 1 -0.29,0.57a6,6 0 0 1 -1.71,2.15l0,0l-0.63,0a19.05,19.05 0 0 0 -5.45,0a5.57,5.57 0 0 0 -3.18,1.82a5.22,5.22 0 0 0 -0.8,5.1a6.07,6.07 0 0 0 1.6,2.26l0,0a10.7,10.7 0 0 0 -2.49,7.47l0,0.08c0.32,3.7 2,6.5 4.62,7.9c3.7,2 7.62,0.78 10.27,-0.54c2.47,-1.24 4.58,-3.24 7,-5.57l0.76,-0.71c4.53,-4.26 6.45,-5.21 7.48,-5.72l0.2,-0.1l0.1,0a9,9 0 0 1 7.49,-0.49c5.22,1.77 8.11,6.86 8.63,7.87a24.17,24.17 0 0 1 2.74,9.52c0.18,10.63 1.14,57.67 -3.11,73.08l0,0a18.73,18.73 0 0 0 -6.22,-5.62l0,0c0.26,-2.4 0.49,-5 0.68,-7.7l0.34,0.15l4.18,-6.58l0,0c-0.28,-0.34 -0.94,-1.08 -1.25,-1.4l-2.59,-2.86l0,0c0.07,-1.94 0.13,-3.88 0.18,-5.84l0,0a10.47,10.47 0 0 0 3.88,-3.18l0,0c2,-2.82 2.06,-5.54 1,-8.74a16.29,16.29 0 0 0 -0.95,-1.78l0,0a10,10 0 0 0 -3.76,-3.13l0,0c0,-8 -0.07,-18.52 -0.12,-23a8.08,8.08 0 0 0 -2.55,-6s0,0 0,0c0,0.53 0.31,14.92 0.3,28.33c0,0 0,0 0,0a10.63,10.63 0 0 0 -4.33,0.27a9.1,9.1 0 0 0 -5.78,5.34s0,0 0,0c0,-9.15 -0.18,-18.51 -0.15,-23.14a7.27,7.27 0 0 0 -2.53,-5.85l0,0c0,0.57 0.45,19.52 0.26,36.23c0,0 0,0 0,0q-3,-1.61 -8.59,-4.45l0,0q-0.58,0.57 -1.2,1.26l0,0c0,-7 -0.09,-17.18 -0.12,-21.53a10.88,10.88 0 0 0 -2.56,-7.31s0,0 0,0c0,0.68 0.37,16.85 0.3,31.63l0,0c-0.55,0.66 -1.1,1.33 -1.65,2l0,0c0.5,0.64 1.05,1.26 1.62,1.87l0,0c-0.05,4.65 -0.14,9.45 -0.31,14.16a0,0 0 0 1 0,0a9.8,9.8 0 0 0 -3.45,-1.27a26,26 0 0 1 -2.81,-1.18c-2.24,-1.09 -5,-4.35 -5.36,-7l0,0c3.48,-1.43 3.79,-4.91 3.89,-6a1.15,1.15 0 0 0 0,-0.19l0,-41.36l0,0c-2.91,0 -2.57,0 -5.52,0l-31.16,0l-5.45,0l0,41.35s-0.22,5.07 3.82,6l0,0c-1.18,3.29 -4.25,7.82 -8.08,8.43l-0.09,0a8.47,8.47 0 0 0 -3.47,0.24l0,0c-0.69,-21.14 0,-48.18 0,-48.81c0,0 0,0 0,0c-0.17,0.14 -2.3,1.86 -2.55,6.79c-0.18,3.77 -0.56,20.88 0.14,41.65l0,0a142.82,142.82 0 0 1 -10,-11.93l0,0c-0.33,-18.21 0.19,-40.15 0.2,-40.71c0,0 0,0 0,0c-0.19,0.11 -2.4,1.51 -2.62,6.23c-0.12,2.4 -0.28,14.11 -0.05,30.43c0,0 0,0 0,0a1.44,1.44 0 0 0 -0.83,-0.32c-0.73,-0.07 -2.67,-3.34 -3.27,-4.38c-1.35,-1.86 0.29,-3.77 -1.93,-5.19a4.71,4.71 0 0 0 -3,-0.66c-0.37,0 -0.76,0.08 -1.1,0.12a0,0 0 0 1 0,0c-0.06,-14.56 0.28,-30.62 0.3,-31.18l0,0c-0.21,0.16 -2.72,2.17 -2.59,8.31c0.1,5 0.11,16 0.16,23.57l0,0a15.49,15.49 0 0 0 -5.53,4.72a7.53,7.53 0 0 0 -1,2.34c-0.79,2.43 0.61,4 3.24,4.55c1.15,0.25 2.51,2.26 3.53,4l0,0c0.19,7.86 0.53,15.59 1.18,22l0,0a16.42,16.42 0 0 0 -6.24,6.1l0,0c-4.4,-15.5 -3.46,-63.5 -3.22,-73.4zm13.56,87.81c3.85,11.62 26.8,8.85 35.84,-10.34l29.08,0.13c4.12,6.42 2.39,4.58 7.87,10.37c8.12,8.58 28.43,10 28.57,-3.58a10.16,10.16 0 0 0 -0.23,-2.57c0.43,-1 1.84,-3.38 2.2,-4.33c6.16,6 4.28,16.38 0.33,23.07a65.81,65.81 0 0 1 -14.56,16.09c-20.64,15.71 -47.31,17.72 -69.89,5.12c-11.85,-6.64 -26.12,-20.62 -25.48,-35.67c0.47,-11.19 13.17,-16.41 14.72,-8.94a0.57,0.57 0 0 1 -0.62,0.68c-2.85,-0.27 -4.83,-0.52 -7,2c-1.67,1.99 -1.62,5.6 -0.83,7.97zm103.74,-18.91c-0.47,2.2 -2.14,9.64 -3.38,11.26a17,17 0 0 1 -1,-3.26a0.41,0.41 0 0 0 -0.74,-0.15a26.89,26.89 0 0 1 -2.07,2.73c-2.89,3.84 -8.41,7.33 -14.06,5.11c-5.23,-2.06 -10.35,-8.85 -11.81,-14.27c9.57,-4.14 11.63,-9.65 18.17,-18.36c0.6,0.77 0.88,1.07 1.31,1.54l2.07,0.79c-0.41,1.72 -11.41,14.67 -10.89,19.16a4.54,4.54 0 0 0 1.23,3.19c3.26,3.72 10.57,1.35 13.73,-1.5a0.56,0.56 0 0 0 -0.28,-1a9,9 0 0 1 -2.91,-1a72.5,72.5 0 0 1 10.19,-4.72a0.38,0.38 0 0 1 0.44,0.48zm-88.29,1.71c4,-1.47 4.44,-1.58 7.33,-4.56c3,0.1 4.69,1.63 6.38,3.87c0,5 -2.33,8.32 -6.14,11.78l-7.57,-11.09zm6.14,12.29a12.18,12.18 0 0 1 -8.61,3.58c4.59,-2 5.25,-5.81 5.47,-8.26l3.14,4.68zm-24.16,-52.79c6.65,-1.24 0.07,8.31 -5.94,9.4c-6.48,1.17 -0.13,-8.25 5.94,-9.4zm3.4,4.7l4.12,5.58c-0.76,2.45 -4.93,5.79 -7.67,5.94l-4.48,-5.51c4.09,-1.11 5.47,-3.2 8.03,-6.01zm-2.78,31.55c-0.54,-5.16 -0.9,-11.15 -1.13,-17.37l0.44,0.15a113.92,113.92 0 0 1 10.09,13.46c0.07,1.08 0.14,2.13 0.21,3.14c-0.72,-0.18 -1.42,-0.32 -1.87,-0.4a19.69,19.69 0 0 0 -7.74,1.02zm0.87,-18.13a13.06,13.06 0 0 0 7.54,-5.79c4.14,5.39 8.05,10.44 12.45,15.49c-0.91,3 -0.77,4.38 1.09,6.95a10.82,10.82 0 0 1 -6.12,3.36c-3.52,-4.53 -10.91,-15.19 -14.96,-20.01zm23.72,16.22a3.87,3.87 0 0 1 -1.5,-6.65c2.53,-2.21 5.71,0 5.72,3.4c-1.12,0 -1.66,0.33 -2.18,-0.4c-0.34,-0.48 -1,-0.63 -1.85,-0.08c-1.32,0.9 -0.47,2.55 -0.19,3.73zm2.68,-0.33l0.08,-1.88l4.3,0a3.93,3.93 0 0 0 2.89,2.68l0,-2.7l6.29,0a5.72,5.72 0 0 1 -0.88,3c2.16,0.06 3.31,-1.84 3.72,-3l16.23,0c0.77,1.78 1.4,2.74 3.7,3.09l-0.93,-3.08l6.64,0l-0.33,2.71c1.52,-0.31 2.14,-1.23 2.65,-2.73l5.16,0.06c0,3 -1.71,3.39 -3,4.22c-1.78,1.15 -4.42,0.66 -6.55,0.66l-28.66,0c-5.78,0 -6.74,0.62 -11.27,-3.03l-0.04,0zm44.8,-62.28l0,38.86c-0.17,5.41 -2.9,6.54 -12.72,6.13a21.16,21.16 0 0 0 -3,0.12a11.16,11.16 0 0 0 -4,1.75c-0.4,-0.18 -2.95,-2 -5.26,-2.09c-1.91,-0.05 -4.57,0.26 -6.56,0.27c-3.71,0 -7.25,-1.14 -7.72,-5c0,0.07 0,-0.68 -0.06,-1.08l0,-39.57s0,-0.06 0,-0.08l39.28,0c0.08,0.14 0.02,0.38 0.04,0.69zm-2.83,59.06l-2.62,0c-1.21,-6.67 8.16,-6.45 6.67,0l-1.66,0.06c-0.14,-0.83 -0.14,-1.79 -1.26,-1.81c-0.9,-0.04 -1.23,0.61 -1.13,1.75zm-2.2,-12.39c-7.95,2.74 -4.19,5.73 -8.22,7a11.67,11.67 0 0 1 -1.57,0.26l-0.85,-7.45c2.56,-0.79 6.34,0.35 12.1,-0.79c-0.19,0.67 -0.12,0.58 -1.46,1.01l0,-0.03zm-2.33,12.39l-2.05,0c-0.12,-1.59 -0.51,-1.75 -1.27,-1.76c-1.3,0 -1.54,1.5 -1.57,1.75c-0.2,0 -0.7,0 -1.77,0c-1.13,-6.93 7.92,-6.45 6.66,0.01zm-9.79,0l-5.1,0l0.88,-11.83a10.89,10.89 0 0 1 1.68,0.65a8.09,8.09 0 0 1 1.89,-0.73l0.65,11.91zm-12.38,-9.6c-1.84,-2.26 -4.31,-1.85 -6,-3.15c0.13,-0.07 -0.28,-0.68 -0.2,-0.67a10,10 0 0 1 1.22,0.33c3.13,0.92 8.17,-0.78 11,0.54l-1.25,7.76c-3.65,-0.33 -4,-3.87 -4.77,-4.84l0,0.03zm3,9.67l-1.78,0c-0.17,-1.12 -0.27,-1.83 -1.58,-1.79s-1.16,1 -1.36,1.87l-2,0c-1.04,-6.66 7.49,-7.15 6.68,-0.15l0.04,0.07zm-8.6,-0.08a7.5,7.5 0 0 1 -2.22,0c0,-0.89 0.07,-1.71 -1.28,-1.72s-1.55,1.13 -1.73,1.82l-1.44,0c-1.62,-6.09 7.76,-6.97 6.63,-0.09l0.04,-0.01zm59.25,-21.88a9.81,9.81 0 0 0 1.11,2l-1.12,-0.61c-0.03,-0.5 -0.03,-0.96 -0.03,-1.42l0.04,0.03zm13.12,-9.51c5.92,4.11 2.28,14.34 -4.76,13.31a41.17,41.17 0 0 0 2.47,-4.72a3.47,3.47 0 0 0 -1.6,-3.65a3.29,3.29 0 0 0 -4.36,0.27c-0.91,0.68 -1.05,1.54 -3.07,3.83c-3.5,-4.48 3.98,-14.64 11.32,-9.04zm-4.45,16.79l-1.95,-1.52a18.22,18.22 0 0 0 3.17,-0.28l-0.09,2.87l-1.13,-1.07zm-2.66,-2.89a31.74,31.74 0 0 1 -3.89,-2.5c1.05,-1.7 3.83,-7.34 6.29,-5.44c2.56,1.56 -1.03,6.36 -2.41,7.94l0.01,0zm1.17,4.24l7.16,6a47.79,47.79 0 0 1 -3,4.89s-11.31,-4.95 -14.55,-6.43c-1.48,-1.43 -10.42,-10.29 -11.27,-11.39a27.78,27.78 0 0 1 3.86,-4.5s13.24,7.19 17.79,11.43l0.01,0zm-0.33,18.71a18.52,18.52 0 0 0 -7.92,0.19c0.27,-3.43 0.49,-7.27 0.66,-11.49c2.11,0.87 6.69,2.82 9.63,4.07c-0.19,2.71 -0.4,5.28 -0.66,7.66a10.69,10.69 0 0 0 -1.72,-0.43l0.01,0zm-17.51,8.8c-1.05,-3 1.18,-6.15 2,-7.6c0.59,-1 3.32,-5.4 5.65,-8.93c-0.16,3.23 -0.36,6.21 -0.59,8.92c-2.49,1.36 -4.93,3.65 -7.07,7.61l0.01,0zm16.48,-7.16l-11,5.31l5.23,1.95c-3.51,1.69 -6.46,2.61 -9.3,1.31c0.37,-2.9 6.11,-11.83 15.06,-8.57l0.01,0zm-18.42,-10.47c0.15,-4.24 0.24,-8.48 0.29,-12.58c1.92,1.88 3.94,3.71 5.66,5.6a34,34 0 0 1 -3.64,5.46a9.59,9.59 0 0 1 -2.29,2.27l-0.02,-0.75zm-4.56,6.77c1.19,-2.51 -0.11,-5.3 -2.33,-3.08l-2,-0.07c0.12,-3.39 3.25,-5.58 5.78,-3.3c3.29,2.96 0,4.47 -1.46,6.45l0.01,0zm-26.65,73.25c-28.2,0 -61.66,-23.3 -62.4,-48.63c-0.33,-11.61 4.12,-21.49 16.46,-21.47c14,1.08 15.85,20.41 3,17.38a0.6,0.6 0 0 0 -0.58,1c3.66,4.18 17.31,4.31 25.33,-14.69l36.53,0l1.15,2.28l0,0c7.2,15.94 21.11,15.26 24.74,11.76a0.41,0.41 0 0 0 -0.45,-0.68a4.86,4.86 0 0 1 -0.79,0.29a12.63,12.63 0 0 1 -1.83,0.37c3,-1.08 5.5,-3.81 6.83,-5.54c1.68,2.33 2,3.58 1.18,6.65c-1.91,7.47 -10.69,7.17 -16.71,5.28a26.25,26.25 0 0 1 -13.93,-10.8c-0.78,-1.21 -2.44,-4.32 -3.14,-5.13l-30.7,0c-1.19,1.63 -2.27,4 -3.61,5.89a26.09,26.09 0 0 1 -17,10.94c-14.25,2.35 -14.89,-9.65 -11.6,-12.31c1.7,-1.37 3.91,-1.25 5.93,-0.82a1.14,1.14 0 0 0 1.38,-1.09c0.31,-10.05 -13.6,-7.6 -17.15,2.42c-3.16,8.89 0.56,18.43 6,25.49a65,65 0 0 0 42.72,25c17.9,2.6 37.6,-3 51,-15.38c6,-5.54 11.75,-11.45 14.62,-19.27c2.32,-6.33 2.71,-14.89 -1.91,-19.91c-1,-1 -1.18,-1.17 -1.51,-1.52c0.28,-1.26 0.94,-3.66 1.17,-5l0,0s7.43,3.54 8.06,14.23c-0.07,36.31 -38.37,53.26 -62.8,53.26l0.01,0z" id="svg_56"/>
  <path class="cls-1" d="m133.69,123.84a0.32,0.32 0 0 1 -0.43,0a0.28,0.28 0 0 1 0,-0.41l0.19,-0.19a1.42,1.42 0 0 0 -1.69,0.19a1.26,1.26 0 0 0 0,1.84a1.39,1.39 0 0 0 1.93,0a1.26,1.26 0 0 0 0.2,-1.61l-0.2,0.18z" id="svg_57"/>
  <path class="cls-1" d="m156.69,123.23l0.08,0.07a0.34,0.34 0 0 1 0,0.49a0.38,0.38 0 0 1 -0.51,0l-0.07,-0.07a1.27,1.27 0 0 0 0.22,1.57a1.41,1.41 0 0 0 1.93,0a1.26,1.26 0 0 0 0,-1.85a1.41,1.41 0 0 0 -1.65,-0.21z" id="svg_58"/>
  <path class="cls-1" d="m146.25,94.61a0.12,0.12 0 0 1 0.08,0a0.12,0.12 0 0 0 -0.08,0z" id="svg_59"/>
  <path class="cls-1" d="m163.12,89.74l-36.38,0c0,22.37 -0.14,33 -0.14,34c0,4.67 0,8.37 3.68,8.75a17.32,17.32 0 0 0 2.36,0.14c1.12,0 2.24,-0.07 3.32,-0.15s2.11,-0.15 3.13,-0.15a9.32,9.32 0 0 1 5.81,1.67a5.79,5.79 0 0 1 3.46,-1.49l1.33,0c0.64,0 1.46,0 2.41,0.09c1.21,0.06 2.59,0.12 3.94,0.12c2.84,0 4.8,-0.38 5.84,-1.15c2.17,-2.06 1.52,-3.82 1.52,-6.6c0,-4.41 -0.28,-23.71 -0.28,-35.23zm-16.37,3.44c0.26,-0.26 0.49,-0.19 0.67,0.11a0.3,0.3 0 0 1 0.22,0.12c0.07,0.11 -0.11,0.2 -0.1,0.31s0.46,0.07 0.19,0.29c0.11,-0.21 -0.36,0 -0.33,-0.25c-0.05,0.22 0.27,0.38 -0.07,0.49c0.12,-0.22 -0.17,-0.38 -0.07,-0.51s0.05,-0.45 -0.26,-0.5c0.1,0.41 0.06,0.76 -0.49,0.71c0.76,-0.1 0.1,-0.59 0.24,-0.77zm-1.88,-0.88l0.12,0l0,-0.11l0.12,0l0,0.11l0.12,0l0,0.11l-0.12,0l0,0.11l-0.11,0l0,-0.11l-0.12,0l-0.01,-0.11zm-2.67,1.47c0.47,0 0.12,-0.13 0.15,-0.36c0.31,-0.19 0.53,-0.62 0.89,-0.23c0.15,0.18 -0.52,0.67 0.25,0.77c-0.55,0 -0.59,-0.3 -0.5,-0.71c-0.31,0.05 -0.5,0.22 -0.26,0.5s-0.18,0.29 -0.06,0.51c-0.34,-0.11 0,-0.27 -0.07,-0.49c0,0.29 -0.44,0 -0.34,0.25a0.16,0.16 0 0 1 -0.06,-0.24zm16.59,32a2,2 0 0 1 -1.41,0.6a2.34,2.34 0 0 1 -2,-1.21a1.75,1.75 0 0 1 0.05,-1.78l-0.16,-0.15a9.4,9.4 0 0 0 -1.64,2.42a0.29,0.29 0 0 1 -0.16,0.15l-0.1,0l-0.11,0l-0.65,-0.29a0.26,0.26 0 0 1 -0.14,-0.35a10.27,10.27 0 0 1 1.14,-1.94l-0.41,-0.31a0.25,0.25 0 0 1 -0.05,-0.37c0.15,-0.19 0.32,-0.38 0.5,-0.57l-8,-7.7c0.34,3.28 0.21,5.39 -0.1,6.23l0.05,0a0.29,0.29 0 0 1 0.28,0.21a0.28,0.28 0 0 1 -0.13,0.29a1.89,1.89 0 0 0 0,0.61a1.93,1.93 0 0 1 -0.06,1.13a0.77,0.77 0 0 1 0.13,0.48a0.74,0.74 0 0 1 -0.26,0.54c0,0.11 0.06,0.22 0.1,0.34a4.64,4.64 0 0 1 0.27,1.87a1.35,1.35 0 0 1 -0.24,0.6a0.7,0.7 0 0 1 0.11,0.71a1,1 0 0 1 -1.56,0a0.71,0.71 0 0 1 0.12,-0.72c-0.5,-0.67 -0.21,-1.69 0,-2.44c0,-0.13 0.07,-0.25 0.1,-0.36a0.74,0.74 0 0 1 -0.26,-0.54a0.77,0.77 0 0 1 0.13,-0.48a1.93,1.93 0 0 1 -0.06,-1.13a1.89,1.89 0 0 0 0,-0.61a0.28,0.28 0 0 1 -0.13,-0.29a0.29,0.29 0 0 1 0.28,-0.21l0,0c-0.32,-0.85 -0.46,-3 -0.1,-6.33l0,0l-0.06,0.07l0,0c-0.59,0.55 -1.49,1.44 -2.37,2.32c-4.71,4.66 -6.33,6.15 -6.91,6.32l-0.42,0.4a1.76,1.76 0 0 1 0.09,1.8a2.3,2.3 0 0 1 -2,1.23a2,2 0 0 1 -1.41,-0.6a1.79,1.79 0 0 1 -0.48,-2.08a2.26,2.26 0 0 1 2,-1.37a2,2 0 0 1 1,0.28c0.09,-0.1 0.23,-0.23 0.42,-0.41c0.16,-0.51 1.39,-1.78 6.75,-6.74c1.25,-1.16 2.54,-2.35 2.95,-2.78l-10.3,-9.85c-0.29,0.46 -0.75,1.82 0.24,4c0,0 0,0 0,-0.07a0.29,0.29 0 0 1 0.26,-0.21l0,0a0.28,0.28 0 0 1 0.27,0.19a2.42,2.42 0 0 0 0.85,1.44l0.28,0.25a0.25,0.25 0 0 1 0,0.32a0.26,0.26 0 0 1 -0.24,0.13l-0.07,0l-0.67,-0.17c-0.54,-0.13 -1.1,-0.26 -1.57,-0.42a0.28,0.28 0 0 1 -0.18,-0.23a0.26,0.26 0 0 1 0.15,-0.26l0.09,-0.05a5.91,5.91 0 0 1 -1.38,-5.3a3.69,3.69 0 0 0 -0.19,-2.33a0.26,0.26 0 0 1 0,-0.33a0.32,0.32 0 0 1 0.2,-0.08a0.33,0.33 0 0 1 0.14,0a2.44,2.44 0 0 0 1.23,0.27c0.37,0 0.78,-0.05 1.21,-0.09a15.47,15.47 0 0 1 1.58,-0.11a6,6 0 0 1 4,1.43l0.05,-0.09a0.27,0.27 0 0 1 0.24,-0.14l0,0a0.3,0.3 0 0 1 0.24,0.18c0.16,0.44 0.3,1 0.44,1.5c0.06,0.22 0.11,0.44 0.17,0.64a0.27,0.27 0 0 1 -0.13,0.3a0.32,0.32 0 0 1 -0.14,0a0.26,0.26 0 0 1 -0.19,-0.07a3.25,3.25 0 0 1 -0.26,-0.27a2.62,2.62 0 0 0 -1.51,-0.82a0.27,0.27 0 0 1 -0.2,-0.26a0.28,0.28 0 0 1 0.22,-0.25l0.07,0a6.76,6.76 0 0 0 -2.57,-0.58a3.38,3.38 0 0 0 -1.6,0.35l9.39,9a0.84,0.84 0 0 1 0.18,-0.43a1.76,1.76 0 0 1 -0.2,-1.28a2,2 0 0 0 0,-0.49a0.26,0.26 0 0 1 -0.05,-0.28a0.26,0.26 0 0 1 0.21,-0.16a3.66,3.66 0 0 1 -0.17,-2.64a4.89,4.89 0 0 0 -0.17,-3.21a0.25,0.25 0 0 1 0,-0.25a0.23,0.23 0 0 1 0.07,-0.06l1.13,0c-0.6,0 -0.8,-1.22 -0.44,-1.67c-0.18,0 -0.26,-0.22 -0.34,-0.2c-0.3,0.25 -0.52,-0.13 -0.45,-0.28c-0.11,0.11 0,0.29 -0.2,0.31c0.23,-0.1 -0.42,-0.37 0.13,-0.58c-0.13,0 -0.31,-0.26 0,-0.34c-0.24,0.49 0.71,-0.21 0.94,-0.29c-0.14,0 -0.17,0 -0.27,0.07c0.62,-0.48 -0.16,-1.09 -0.31,-0.45c0,0.18 0.44,0.06 0.21,0.17a0.43,0.43 0 0 1 -0.19,0.06c0.34,0.47 -0.8,0.15 -1.14,0.59c0.11,0.21 0,0.47 -0.09,0.18c-0.11,0 -0.29,-0.09 -0.31,-0.21s-0.17,-0.35 0,-0.42c0,0 0,0 0,0s-0.13,-0.31 -0.21,-0.31l0.16,-0.07c-0.05,0.06 0.18,0.26 0.12,0.34s0,0 0,0c0.14,-0.27 0.19,0.09 0.38,0.14s0.73,-0.08 0.61,-0.39c0,0 0,0.07 -0.12,0.12s0,-0.1 0,-0.13s-0.13,0.15 -0.2,0.16c0.08,-0.08 0.11,-0.21 0,-0.25s-0.27,0.16 -0.31,0c0.29,0 0,-0.31 0.17,-0.49c0.41,-0.44 0.23,0 0.6,-0.31c0,0 0.14,-0.55 -0.12,-0.69c0,-0.21 -0.09,0.18 -0.26,0.05c0.17,0.64 -0.54,0.71 -0.29,0c0,0 0,0 -0.07,0c-0.09,0.77 -0.55,0.68 -0.42,0.18c-0.3,0.53 -0.7,0.19 -0.13,-0.45c-0.19,0.19 -0.36,0.57 -0.69,0.51c0.13,0.37 0.62,0.82 0.55,1.19c-0.4,-0.27 -0.48,-1.09 -0.77,-1.47c0,0 0,0 0,0s0,0 0,0s-0.07,0 -0.17,0s0.06,-0.13 0.07,0s0.07,-0.17 0,-0.09s-0.25,-0.1 -0.25,-0.23c-0.15,-0.06 0.11,0 0.16,0s-0.06,0.09 0.06,0s-0.07,-0.11 -0.1,-0.09s-0.09,0 0,0c-0.16,-0.09 0.25,-0.26 0.35,-0.28c-0.75,0 -0.48,-0.42 0.11,-0.37c-1,-0.09 -0.74,-0.4 -0.18,-0.36c-0.46,-0.19 -0.85,-0.55 0,-0.38c-0.65,-0.38 -0.36,-0.59 0.07,-0.41a0.58,0.58 0 0 1 -0.34,-0.76c0.28,0.26 0.63,0.52 0.9,0.76c-0.34,-0.44 -1,-0.71 -0.57,-1.41a12,12 0 0 0 0.73,1.16a0.37,0.37 0 0 1 0.09,-0.16a5,5 0 0 0 0.29,0.5a0.22,0.22 0 0 1 0.05,-0.11c0.37,0.57 0.87,0.6 0.54,1s0.35,0.48 0.52,0.26c-0.14,-0.06 -0.23,-0.24 -0.1,-0.35c0,0.23 0.5,0 0.49,-0.08a0.21,0.21 0 0 1 -0.33,-0.13c0.62,0.17 0.29,-0.61 0,-0.81c-0.16,0 -0.46,-0.09 -0.49,0.17c-0.17,-0.06 0,-0.27 0.21,-0.27c-0.27,0 -0.77,0.41 -0.8,0c0.14,0.28 0.55,-0.09 0.75,0a0.4,0.4 0 0 0 -0.5,0a0.26,0.26 0 0 1 0.24,-0.43c0,-0.1 0.13,-0.14 0.21,-0.14l-0.07,0c0,-0.2 -0.24,-0.5 0.11,-0.55l0.06,0l0,0s0,0 0,0l0,0c-0.26,-0.17 0.29,-0.17 0,0l0,0l0,0s0,0 0,0l0.35,0c0.28,0 0.25,0.34 0.1,0.49l0,0a2.08,2.08 0 0 0 0.61,-0.32l-0.06,0l0,-0.1c-0.25,-0.24 -0.3,-0.74 0.14,-0.77l0,0l0.1,0c0,0.1 0.09,0.1 0.07,0l0.04,0c-0.42,-0.27 0.44,-0.27 0,0l0.06,0s0,0.08 0.06,0.08l0,-0.08l0.09,0l0,0c0.56,0.07 0.23,0.56 0.16,0.87l-0.07,0a2.08,2.08 0 0 0 0.61,0.32l0,0c-0.16,-0.15 -0.18,-0.47 0.1,-0.49l0.06,0s0,0 0.05,0l0,0l0,0c-0.26,-0.17 0.29,-0.17 0,0l0,0s0,0 0,0l0,0l0.07,0c0.35,0 0.15,0.35 0.1,0.55l-0.09,0s0.11,0 0.14,0s0.09,0.06 0.07,0.12a0.26,0.26 0 0 1 0.27,0.42a0.42,0.42 0 0 0 -0.51,0l0,0c0.21,-0.08 0.62,0.29 0.76,0c0,0.46 -0.53,0 -0.8,0c0.18,0 0.38,0.21 0.21,0.27a0.23,0.23 0 0 0 -0.19,-0.2c-0.47,-0.16 -1,1 -0.28,0.84a0.21,0.21 0 0 1 -0.32,0.13c0.08,0.17 0.47,0.27 0.48,0.08c0.13,0.12 0,0.29 -0.11,0.35c0.18,0.22 0.8,0.07 0.51,-0.26s0.17,-0.45 0.54,-1a0.16,0.16 0 0 1 0.05,0.11a5.09,5.09 0 0 0 0.3,-0.5a0.35,0.35 0 0 1 0.08,0.16a9.09,9.09 0 0 0 0.73,-1.16c0.42,0.7 -0.23,1 -0.56,1.41c0.27,-0.24 0.61,-0.5 0.89,-0.76c0.17,0.65 -0.32,0.69 -0.66,1c1,-0.61 0.9,-0.13 0.38,0.2c0.55,-0.14 0.58,0.18 0,0.38c0.58,0 0.84,0.27 -0.17,0.36c0.6,0 0.87,0.4 0.11,0.37c0.58,0.14 0.35,0.44 -0.14,0.3c0.59,0.28 0.13,0.52 -0.22,0.26c0.52,0.49 0,0.5 -0.31,0.17c0.24,0.45 -0.07,0.76 -0.4,0c-0.2,-0.32 0.3,0.47 0,0.58s-0.31,-0.34 -0.38,-0.59c0,0 0,0 -0.07,0c0.25,0.66 -0.47,0.59 -0.3,0c-0.17,0.13 -0.25,-0.26 -0.26,-0.05c-0.23,0.16 -0.1,0.65 -0.1,0.69c0.37,0.28 0.19,-0.13 0.6,0.31c0.14,0.18 -0.12,0.48 0.17,0.49c-0.06,0.18 -0.24,0.09 -0.31,0a0.17,0.17 0 0 0 0,0.26c-0.06,0 -0.15,-0.11 -0.19,-0.16s0,0.09 0,0.13a0.2,0.2 0 0 1 -0.12,-0.1c0,0.32 0.55,0.5 0.84,0.38c0,-0.3 0,-0.72 0.47,-0.79l0,0l0,-0.14l-0.16,0l0,0.05l0.16,0l0,-0.14l0.15,0l0,0.14l0.16,0l0,0.13l-0.16,0l0,0.14l0,0c0.88,0.26 0.29,1.13 -0.37,1.16c-0.38,-0.36 -1.74,-0.09 -1.34,-0.72c-0.06,0.12 -0.22,0.09 -0.3,0s0.21,0 0.21,-0.17c-0.16,-0.66 -0.92,0 -0.31,0.45c-0.1,-0.09 -0.14,0 -0.29,-0.08c0.22,0.09 1.18,0.79 0.95,0.3c0.33,0.08 0.15,0.35 0,0.34c0.54,0.21 -0.11,0.48 0.12,0.58c-0.17,0 -0.08,-0.2 -0.19,-0.31a0.29,0.29 0 0 1 -0.5,0.26a0.31,0.31 0 0 1 -0.3,0.22c0.37,0.45 0.17,1.68 -0.43,1.67l1.2,0s0.05,0 0.07,0.06a0.31,0.31 0 0 1 0,0.25a5,5 0 0 0 -0.18,3.21a3.56,3.56 0 0 1 -0.17,2.64a0.27,0.27 0 0 1 0.22,0.16a0.26,0.26 0 0 1 0,0.28a2,2 0 0 0 0,0.49a1.76,1.76 0 0 1 -0.2,1.28a0.87,0.87 0 0 1 0.18,0.46l1.78,-1.8c2.09,-1.91 6.77,-5.68 6.89,-6.74a3.36,3.36 0 0 0 -2.23,1a0.2,0.2 0 0 0 0,0.25a0.27,0.27 0 0 1 0,0.36l-1.48,1.13a0.28,0.28 0 0 1 -0.18,0.06a0.28,0.28 0 0 1 -0.15,0a0.26,0.26 0 0 1 -0.11,-0.3l0.61,-1.95a0.27,0.27 0 0 1 0.26,-0.19l0,0a0.28,0.28 0 0 1 0.23,0.14a5.09,5.09 0 0 0 0.76,-0.53a7.6,7.6 0 0 1 1.17,-0.77l-0.27,0a3.21,3.21 0 0 0 -2.18,0.73a0.09,0.09 0 0 0 0,0.11a0.24,0.24 0 0 1 0,0.23a0.25,0.25 0 0 1 -0.16,0.17a3.91,3.91 0 0 0 -1.61,1a0.29,0.29 0 0 1 -0.22,0.1a0.2,0.2 0 0 1 -0.11,0a0.25,0.25 0 0 1 -0.16,-0.28a5.62,5.62 0 0 1 0.72,-1.67l0.24,-0.44a0.27,0.27 0 0 1 0.23,-0.15l0,0a0.31,0.31 0 0 1 0.25,0.13a0.16,0.16 0 0 0 0,0.07a4.52,4.52 0 0 1 3,-1.31a2.82,2.82 0 0 1 2.81,2.36a3.27,3.27 0 0 1 2.55,2.29a2.64,2.64 0 0 1 -1.34,2.68l0,0a0.24,0.24 0 0 1 0.13,0.26a0.27,0.27 0 0 1 -0.19,0.22l-2,0.58l-0.08,0a0.27,0.27 0 0 1 -0.23,-0.12a0.24,0.24 0 0 1 0,-0.31l1.13,-1.34l0,0l0,-0.06a0.32,0.32 0 0 1 0.22,-0.1a0.27,0.27 0 0 1 0.17,0.06a0.24,0.24 0 0 0 0.14,0.06c0.08,0 0.27,-0.16 0.42,-0.6a2.69,2.69 0 0 0 0.16,-0.83a6.32,6.32 0 0 1 -0.7,0.78a5.14,5.14 0 0 0 -0.49,0.55a0.06,0.06 0 0 1 0,0.09a5.31,5.31 0 0 1 -2,0.79l-0.24,0l0,0a0.29,0.29 0 0 1 -0.26,-0.16a0.27,0.27 0 0 1 0.09,-0.32c0.48,-0.34 1,-0.79 1.12,-1.19a0.29,0.29 0 0 1 0.14,-0.17a0.23,0.23 0 0 1 0.14,0l0.08,0a0.45,0.45 0 0 0 0.16,0c0.49,0 1,-0.66 1,-1.17a2.49,2.49 0 0 0 -0.07,-0.9a4.3,4.3 0 0 0 -1,0.53c-0.62,0.59 -7.71,7.31 -9,8.53l8.67,8.28c0.2,-0.17 0.4,-0.32 0.6,-0.47a0.27,0.27 0 0 1 0.17,-0.06a0.29,0.29 0 0 1 0.22,0.11l0.32,0.39a10.7,10.7 0 0 1 2,-1.09a0.2,0.2 0 0 1 0.11,0a0.26,0.26 0 0 1 0.25,0.15l0.3,0.62a0.26,0.26 0 0 1 0,0.21a0.25,0.25 0 0 1 -0.15,0.15a10,10 0 0 0 -2.53,1.57l0.16,0.15a2,2 0 0 1 1,-0.26a2.25,2.25 0 0 1 2,1.37a1.81,1.81 0 0 1 -0.39,2.01l0,-0.02z" id="svg_60"/>
  <path class="cls-1" d="m143.69,94.59a0.12,0.12 0 0 1 0.08,0a0.13,0.13 0 0 0 -0.08,0z" id="svg_61"/>
  <polygon class="cls-1" id="svg_62" points="142.26 64.21 142.26 64.21 142.26 64.21 142.26 64.21 142.26 64.21"/>
  <path class="cls-1" d="m161.8,18.42c-2,-3.73 -6.7,-6 -12.51,-6a1.24,1.24 0 0 0 -1.17,0.88c-0.88,3 -1.65,6.13 -2.27,9.19c-0.26,1.3 -0.51,2.48 -0.74,3.56c-0.2,-0.95 -0.41,-1.95 -0.63,-3l-0.11,-0.54c-0.61,-3 -1.38,-6.12 -2.27,-9.18a1.22,1.22 0 0 0 -1.17,-0.89c-5.8,0 -10.48,2.23 -12.52,6a12,12 0 0 0 -0.73,8.67a20.25,20.25 0 0 0 4.14,6.89l0,0.07l0.1,0.05a5.74,5.74 0 0 1 0.93,1.2a1.18,1.18 0 0 1 0.14,0.55a14.55,14.55 0 0 1 0,2a1.17,1.17 0 0 0 0.3,0.92a1.21,1.21 0 0 0 0.9,0.41l10.39,0.15l0.81,0l10.61,-0.19a1.18,1.18 0 0 0 0.88,-0.4a1.2,1.2 0 0 0 0.31,-0.95a11.51,11.51 0 0 1 0,-2a1.31,1.31 0 0 1 0.15,-0.55a6,6 0 0 1 1,-1.27a20.08,20.08 0 0 0 4.17,-6.94a11.71,11.71 0 0 0 -0.71,-8.63zm-17.7,16.5a2.08,2.08 0 0 0 1,0.26a2,2 0 0 0 1,-0.26a55.34,55.34 0 0 1 12.6,-5.41a19.46,19.46 0 0 1 -2.09,2.8l0,0a7.72,7.72 0 0 0 -1.37,1.83a3.66,3.66 0 0 0 -0.44,1.51c0,0.42 0,0.77 -0.05,1.06l-9.31,0.14l-9.93,-0.14q0,-0.48 -0.06,-1.05a3.57,3.57 0 0 0 -0.42,-1.53a8.26,8.26 0 0 0 -1.37,-1.8a19.85,19.85 0 0 1 -2.14,-2.85c4.31,1.11 8.96,3.52 12.58,5.44zm16.1,-8.54l-0.12,0.36c-4.8,0.81 -9.67,3.1 -13.93,5.39a1.3,1.3 0 0 0 0.14,-0.32c0.63,-2.43 1.23,-5.3 2,-8.8c0.53,-2.66 1.2,-5.38 2,-8.1c4.46,0.22 8,1.95 9.46,4.67a9.56,9.56 0 0 1 0.45,6.8zm-20.2,-11.47c0.75,2.68 1.41,5.4 2,8.1c0.71,3.5 1.31,6.33 1.94,8.79a1.28,1.28 0 0 0 0.14,0.34c-4.16,-2.21 -9.27,-4.62 -13.93,-5.4a1.59,1.59 0 0 1 -0.07,-0.2l0,-0.15a9.68,9.68 0 0 1 0.53,-6.81c1.39,-2.72 4.95,-4.45 9.39,-4.67z" id="svg_63"/>
  <path class="cls-1" d="m145.17,15.53l-0.12,0a1.19,1.19 0 0 0 -0.74,0.3a1.22,1.22 0 0 0 -0.31,0.75a47.1,47.1 0 0 0 1.08,7.32a0,0 0 0 0 0,0s0,0 0,0a47.86,47.86 0 0 0 1.07,-7.32a1.28,1.28 0 0 0 -0.31,-0.75a1.17,1.17 0 0 0 -0.67,-0.3z" id="svg_64"/>
  <polygon class="cls-1" id="svg_65" points="144.03 14.83 146.2 14.83 145.73 13.15 147.41 13.62 147.41 11.45 145.73 11.91 146.2 10.24 144.03 10.24 144.49 11.91 142.81 11.45 142.81 13.62 144.49 13.15 144.03 14.83"/>
 </g>
</svg>