<svg width="27.000000" height="22.000000" viewBox="0 0 27 22" fill="none" xmlns="http://www.w3.org/2000/svg" xmlns:xlink="http://www.w3.org/1999/xlink">
	<desc>
			Created with Pixso.
	</desc>
	<defs>
		<clipPath id="clip253_412">
			<rect id="svg" width="27.000000" height="22.000000" fill="white" fill-opacity="0"/>
		</clipPath>
	</defs>
	<g clip-path="url(#clip253_412)">
		<path id="path" d="M5.95 11.5C5.95 7.34 9.34 3.95 13.5 3.95C15.87 3.95 18.07 5.06 19.49 6.93L19.89 7.46L16.38 9.49L16.06 9.15C15.4 8.43 14.48 8.02 13.5 8.02C11.57 8.02 10.02 9.57 10.02 11.5C10.02 13.42 11.57 14.98 13.5 14.98C14.48 14.98 15.4 14.56 16.06 13.84L16.38 13.5L19.89 15.53L19.49 16.06C18.07 17.93 15.87 19.04 13.5 19.04C9.34 19.04 5.95 15.65 5.95 11.5ZM18.1 7.15C16.91 5.88 15.28 5.12 13.5 5.12C9.97 5.12 7.11 7.97 7.11 11.5C7.11 15.02 9.97 17.87 13.5 17.87C15.28 17.87 16.91 17.11 18.1 15.84L16.51 14.92C15.67 15.65 14.63 16.14 13.5 16.14C10.94 16.14 8.85 14.05 8.85 11.5C8.85 8.94 10.94 6.85 13.5 6.85C14.63 6.85 15.67 7.34 16.51 8.07L18.1 7.15ZM18.14 10.91L18.14 9.75L19.29 9.75L19.29 10.91L20.45 10.91L20.45 12.08L19.29 12.08L19.29 13.23L18.14 13.23L18.14 12.08L16.98 12.08L16.98 10.91L18.14 10.91ZM24.52 10.91L23.36 10.91L23.36 9.75L22.2 9.75L22.2 10.91L21.04 10.91L21.04 12.08L22.2 12.08L22.2 13.23L23.36 13.23L23.36 12.08L24.52 12.08L24.52 10.91Z" fill="#1E66F5" fill-opacity="1.000000" fill-rule="evenodd"/>
	</g>
</svg>
