<svg width="23.000000" height="23.000000" viewBox="0 0 23 23" fill="none" xmlns="http://www.w3.org/2000/svg" xmlns:xlink="http://www.w3.org/1999/xlink">
	<desc>
			Created with Pixso.
	</desc>
	<defs>
		<clipPath id="clip253_416">
			<rect id="svg" width="8.724136" height="11.103449" transform="translate(8.327637 6.570312)" fill="white" fill-opacity="0"/>
		</clipPath>
		<clipPath id="clip253_414">
			<rect id="svg" rx="11.500000" width="23.000000" height="23.000000" fill="white" fill-opacity="0"/>
		</clipPath>
	</defs>
	<g clip-path="url(#clip253_414)">
		<path id="path" d="M3.59 5.03L3.59 17.96C3.59 18.76 4.23 19.4 5.03 19.4L17.96 19.4C18.76 19.4 19.4 18.76 19.4 17.96L19.4 5.03C19.4 4.23 18.76 3.59 17.96 3.59L5.03 3.59C4.23 3.59 3.59 4.23 3.59 5.03ZM5.03 5.55C5.03 5.26 5.26 5.03 5.55 5.03L17.44 5.03C17.73 5.03 17.96 5.26 17.96 5.55L17.96 17.45C17.96 17.74 17.74 17.96 17.45 17.96L5.54 17.96C5.26 17.96 5.03 17.73 5.03 17.45L5.03 5.55Z" fill="#FF6D00" fill-opacity="1.000000" fill-rule="nonzero"/>
		<g clip-path="url(#clip253_416)">
			<path id="path" d="M14.94 11.05C13.92 11.05 13.26 11.71 13.26 12.57C13.26 13.52 13.81 13.97 14.64 14.32L14.93 14.45C15.46 14.68 15.77 14.81 15.77 15.21C15.77 15.54 15.46 15.78 14.98 15.78C14.42 15.78 14.1 15.48 13.85 15.08L12.91 15.62C13.24 16.29 13.94 16.8 15.01 16.8C16.1 16.8 16.92 16.23 16.92 15.2C16.92 14.23 16.37 13.8 15.39 13.38L15.1 13.26C14.6 13.04 14.39 12.89 14.39 12.55C14.39 12.27 14.6 12.06 14.94 12.06C15.28 12.06 15.49 12.2 15.69 12.55L16.59 11.97C16.21 11.3 15.68 11.05 14.94 11.05ZM10.74 11.12L10.74 15.05C10.74 15.62 10.49 15.77 10.12 15.77C9.72 15.77 9.55 15.5 9.37 15.18L8.43 15.74C8.7 16.32 9.24 16.8 10.16 16.8C11.19 16.8 11.89 16.25 11.89 15.06L11.89 11.12L10.74 11.12Z" fill="#FF6D00" fill-opacity="1.000000" fill-rule="evenodd"/>
		</g>
	</g>
</svg>
