<!-- icon666.com - MILLIONS vector ICONS FREE --><svg id="Capa_1" enable-background="new 0 0 512 512" viewBox="0 0 512 512" xmlns="http://www.w3.org/2000/svg"><g><path d="m497 180h-36v-25c0-32.132-20.315-59.599-48.772-70.257 5.541-8.583 8.772-18.789 8.772-29.743 0-30.327-24.673-55-55-55s-55 24.673-55 55c0 10.954 3.231 21.16 8.772 29.743-28.457 10.658-48.772 38.125-48.772 70.257v25h-30v-25c0-32.132-20.315-59.599-48.772-70.257 5.541-8.583 8.772-18.789 8.772-29.743 0-30.327-24.673-55-55-55s-55 24.673-55 55c0 10.954 3.231 21.16 8.772 29.743-28.457 10.658-48.772 38.125-48.772 70.257v25h-36c-8.284 0-15 6.716-15 15v60c0 8.284 6.716 15 15 15h16v227c0 8.284 6.716 15 15 15h420c8.284 0 15-6.716 15-15v-227h16c8.284 0 15-6.716 15-15v-60c0-8.284-6.716-15-15-15zm-131-150c13.785 0 25 11.215 25 25s-11.215 25-25 25-25-11.215-25-25 11.215-25 25-25zm-65 125c0-24.813 20.187-45 45-45h40c24.813 0 45 20.187 45 45v25h-130zm-155-125c13.785 0 25 11.215 25 25s-11.215 25-25 25-25-11.215-25-25 11.215-25 25-25zm-65 125c0-24.813 20.187-45 45-45h40c24.813 0 45 20.187 45 45v25h-130zm370 327h-390v-212h390zm31-242h-452v-30h452z"></path><path d="m106 452h120c8.284 0 15-6.716 15-15v-122c0-8.284-6.716-15-15-15h-120c-8.284 0-15 6.716-15 15v122c0 8.284 6.716 15 15 15zm15-122h90v92h-90z"></path><path d="m286 452h120c8.284 0 15-6.716 15-15v-122c0-8.284-6.716-15-15-15h-120c-8.284 0-15 6.716-15 15v122c0 8.284 6.716 15 15 15zm15-122h90v92h-90z"></path></g></svg>