<!-- icon666.com - MILLIONS vector ICONS FREE --><svg version="1.1" id="Capa_1" xmlns="http://www.w3.org/2000/svg" xmlns:xlink="http://www.w3.org/1999/xlink" x="0px" y="0px" viewBox="0 0 512 512" style="enable-background:new 0 0 512 512;" xml:space="preserve"><g><g><path d="M452,40h-24V0h-40v40H124V0H84v40H60C26.916,40,0,66.916,0,100v352c0,33.084,26.916,60,60,60h392 c33.084,0,60-26.916,60-60V100C512,66.916,485.084,40,452,40z M156,472H60c-11.028,0-20-8.972-20-20V352h116V472z M156,312H40V192 h116V312z M316,472H196V352h120V472z M316,312H196V192h120V312z M472,452c0,11.028-8.972,20-20,20h-96V352h116V452z M472,312H356 V192h116V312z M472,152H40v-52c0-11.028,8.972-20,20-20h24v40h40V80h264v40h40V80h24c11.028,0,20,8.972,20,20V152z"></path></g></g></svg>