<?xml version="1.0" standalone="no"?>
<!DOCTYPE svg PUBLIC "-//W3C//DTD SVG 20010904//EN"
 "http://www.w3.org/TR/2001/REC-SVG-20010904/DTD/svg10.dtd">
<svg version="1.0" xmlns="http://www.w3.org/2000/svg"
 width="2085.000000pt" height="2085.000000pt" viewBox="0 0 2085.000000 2085.000000"
 preserveAspectRatio="xMidYMid meet">

<g transform="translate(0.000000,2085.000000) scale(0.100000,-0.100000)"
fill="#000000" stroke="none">
<path d="M10304 18293 c4 -21 9 -52 12 -69 l6 -31 -49 8 c-96 16 -91 21 -92
-82 l-2 -91 71 7 71 7 -6 -38 c-3 -22 -9 -51 -11 -66 l-6 -28 97 0 c87 0 96 2
92 18 -3 9 -8 39 -12 65 l-6 48 71 -7 71 -7 -2 93 -1 92 -53 -6 c-29 -3 -61
-9 -70 -12 -18 -7 -17 10 1 109 l6 27 -97 0 -97 0 6 -37z"/>
<path d="M9925 18028 c-195 -17 -398 -81 -520 -165 -167 -114 -263 -295 -273
-514 -8 -177 21 -245 243 -579 78 -118 148 -226 155 -240 12 -21 15 -64 23
-265 l2 -50 838 -3 837 -2 1 77 c0 118 9 204 24 240 8 18 76 126 153 240 166
249 182 278 215 368 48 135 45 265 -10 420 -60 167 -159 277 -323 360 -127 64
-321 111 -475 116 -113 3 -114 3 -131 -38 -29 -69 -93 -341 -169 -714 -89
-444 -117 -564 -126 -547 -11 22 -46 182 -124 568 -111 552 -157 723 -198 734
-12 3 -26 5 -32 4 -5 0 -55 -5 -110 -10z m95 -210 c0 -14 -9 -12 -50 14 -27
17 -50 36 -50 42 0 5 17 27 38 49 l37 38 12 -63 c7 -35 12 -71 13 -80z m845
46 c-5 -2 -30 -17 -55 -34 -24 -16 -45 -28 -47 -26 -3 3 15 110 23 135 4 11
17 2 47 -28 23 -24 38 -45 32 -47z m-1111 15 c-26 -33 -51 -62 -54 -64 -4 -2
-23 13 -44 34 -33 34 -35 39 -21 51 19 16 98 38 138 39 l28 1 -47 -61z m1374
34 c17 -8 32 -18 32 -22 0 -4 -17 -24 -38 -44 l-38 -37 -39 52 c-65 85 -64 81
-4 73 30 -4 69 -14 87 -22z m-1625 -105 c-13 -23 -28 -34 -47 -36 -37 -5 -31
15 14 46 46 31 55 28 33 -10z m1821 1 c31 -24 33 -39 7 -39 -23 0 -51 25 -51
46 0 19 13 18 44 -7z m-1705 -103 l43 -55 -43 -66 c-24 -36 -47 -64 -51 -63
-4 2 -27 32 -51 68 l-44 65 46 57 c25 31 48 55 52 53 3 -3 25 -29 48 -59z
m1677 -33 c14 -20 12 -26 -28 -87 -24 -36 -46 -66 -50 -66 -10 0 -88 116 -88
130 0 6 19 35 43 65 l42 54 33 -37 c18 -20 40 -47 48 -59z m-1414 45 c52 -65
52 -63 7 -129 l-41 -62 -27 34 c-14 19 -38 47 -52 64 l-27 29 46 53 c25 29 49
53 53 53 3 0 22 -19 41 -42z m1112 -7 l49 -50 -26 -33 c-83 -106 -78 -105
-131 -26 l-34 50 41 54 c23 30 44 54 47 54 3 0 28 -22 54 -49z m-263 -106
c-19 -36 -36 -64 -37 -62 -1 1 1 22 6 47 5 25 12 63 15 84 l6 39 22 -22 22
-22 -34 -64z m-653 23 c6 -40 10 -74 8 -75 -1 -1 -17 23 -34 54 -31 53 -32 57
-16 74 10 11 20 19 24 19 3 0 11 -33 18 -72z m-702 35 c-2 -16 -5 -36 -5 -45
-1 -9 -21 -31 -46 -48 -38 -26 -45 -28 -45 -13 1 31 37 99 61 117 33 23 40 20
35 -11z m2102 -33 c20 -30 30 -80 16 -80 -9 0 -68 42 -76 55 -4 5 -8 27 -8 49
0 38 0 38 23 24 12 -8 32 -30 45 -48z m-1999 -176 c22 -36 41 -70 41 -76 0 -6
-21 -40 -46 -75 l-47 -66 -43 69 c-24 38 -44 72 -44 76 0 7 91 138 96 138 1 0
20 -30 43 -66z m1924 -4 l47 -69 -46 -71 -46 -71 -40 53 c-65 87 -64 81 -16
158 24 38 45 69 48 69 3 0 26 -31 53 -69z m-1645 -6 c24 -36 40 -70 36 -77 -4
-7 -28 -38 -52 -70 l-45 -59 -43 69 c-24 37 -44 71 -44 75 0 9 91 128 98 128
4 0 26 -30 50 -66z m271 3 c22 -35 41 -67 41 -71 0 -4 -22 -36 -50 -72 l-49
-66 -46 71 c-27 42 -43 76 -39 84 20 33 87 117 94 117 4 0 26 -28 49 -63z
m835 -6 l44 -57 -46 -73 -46 -73 -24 29 c-13 15 -36 46 -52 69 l-29 41 45 67
c25 37 49 64 54 61 5 -3 30 -32 54 -64z m266 8 c25 -34 44 -65 42 -71 -7 -26
-86 -138 -92 -131 -4 4 -27 35 -53 69 l-46 61 45 66 c24 37 48 67 52 67 4 -1
27 -28 52 -61z m-1880 -73 c0 -13 -7 -29 -15 -36 -12 -10 -15 -9 -15 6 0 32
12 64 21 58 5 -3 9 -16 9 -28z m2313 -13 c4 -20 5 -39 2 -41 -8 -8 -37 49 -31
63 10 26 23 16 29 -22z m-2215 -240 l40 -71 -22 -21 c-38 -35 -59 -27 -89 34
-15 31 -27 64 -27 74 0 23 40 75 50 64 4 -4 26 -40 48 -80z m272 19 c22 -35
40 -67 40 -73 0 -5 -10 -28 -22 -50 -23 -40 -24 -40 -67 -35 -50 7 -66 18 -87
58 -15 28 -14 31 37 99 28 38 53 68 55 66 2 -2 22 -31 44 -65z m274 -3 c20
-33 36 -65 36 -70 0 -14 -79 -129 -88 -129 -7 1 -56 64 -85 110 -15 24 -14 27
35 92 28 37 54 66 58 63 4 -3 24 -32 44 -66z m306 -70 c0 -9 -18 -44 -40 -78
l-41 -63 -18 24 c-52 68 -81 119 -75 131 4 6 27 38 52 70 l44 58 39 -63 c21
-35 38 -70 39 -79z m523 65 l46 -61 -50 -72 -51 -72 -17 23 c-10 13 -30 44
-45 70 l-27 47 42 71 c23 39 45 67 49 63 4 -4 28 -36 53 -69z m266 12 c28 -35
51 -68 51 -74 0 -12 -89 -132 -98 -132 -4 0 -27 29 -51 64 l-44 65 44 70 c24
39 44 71 45 71 1 0 25 -29 53 -64z m274 -1 c26 -35 47 -69 47 -75 0 -27 -32
-69 -61 -79 -58 -20 -76 -15 -104 33 l-26 44 43 71 c24 39 45 70 48 70 3 0 26
-29 53 -64z m272 4 c3 -10 -8 -45 -25 -78 -24 -48 -35 -61 -54 -61 -23 0 -61
32 -55 47 2 5 22 41 44 81 l39 72 23 -22 c12 -12 25 -29 28 -39z m-1530 -272
l15 -38 -27 7 c-42 10 -43 12 -25 44 9 16 18 28 19 26 1 -1 9 -19 18 -39z
m813 13 c7 -12 10 -25 7 -29 -4 -7 -55 -22 -55 -16 0 11 24 65 29 65 3 0 12
-9 19 -20z m-1246 -20 c31 -9 71 -28 88 -40 l32 -23 -46 -18 c-26 -10 -54 -23
-62 -30 -14 -11 -13 -14 7 -21 12 -5 57 -13 98 -19 76 -10 151 -35 151 -50 0
-5 -12 -15 -27 -23 -35 -18 -79 -64 -70 -73 4 -4 58 -1 121 5 212 22 255 16
428 -65 l97 -46 113 50 c151 67 199 77 317 69 119 -8 202 -16 219 -21 34 -11
-13 51 -60 79 -30 18 -36 25 -26 34 23 19 69 32 127 38 71 7 131 22 131 33 0
9 -47 33 -87 46 -13 3 -23 10 -23 14 0 13 91 57 140 69 65 15 160 25 160 17 0
-11 -36 -61 -123 -169 -101 -125 -144 -197 -153 -254 -8 -56 -31 -79 -86 -87
-24 -3 -332 -5 -684 -3 -732 3 -674 -4 -694 93 -12 56 -56 133 -131 225 -53
66 -132 170 -144 189 -6 11 4 12 61 6 38 -4 94 -15 126 -25z m712 -101 c15
-66 26 -122 24 -124 -3 -3 -141 105 -149 117 -4 7 81 127 91 128 3 0 18 -54
34 -121z m300 62 c25 -33 46 -62 46 -64 0 -5 -125 -107 -146 -120 -7 -4 -2 33
12 96 13 56 26 112 29 125 3 12 7 22 10 22 2 0 24 -27 49 -59z"/>
<path d="M10337 17829 c-50 -38 -53 -98 -21 -319 16 -109 56 -297 72 -340 9
-24 9 -24 20 10 36 114 77 341 87 482 7 98 -4 149 -38 173 -31 22 -89 19 -120
-6z"/>
<path d="M10045 16029 c-33 -11 -112 -29 -175 -41 -131 -23 -395 -27 -630 -10
-187 15 -449 8 -525 -12 -33 -9 -107 -39 -165 -66 -135 -63 -160 -69 -337 -80
-82 -5 -165 -15 -185 -21 -53 -17 -134 -84 -218 -181 -40 -45 -90 -93 -110
-105 -24 -15 -44 -39 -58 -72 -20 -43 -31 -53 -89 -82 -163 -83 -226 -206
-232 -446 -1 -47 -11 -122 -23 -167 -36 -146 -13 -276 75 -408 22 -35 109
-132 191 -216 129 -131 151 -150 154 -130 5 50 25 104 45 126 52 57 55 57 400
55 335 -3 448 -13 577 -54 84 -26 139 -59 180 -106 123 -140 144 -443 49 -729
-37 -111 -85 -190 -157 -256 -60 -56 -96 -61 -187 -27 -77 29 -153 103 -282
273 -148 196 -285 332 -383 379 -107 52 -170 65 -387 82 -106 8 -220 22 -254
30 -76 20 -164 63 -246 122 -260 185 -605 207 -919 59 -123 -59 -203 -114
-302 -210 -96 -93 -166 -184 -211 -273 -58 -114 -142 -402 -185 -633 -9 -47
-43 -236 -76 -420 -115 -641 -185 -918 -311 -1236 -37 -94 -71 -183 -75 -197
l-6 -27 63 29 c35 16 104 47 152 70 49 22 90 41 90 41 1 0 3 -579 4 -1288 1
-871 6 -1321 13 -1392 18 -163 55 -314 140 -570 84 -253 102 -315 125 -437 24
-134 43 -409 45 -663 l1 -115 45 50 45 50 -5 -45 c-51 -393 -26 -726 81 -1095
89 -306 255 -640 467 -940 170 -240 520 -613 766 -817 844 -697 1911 -1161
2957 -1283 163 -19 265 -23 508 -20 416 5 724 49 1173 165 583 152 1219 437
1730 776 412 274 783 609 1070 967 99 124 273 386 350 529 198 365 318 766
351 1173 11 131 6 400 -9 522 -6 42 -8 78 -6 80 2 2 23 -21 47 -51 29 -37 46
-51 50 -43 4 7 10 125 14 262 11 440 27 536 146 902 96 295 125 404 144 553
19 146 21 285 17 1566 -2 869 1 1165 12 1164 0 0 64 -20 141 -45 76 -24 141
-42 143 -41 2 2 -25 80 -59 173 -146 397 -232 724 -324 1233 -141 777 -288
1141 -548 1361 -97 81 -161 123 -270 174 -141 67 -220 86 -379 92 -118 5 -151
2 -231 -16 -111 -26 -204 -68 -327 -150 -142 -94 -241 -123 -465 -136 -214
-11 -289 -27 -395 -80 -124 -62 -218 -157 -400 -400 -142 -190 -230 -260 -344
-272 l-55 -6 -66 64 c-120 115 -192 309 -202 549 -7 150 7 243 48 332 54 114
130 171 274 208 125 32 219 39 540 42 293 3 312 2 349 -17 52 -26 77 -62 91
-130 l11 -56 145 148 c154 158 227 256 260 350 29 79 30 203 2 303 -14 50 -20
105 -20 166 -1 211 -69 339 -224 418 -54 27 -68 40 -90 82 -14 28 -40 59 -61
73 -20 13 -69 61 -108 106 -77 91 -154 155 -215 181 -25 10 -89 19 -185 24
-174 10 -203 17 -341 81 -59 27 -133 56 -165 65 -71 19 -349 26 -529 13 -66
-5 -208 -10 -315 -11 -209 -1 -309 11 -478 57 -47 14 -88 22 -90 20 -9 -9 30
-95 63 -138 19 -25 85 -85 147 -135 62 -49 126 -103 141 -120 l28 -30 -113
-57 c-233 -119 -341 -219 -383 -353 l-7 -23 129 5 c124 5 217 -5 257 -26 16
-9 12 -14 -39 -40 -137 -70 -255 -168 -330 -273 -24 -33 -73 -113 -110 -178
l-67 -118 -67 119 c-37 66 -78 135 -91 153 -81 118 -196 217 -333 289 -37 19
-67 38 -67 42 0 18 115 33 248 31 161 -3 159 -4 121 75 -50 103 -172 203 -367
301 -92 46 -101 53 -92 71 5 10 58 57 118 103 162 128 216 191 246 285 9 27 2
27 -79 1z m-234 -230 c-67 -60 -147 -101 -347 -178 -100 -38 -196 -77 -215
-86 -44 -22 -142 -95 -136 -101 3 -3 74 18 158 47 278 94 384 81 676 -84 51
-29 93 -55 93 -59 0 -11 -63 -46 -115 -62 -112 -35 -238 -25 -457 34 -81 22
-153 40 -160 40 -7 -1 37 -26 97 -56 531 -269 789 -622 949 -1296 19 -79 37
-163 41 -187 9 -53 18 -41 35 44 51 256 126 496 211 674 164 344 391 570 763
760 65 34 112 61 104 61 -8 0 -64 -14 -124 -31 -173 -48 -243 -61 -340 -61
-100 0 -176 17 -238 55 l-38 24 78 46 c303 177 421 193 702 97 85 -28 156 -50
158 -47 8 8 -103 84 -160 111 -28 13 -118 49 -200 80 -177 67 -292 126 -342
177 l-37 38 484 -5 c550 -5 522 -1 700 -92 142 -72 189 -83 366 -81 164 1 199
-10 279 -83 45 -41 194 -232 194 -249 0 -19 -140 -40 -259 -40 -105 0 -199 20
-338 72 l-82 31 -49 -35 c-74 -53 -102 -65 -223 -97 -103 -27 -139 -42 -139
-59 0 -13 99 -43 143 -43 48 0 83 15 156 67 55 39 83 48 136 47 81 -3 95 -10
95 -47 0 -19 -11 -55 -25 -81 -43 -81 -29 -128 50 -163 25 -11 45 -24 45 -29
0 -15 -124 -82 -152 -82 -19 0 -35 10 -52 33 -15 19 -26 37 -26 41 0 5 -7 23
-16 42 -13 27 -22 34 -46 34 -26 0 -197 -38 -207 -46 -9 -8 31 -42 54 -46 13
-3 45 -2 70 2 l47 7 44 -56 c58 -73 73 -121 50 -155 -23 -36 -58 -52 -203 -90
-168 -45 -230 -69 -302 -117 -65 -44 -102 -87 -132 -155 -26 -57 -20 -84 26
-118 44 -34 45 -62 5 -148 -17 -36 -42 -109 -57 -164 -24 -90 -26 -117 -27
-289 -1 -208 9 -271 66 -434 47 -133 103 -225 198 -323 l85 -88 -40 0 c-61 0
-151 26 -235 67 -142 69 -281 238 -344 418 -60 174 -76 389 -43 581 29 161
104 342 194 467 21 29 30 47 21 47 -7 0 -76 -31 -153 -70 -77 -38 -152 -73
-167 -76 l-26 -6 -7 85 c-4 50 -3 119 4 168 6 45 11 91 11 102 0 20 -1 20 -20
2 -34 -31 -78 -135 -94 -225 -15 -84 -20 -183 -17 -330 l1 -75 83 87 c69 73
130 118 143 106 5 -6 -33 -216 -71 -388 -69 -321 -180 -720 -219 -788 l-13
-24 -46 52 c-61 68 -122 194 -143 295 -20 100 -20 304 1 473 21 170 45 399 45
430 0 24 -1 24 -19 8 -56 -51 -97 -206 -141 -531 -17 -126 -42 -277 -56 -335
-26 -109 -92 -260 -139 -315 l-26 -30 -30 35 c-48 57 -106 187 -134 300 -14
58 -36 188 -50 290 -37 273 -54 367 -81 448 -23 69 -67 152 -81 152 -12 0 5
-193 41 -455 3 -22 9 -110 12 -195 7 -172 -8 -299 -48 -394 -27 -64 -97 -173
-131 -205 l-26 -24 -21 49 c-56 130 -170 569 -241 926 -24 120 -40 220 -36
224 14 14 96 -48 152 -115 33 -39 63 -71 68 -71 17 0 1 366 -18 440 -24 89
-93 216 -108 200 -3 -3 -1 -30 4 -60 11 -64 14 -258 4 -289 -3 -12 -12 -21
-20 -21 -8 0 -81 34 -164 76 -83 42 -155 74 -161 72 -5 -1 5 -25 24 -51 87
-122 160 -302 192 -472 23 -123 15 -354 -16 -475 -29 -114 -106 -270 -174
-352 -93 -113 -228 -193 -361 -217 -79 -13 -115 -19 -115 -16 0 1 37 40 83 86
99 101 156 198 208 353 100 294 87 627 -33 881 -15 33 -28 68 -28 77 0 9 21
37 46 62 49 48 49 49 18 124 -23 56 -109 137 -187 176 -40 19 -139 54 -221 76
-160 44 -179 51 -213 83 -41 36 -24 99 48 181 38 43 39 43 85 35 25 -5 57 -6
69 -3 23 6 63 41 54 47 -11 9 -183 47 -210 47 -26 0 -33 -6 -51 -47 -11 -27
-30 -61 -41 -77 -18 -25 -25 -28 -59 -23 -39 5 -138 61 -138 78 0 5 25 20 55
33 40 18 56 31 61 51 9 34 -2 81 -25 114 -11 15 -22 43 -26 64 -7 33 -5 38 20
47 40 15 132 12 167 -6 17 -9 51 -31 77 -49 60 -44 111 -55 176 -40 28 6 61
17 74 24 37 20 10 37 -114 69 -113 29 -158 48 -210 87 -65 48 -65 48 -172 9
-138 -50 -213 -65 -318 -65 -87 -1 -203 13 -243 29 -19 6 -17 12 26 76 67 99
177 213 233 242 45 22 59 24 204 24 141 0 164 2 233 26 42 14 109 43 148 65
94 51 145 69 224 77 36 4 263 8 505 9 l440 1 -44 -39z m-1997 -584 c22 -11 83
-60 135 -110 53 -50 154 -137 224 -194 158 -127 250 -212 288 -267 42 -62 39
-68 -29 -61 -87 7 -182 60 -387 213 -108 81 -201 142 -233 154 -38 14 -92 22
-185 28 l-132 7 -3 33 c-7 77 69 175 163 210 41 15 112 9 159 -13z m5371 1
c52 -24 109 -80 126 -123 10 -26 15 -100 8 -107 -2 -2 -60 -7 -127 -10 -68 -3
-141 -10 -162 -16 -46 -12 -146 -78 -305 -199 -144 -111 -262 -172 -340 -179
-44 -4 -55 -1 -55 10 0 42 131 174 330 332 69 55 166 138 215 186 50 48 101
93 114 100 68 36 129 38 196 6z m-5331 -440 c111 -37 205 -81 314 -147 76 -47
164 -110 160 -114 -2 -2 -41 -9 -88 -15 -258 -35 -404 -108 -535 -270 l-28
-35 -83 89 c-55 58 -96 112 -119 158 -32 64 -35 79 -35 154 0 114 15 179 48
205 25 20 35 21 144 16 98 -5 135 -12 222 -41z m5461 34 c36 -14 55 -65 62
-164 10 -146 -24 -225 -164 -375 l-68 -74 -95 94 c-131 130 -206 165 -440 203
-127 21 -128 21 -104 39 177 133 432 254 582 276 82 12 196 13 227 1z m-4397
-403 c39 -21 62 -68 62 -126 0 -32 -4 -40 -22 -45 -41 -11 -63 -6 -153 31 -90
37 -91 38 -230 37 -77 0 -214 -2 -305 -4 -128 -3 -173 -1 -202 10 -20 8 -38
20 -39 25 -3 16 67 51 129 65 94 21 194 27 467 26 231 -1 264 -3 293 -19z
m3736 -6 c79 -21 150 -56 141 -70 -2 -5 -26 -14 -52 -22 -36 -10 -90 -13 -208
-10 -88 3 -221 5 -296 5 -135 1 -136 1 -232 -38 -77 -31 -102 -37 -132 -32
l-37 7 4 60 c5 69 29 101 87 118 23 7 145 9 341 6 266 -3 315 -6 384 -24z
m-5969 -576 c115 -24 180 -54 311 -141 69 -45 149 -92 180 -104 75 -27 203
-47 355 -55 214 -10 279 -27 410 -111 83 -53 157 -127 233 -235 199 -280 288
-356 473 -403 43 -11 194 -36 216 -36 1 0 1 -313 -1 -696 l-3 -697 -30 -76
c-54 -134 -122 -230 -216 -302 l-55 -43 -21 24 c-34 43 -105 201 -127 285 -41
160 -54 327 -60 800 l-2 120 -24 -90 c-103 -375 -144 -491 -227 -630 -28 -49
-77 -116 -108 -149 -60 -64 -161 -132 -179 -121 -15 9 -83 148 -113 230 -57
159 -62 210 -62 592 0 194 -3 349 -6 345 -4 -4 -39 -120 -78 -257 -120 -428
-187 -596 -310 -781 -59 -90 -189 -224 -217 -224 -35 0 -97 144 -129 298 -33
165 -44 293 -39 485 2 104 6 208 9 230 5 42 28 310 40 462 4 50 3 76 -3 70 -5
-5 -31 -82 -57 -170 -141 -476 -268 -784 -394 -952 -63 -84 -84 -106 -146
-147 -58 -38 -69 -34 -98 32 -53 118 -77 279 -72 492 4 159 18 271 70 535 19
96 37 205 40 242 l7 68 -35 -95 c-209 -583 -518 -1097 -774 -1288 -65 -49
-171 -108 -179 -99 -2 2 10 37 26 78 89 215 163 512 280 1129 142 750 174 856
308 1035 205 276 517 411 807 350z m7795 -34 c234 -75 450 -263 559 -486 76
-154 147 -379 190 -600 16 -82 218 -1013 240 -1107 12 -48 46 -149 77 -224 30
-75 53 -138 50 -141 -8 -9 -116 55 -183 109 -129 102 -307 314 -425 505 -96
153 -163 300 -223 483 -73 224 -165 491 -176 510 -7 13 -8 13 -9 0 0 -36 31
-196 65 -335 20 -82 45 -192 56 -243 22 -107 41 -335 34 -402 -2 -25 -7 -76
-9 -115 -8 -113 -73 -404 -95 -428 -11 -11 -98 48 -153 106 -73 76 -168 224
-242 377 -77 161 -106 242 -193 540 -36 124 -69 232 -74 240 -11 20 -11 -48 1
-170 5 -52 12 -142 15 -200 4 -58 9 -116 11 -130 2 -14 4 -135 4 -270 0 -250
-12 -393 -45 -521 -17 -67 -78 -201 -100 -219 -9 -8 -28 1 -71 33 -177 130
-345 502 -510 1127 -58 218 -62 209 -44 -83 18 -299 9 -471 -36 -674 -26 -121
-117 -313 -148 -313 -23 0 -107 60 -158 113 -68 71 -130 166 -187 289 -56 119
-86 209 -135 401 -19 75 -40 145 -45 155 -7 12 -11 -55 -11 -223 0 -132 -3
-267 -6 -300 -11 -133 -38 -295 -61 -375 -27 -94 -89 -231 -121 -270 l-21 -25
-76 75 c-125 123 -195 242 -237 404 -21 78 -22 107 -25 708 l-4 626 28 6 c15
3 53 8 83 12 205 25 363 127 501 325 161 230 240 308 383 378 93 45 162 59
337 67 230 10 361 43 467 115 178 123 224 146 347 175 99 23 260 12 375 -25z
m-4185 -781 c59 -85 109 -156 110 -158 2 -2 56 72 120 163 65 92 121 163 125
158 4 -4 27 -39 52 -78 57 -90 157 -213 200 -246 36 -28 92 -59 106 -59 5 0
15 21 22 48 17 60 43 112 67 134 18 16 21 13 81 -83 35 -56 61 -103 59 -105
-2 -2 -377 -3 -834 -2 l-830 3 64 103 c49 76 68 100 77 93 21 -18 64 -104 71
-144 4 -21 14 -41 21 -44 44 -17 188 121 299 288 38 55 71 96 75 92 4 -4 56
-78 115 -163z m1168 -129 c42 -44 77 -85 77 -91 0 -6 -32 -10 -78 -10 l-79 0
-12 53 c-6 28 -18 78 -26 110 l-13 57 27 -19 c15 -11 61 -56 104 -100z m-1984
97 c0 -7 -11 -53 -23 -103 l-23 -90 -82 -3 -83 -3 23 33 c30 42 167 178 179
178 6 0 10 -6 9 -12z m2369 -1830 l-3 -1523 -22 -56 c-58 -141 -154 -204 -368
-240 -43 -8 -203 -13 -415 -14 -391 -2 -388 -1 -545 -84 l-90 -48 -84 48 c-46
27 -121 61 -165 76 -75 25 -92 27 -221 25 -77 -1 -151 -4 -164 -7 -65 -12
-369 -6 -441 9 -164 35 -283 123 -332 244 l-23 57 -3 1518 -2 1517 1440 0
1440 0 -2 -1522z m-5993 -368 l0 -595 -34 -95 c-39 -110 -38 -169 3 -229 l24
-36 6 -820 c3 -451 8 -840 11 -865 3 -25 7 -178 7 -340 2 -323 -9 -439 -54
-559 l-24 -63 -27 158 c-34 198 -79 376 -156 616 -66 208 -94 328 -117 510
-19 158 -37 1288 -32 2127 l3 594 80 71 c44 39 130 120 190 181 l110 110 5
-85 c3 -47 5 -353 5 -680z m9309 605 c45 -44 113 -105 152 -137 l72 -56 7
-219 c8 -215 -2 -2176 -11 -2283 -17 -209 -28 -298 -45 -395 -25 -138 -34
-168 -125 -446 -74 -229 -116 -408 -130 -554 -4 -44 -9 -83 -10 -87 -1 -5 -2
-11 -3 -15 -4 -16 -30 45 -45 102 -29 113 -38 239 -36 520 1 154 4 303 7 330
3 28 7 775 7 1660 1 886 3 1642 4 1680 l2 70 37 -45 c20 -25 73 -81 117 -125z
m-9078 -76 c41 -96 79 -178 84 -183 12 -12 45 3 139 66 83 55 198 151 248 207
l32 36 3 -393 c2 -217 1 -397 -2 -401 -3 -5 -43 -11 -90 -14 -137 -9 -274 -70
-410 -181 -29 -25 -55 -44 -56 -43 -1 1 -4 101 -8 222 -4 121 -9 236 -11 255
-7 69 -18 615 -11 609 3 -3 40 -84 82 -180z m1558 -155 c26 -43 66 -101 89
-128 l43 -49 138 87 c76 48 141 84 144 82 14 -14 18 -332 16 -1191 -3 -1107
-4 -1188 -13 -1204 -11 -17 -173 165 -415 462 l-136 168 0 1027 0 1027 43
-101 c24 -55 65 -136 91 -180z m6706 207 c34 -38 92 -91 128 -119 79 -59 198
-126 211 -118 4 3 35 54 67 113 l59 107 2 -69 c2 -39 4 -216 5 -395 l3 -325
-85 85 c-59 60 -107 97 -157 123 -80 42 -203 77 -270 77 l-43 0 0 295 c0 177
4 295 9 295 6 0 37 -31 71 -69z m-1000 -682 c0 -398 0 -728 0 -732 0 -4 -46
17 -102 46 -352 185 -421 219 -439 214 -19 -5 -19 5 -19 469 l0 473 78 -52
c99 -68 207 -115 230 -101 30 19 147 202 198 308 27 57 50 102 52 101 1 -1 2
-328 2 -726z m-710 456 c1 -60 1 -335 0 -610 l0 -500 -101 -120 c-55 -66 -103
-123 -106 -128 -6 -10 48 -77 141 -175 l69 -73 -6 -247 c-4 -136 -7 -363 -7
-505 l0 -259 -52 46 c-63 55 -107 77 -215 106 -45 12 -87 28 -93 35 -13 16
-29 300 -30 555 -1 107 -1 495 -1 863 l1 667 53 -30 54 -30 20 23 c79 86 210
360 244 512 l13 60 7 -40 c4 -22 8 -89 9 -150z m-4389 108 c38 -121 220 -490
249 -508 5 -3 35 10 66 30 31 20 58 34 60 32 15 -15 24 -380 19 -822 -9 -830
-19 -1105 -49 -1237 l-11 -53 -110 -1 c-92 -1 -121 -5 -180 -27 -38 -14 -70
-25 -71 -24 -3 3 9 2647 12 2647 1 0 8 -17 15 -37z m5264 -44 c59 -90 152
-173 324 -289 l64 -43 24 29 c13 16 51 82 83 147 33 65 62 113 64 105 6 -19
22 -293 18 -311 -2 -8 -23 -20 -49 -26 -241 -61 -448 -332 -469 -615 -11 -136
14 -227 114 -429 2 -5 -41 15 -95 45 l-100 53 -6 419 c-8 458 -9 956 -3 956 2
0 16 -19 31 -41z m-6155 -815 l0 -807 -50 66 c-27 36 -59 92 -71 124 -27 72
-52 100 -101 114 -32 8 -49 24 -96 87 -31 42 -86 126 -121 186 -64 108 -64
108 -72 208 -6 70 -14 112 -29 141 -20 39 -21 61 -26 352 l-4 310 72 -148 c69
-142 73 -148 98 -142 72 18 237 139 335 248 33 36 61 66 63 66 1 1 2 -362 2
-805z m4673 553 l57 -53 0 -477 c0 -262 0 -652 0 -867 0 -814 1 -770 -13 -770
-25 0 -152 96 -207 156 -90 99 -171 239 -193 334 -5 22 0 28 34 43 68 32 145
112 184 190 64 130 65 141 65 855 0 353 4 642 8 642 5 0 34 -24 65 -53z
m-3172 -612 c0 -701 2 -736 59 -851 36 -73 102 -138 171 -166 27 -11 49 -26
49 -32 0 -24 -102 -211 -156 -286 -52 -73 -190 -218 -199 -209 -2 2 -6 478
-10 1056 l-8 1053 42 41 c23 23 44 40 46 37 3 -3 6 -292 6 -643z m5507 370
c130 -31 277 -128 346 -228 81 -117 112 -276 82 -417 -38 -181 -146 -328 -290
-396 -66 -31 -90 -37 -168 -42 -84 -5 -91 -4 -85 13 18 45 110 167 193 254
102 107 112 124 130 199 34 147 -37 299 -173 368 -51 26 -68 29 -148 29 -75 0
-98 -5 -139 -24 -84 -42 -137 -105 -185 -222 -49 -119 -89 -195 -137 -257
l-33 -44 -21 34 c-33 53 -43 106 -37 198 6 98 30 170 87 259 77 119 171 200
288 250 100 42 188 50 290 26z m-7698 -160 c96 -50 27 -240 -155 -420 -169
-170 -378 -274 -528 -263 -76 6 -107 35 -107 103 0 151 254 438 476 536 125
56 256 74 314 44z m261 -548 l133 -198 -29 -57 c-81 -155 -345 -353 -491 -368
l-49 -5 -150 176 c-82 97 -156 184 -163 194 -11 17 -6 20 62 45 152 56 303
172 466 359 48 55 68 72 76 63 6 -6 71 -100 145 -209z m7329 153 c101 -72 42
-278 -148 -517 l-42 -52 -62 36 c-77 44 -205 130 -212 141 -6 11 122 220 183
296 103 129 192 159 281 96z m-1314 -106 c52 -31 97 -61 100 -66 6 -9 -273
-388 -285 -388 -3 0 -48 42 -99 93 l-93 94 76 99 c66 85 192 224 203 224 2 0
46 -25 98 -56z m618 -333 c361 -206 535 -333 723 -531 l105 -110 -52 -97 c-47
-87 -203 -328 -220 -338 -9 -5 -300 112 -530 214 l-185 82 -99 97 c-54 53
-178 182 -277 286 l-178 188 19 38 c24 47 148 213 229 308 l62 72 151 -76 c83
-42 196 -101 252 -133z m1262 -383 c-4 -260 -7 -762 -6 -1116 l0 -643 -92 63
c-52 35 -139 109 -198 168 -159 159 -221 286 -255 518 -9 63 -15 115 -13 117
2 2 56 -19 121 -47 65 -28 119 -49 121 -47 2 2 72 111 156 242 l151 238 -35
44 c-58 70 -504 500 -580 557 l-69 53 102 7 c241 16 439 111 559 268 20 27 39
49 41 49 1 1 0 -212 -3 -471z m-8703 339 c83 -81 247 -322 247 -364 0 -12 7
-41 16 -63 13 -33 26 -44 74 -67 35 -17 73 -46 99 -76 l41 -48 0 -178 c0 -280
-35 -578 -86 -730 -46 -138 -134 -271 -257 -387 -75 -71 -205 -174 -221 -174
-6 0 -7 174 -3 433 4 237 7 721 7 1075 0 625 1 642 19 633 10 -6 39 -30 64
-54z m1298 -337 c205 -265 379 -480 550 -682 l116 -137 -19 -83 c-28 -116 -21
-203 21 -294 18 -38 44 -84 58 -102 l25 -33 -43 -41 c-88 -84 -237 -165 -355
-193 l-52 -13 -149 202 c-83 110 -241 327 -353 481 -244 335 -383 522 -502
671 -48 62 -88 114 -88 117 0 3 12 8 28 12 151 37 347 180 465 339 l51 69 33
-39 c17 -21 114 -145 214 -274z m5572 -130 c75 -74 137 -141 137 -149 0 -37
-244 -401 -269 -401 -11 0 -38 90 -51 170 -6 36 -13 180 -17 320 l-6 255 34
-30 c19 -16 96 -90 172 -165z m-3668 54 c69 -20 163 -22 460 -9 190 7 290 0
331 -24 7 -4 6 -37 -6 -111 -9 -58 -30 -185 -45 -284 l-28 -178 -38 5 c-56 7
-125 46 -171 95 -22 25 -62 89 -88 146 -74 155 -128 200 -312 260 -118 38
-143 49 -175 79 -28 25 -31 51 -5 43 9 -3 44 -13 77 -22z m2265 6 c0 -15 -39
-37 -110 -60 -36 -12 -108 -42 -160 -67 -133 -64 -213 -145 -260 -262 -52
-130 -109 -175 -247 -196 -39 -6 -41 -5 -47 22 -7 32 -56 475 -56 503 0 26 46
30 395 34 160 3 306 7 326 11 150 26 159 27 159 15z m-1036 -250 c4 -80 8
-176 11 -215 7 -95 13 -205 21 -362 l7 -133 -188 0 -187 0 6 48 c3 26 10 112
16 192 6 80 12 168 15 195 2 28 10 131 16 230 7 99 15 184 19 188 4 4 32 -2
62 -14 l56 -21 64 25 c34 14 66 23 69 19 4 -4 10 -72 13 -152z m4029 -107 c51
-42 93 -77 95 -78 9 -6 -204 -355 -216 -355 -15 -1 -232 96 -232 102 0 10 251
408 257 408 3 0 46 -35 96 -77z m-1303 -18 c35 -40 58 -55 117 -78 40 -16 73
-33 73 -38 0 -16 -76 -130 -234 -353 -428 -602 -561 -849 -560 -1041 0 -69 5
-90 31 -147 76 -161 231 -242 449 -232 172 7 374 76 526 177 76 51 158 123
147 130 -2 1 -40 10 -84 19 -89 18 -195 55 -195 68 0 12 348 183 525 258 171
73 242 98 250 90 11 -11 -77 -385 -139 -590 -38 -125 -93 -258 -107 -258 -9 0
-75 205 -84 263 l-6 39 -51 -74 c-232 -337 -446 -514 -715 -590 -110 -31 -277
-31 -388 1 -323 91 -701 479 -880 902 -73 172 -77 156 57 222 217 108 374 222
543 398 123 128 188 211 390 499 202 288 278 391 286 388 3 -2 26 -25 49 -53z
m-6363 -242 c60 -82 133 -183 162 -225 l54 -77 -5 -73 c-11 -168 -124 -294
-275 -306 l-53 -4 0 416 c0 229 2 416 4 416 2 0 53 -66 113 -147z m6914 -20
l232 -98 -6 -245 c-4 -135 -7 -262 -7 -282 0 -31 -4 -38 -20 -38 -38 0 -198
57 -267 95 -80 45 -197 159 -237 230 -31 57 -76 183 -76 215 0 21 128 219 142
220 4 0 112 -44 239 -97z m-4075 18 c22 -10 57 -38 77 -61 54 -64 73 -135 68
-257 l-1 -33 -60 0 c-40 0 -62 4 -64 13 -24 83 -38 106 -72 117 -69 23 -129
-14 -140 -86 l-6 -44 -74 0 -74 0 0 73 c0 90 12 132 53 193 62 93 192 131 293
85z m1420 -9 c46 -24 95 -74 119 -122 19 -38 32 -152 21 -194 -6 -25 -10 -26
-76 -26 -68 0 -70 1 -76 28 -19 87 -32 102 -89 102 -54 0 -88 -26 -111 -86
l-17 -45 -61 3 -61 3 0 90 c0 81 4 96 30 144 50 90 128 134 226 127 30 -2 73
-13 95 -24z m-2035 -13 c48 -24 103 -89 117 -138 7 -21 12 -70 12 -109 0 -81
-1 -82 -95 -82 l-62 0 -6 47 c-3 32 -12 53 -27 65 -27 22 -90 24 -129 3 -28
-14 -61 -68 -61 -99 0 -13 -11 -16 -54 -16 -62 0 -66 6 -66 100 0 124 83 222
215 253 34 9 118 -4 156 -24z m2635 16 c66 -19 126 -72 153 -135 17 -40 21
-66 19 -128 l-3 -77 -58 -3 c-40 -2 -58 1 -61 10 -2 7 -9 32 -15 56 -14 49
-50 72 -102 64 -43 -6 -61 -38 -68 -124 -1 -9 -152 -11 -175 -2 -21 8 -22 112
0 183 28 95 126 168 230 170 17 1 53 -6 80 -14z m-3259 -74 c79 -41 141 -133
150 -227 l6 -54 -39 -1 c-70 -2 -89 2 -115 27 -56 53 -162 17 -187 -63 -12
-37 -11 -51 6 -120 11 -43 18 -80 16 -82 -2 -2 -22 4 -45 14 -83 38 -149 148
-149 249 0 194 200 338 357 257z m3856 13 c51 -17 125 -78 169 -138 23 -32 28
-49 28 -97 0 -52 -4 -62 -44 -116 -53 -69 -152 -167 -141 -138 14 36 17 142 5
179 -14 43 -53 76 -90 76 -15 0 -44 -11 -64 -25 -31 -21 -48 -25 -112 -25
l-76 0 7 43 c15 90 68 179 131 218 64 39 119 46 187 23z m-2824 -442 c-4 -31
-18 -78 -30 -104 -12 -27 -20 -50 -17 -53 11 -11 100 16 138 41 44 29 77 69
109 132 l21 42 595 0 595 0 24 -49 c35 -69 72 -109 125 -136 52 -26 121 -42
121 -28 0 5 -13 52 -30 103 -16 52 -30 100 -30 105 0 6 34 9 87 8 49 -1 157
-2 242 -3 l153 0 -5 -32 c-3 -18 -9 -63 -13 -100 l-6 -67 38 12 c51 15 117 82
139 140 l18 47 188 0 189 0 0 -35 c0 -55 -36 -137 -77 -177 -50 -47 -186 -125
-243 -137 -64 -15 -2792 -15 -2897 0 -42 6 -104 21 -137 35 -58 23 -241 139
-265 167 -12 16 -15 35 -12 105 l1 42 160 0 c121 0 160 -3 160 -12 0 -23 71
-116 108 -142 21 -14 52 -29 70 -32 l32 -6 0 98 0 99 228 -3 229 -3 -8 -57z
m3850 -140 l204 -68 -84 -21 c-122 -31 -189 -58 -273 -113 -144 -94 -251 -223
-348 -419 -51 -105 -57 -113 -63 -88 -4 16 -5 67 -3 115 7 118 39 198 161 402
156 258 165 272 185 266 9 -3 109 -36 221 -74z m-4898 -100 c93 -25 169 -74
261 -172 l81 -84 -6 -96 c-15 -244 -117 -448 -343 -679 -82 -83 -95 -94 -107
-81 -14 14 -132 186 -420 611 l-126 186 113 42 c153 57 223 100 330 203 102
98 105 99 217 70z m5472 -97 c37 -10 67 -21 67 -25 0 -4 -33 -22 -72 -40 -40
-19 -201 -96 -358 -173 -157 -76 -300 -145 -317 -152 -18 -8 -33 -18 -33 -22
0 -5 78 -37 173 -72 94 -35 176 -67 180 -71 10 -9 -152 -80 -253 -112 -119
-36 -334 -31 -398 10 -30 20 53 196 155 330 131 171 342 309 525 342 75 13
251 5 331 -15z m-6836 0 c210 -40 383 -132 518 -276 68 -72 110 -134 155 -232
51 -110 70 -194 71 -313 2 -356 -267 -535 -650 -433 -40 11 -76 18 -78 15 -9
-8 36 -82 69 -113 118 -113 332 -170 540 -143 263 33 511 159 737 376 197 189
335 383 483 682 l91 182 1339 0 1339 0 89 -183 c210 -432 451 -700 773 -863
184 -93 362 -136 567 -135 141 0 274 27 370 76 65 33 145 106 159 146 6 17 7
29 3 27 -4 -2 -32 -16 -62 -32 -53 -28 -138 -56 -170 -56 -8 0 9 13 38 28 114
59 278 199 385 331 27 32 29 33 42 15 27 -36 83 -149 90 -184 13 -58 7 -167
-14 -253 -60 -253 -205 -401 -458 -468 -122 -33 -352 -37 -510 -10 -357 62
-654 203 -929 442 -178 155 -305 318 -474 609 -24 41 -59 99 -78 128 l-34 52
-1134 0 -1133 0 -56 -92 c-31 -51 -83 -139 -116 -195 -241 -413 -628 -734
-1059 -877 -265 -88 -572 -114 -776 -65 -86 20 -228 95 -291 153 -175 162
-232 450 -129 653 77 154 261 205 519 147 38 -9 71 -13 75 -9 4 4 9 44 11 91
8 211 -85 381 -245 445 -51 21 -76 24 -184 24 -103 0 -138 -4 -200 -23 -247
-78 -467 -268 -587 -507 -40 -78 -87 -226 -110 -345 -22 -117 -25 -414 -4
-530 100 -568 422 -1104 996 -1658 753 -728 1710 -1182 2763 -1311 214 -27
636 -35 882 -18 580 40 1237 220 1754 479 382 192 709 417 1021 705 180 166
463 457 570 586 306 369 488 725 570 1118 33 155 45 428 25 571 -36 265 -115
441 -274 605 l-88 92 43 178 c24 98 45 180 46 182 2 3 33 -16 71 -42 112 -77
323 -329 386 -463 102 -214 140 -432 126 -719 -48 -918 -415 -1692 -1120
-2360 -733 -695 -1846 -1196 -2955 -1331 -242 -29 -614 -39 -839 -21 -359 28
-740 108 -1141 242 -1067 355 -2037 1046 -2603 1854 -273 391 -446 804 -508
1216 -22 144 -25 498 -6 645 43 323 132 568 277 762 166 221 405 360 680 398
50 6 97 13 105 15 43 8 167 3 237 -10z m32 -480 c84 -46 134 -123 155 -235 l6
-36 -87 9 c-142 14 -248 5 -315 -25 -171 -79 -256 -220 -264 -438 -19 -572
496 -895 1194 -750 429 90 868 367 1165 735 101 125 220 306 272 415 l40 83
1068 -6 c588 -3 1070 -7 1072 -9 2 -2 57 -90 124 -197 141 -225 178 -272 381
-483 183 -191 282 -267 462 -357 250 -126 482 -187 753 -198 328 -13 589 70
760 242 87 87 119 138 162 260 26 76 28 90 29 266 l1 187 73 138 c40 77 75
141 77 143 6 8 55 -44 98 -104 216 -301 250 -733 94 -1200 -120 -361 -369
-722 -798 -1159 -313 -318 -590 -532 -971 -751 -589 -339 -1205 -538 -1880
-609 -181 -19 -699 -19 -880 0 -647 68 -1261 261 -1823 572 -805 446 -1479
1156 -1751 1842 -56 144 -90 261 -118 410 -18 93 -22 150 -22 305 1 173 3 199
27 290 75 282 257 515 494 632 98 48 162 63 263 60 72 -3 93 -7 139 -32z
m1010 -483 c57 -85 100 -160 97 -167 -10 -28 -124 -108 -221 -155 -103 -51
-216 -84 -320 -95 l-60 -6 75 38 c100 50 200 148 239 235 33 72 59 180 62 253
2 55 7 71 19 58 4 -4 53 -77 109 -161z"/>
<path d="M7775 14540 c-16 -18 -40 -108 -31 -118 5 -4 136 70 136 78 0 5 -75
60 -83 60 -2 0 -12 -9 -22 -20z"/>
<path d="M5982 13043 c-72 -143 -281 -957 -270 -1051 3 -24 7 -18 36 41 96
197 303 817 327 979 7 44 6 46 -26 57 -45 16 -46 15 -67 -26z"/>
<path d="M6569 12853 c-57 -145 -180 -793 -178 -938 l0 -60 21 45 c75 166 258
822 258 925 0 19 -8 28 -36 40 -49 20 -53 19 -65 -12z"/>
<path d="M7247 12593 c-43 -155 -85 -468 -113 -835 -22 -300 135 222 200 662
28 188 28 200 0 211 -69 25 -70 25 -87 -38z"/>
<path d="M7937 12413 c-4 -5 -15 -72 -26 -149 -35 -241 -54 -530 -42 -634 l6
-55 22 57 c52 135 115 450 138 696 5 60 5 63 -20 72 -46 18 -73 22 -78 13z"/>
<path d="M8642 12098 c-41 -250 -67 -602 -53 -718 l6 -55 16 40 c39 94 110
407 144 635 22 139 22 136 -32 154 -26 9 -52 16 -58 16 -6 0 -16 -32 -23 -72z"/>
<path d="M14820 13066 c-25 -7 -44 -18 -43 -24 2 -6 35 -127 74 -269 118 -431
215 -699 277 -773 l21 -25 1 36 c1 93 -73 407 -168 714 -27 88 -62 204 -77
258 -15 53 -30 97 -34 96 -3 -1 -26 -7 -51 -13z"/>
<path d="M14228 12868 c-46 -12 -46 -15 -18 -162 53 -271 233 -846 266 -846
10 0 -7 151 -37 327 -55 326 -141 694 -163 692 -6 -1 -28 -6 -48 -11z"/>
<path d="M13545 12636 l-40 -12 3 -59 c7 -173 144 -789 197 -883 14 -25 15
-19 13 88 -1 140 -10 239 -44 480 -33 239 -66 401 -82 399 -4 0 -25 -6 -47
-13z"/>
<path d="M12865 12406 l-40 -12 1 -65 c4 -151 126 -739 154 -739 21 0 21 234
0 420 -26 236 -53 410 -64 409 -6 0 -29 -6 -51 -13z"/>
<path d="M12141 12163 l-43 -15 7 -77 c16 -181 99 -587 141 -691 l18 -45 8 40
c22 113 -44 806 -76 804 -6 0 -31 -8 -55 -16z"/>
<path d="M9067 12563 c-3 -5 -8 -622 -12 -1373 -5 -1022 -4 -1386 5 -1450 21
-155 65 -241 145 -287 80 -45 219 -52 592 -31 293 17 432 -5 560 -85 l39 -25
24 21 c14 11 54 33 89 50 79 37 172 46 381 34 80 -4 237 -6 350 -4 173 4 217
8 280 26 98 29 132 51 179 117 64 89 65 100 58 644 -4 267 -10 904 -13 1415
-3 512 -7 936 -10 943 -3 9 -278 12 -1333 12 -731 0 -1332 -3 -1334 -7z m1360
-223 c12 0 14 -8 10 -35 -3 -19 -4 -35 -2 -35 2 0 10 -3 19 -6 11 -4 16 -1 16
10 0 11 9 16 26 16 21 0 24 -4 19 -20 -4 -13 -1 -22 9 -26 25 -10 19 -19 -20
-33 -36 -13 -58 -48 -43 -67 5 -6 6 -14 2 -17 -3 -4 3 -7 15 -7 15 0 20 -4 15
-16 -4 -12 -1 -15 13 -12 14 3 18 11 16 30 -2 19 8 35 40 63 24 21 53 54 64
72 16 26 23 30 27 19 4 -9 -5 -29 -21 -48 -26 -31 -16 -31 21 0 15 13 17 13
17 1 0 -8 -6 -21 -12 -28 -11 -10 -9 -11 7 -5 18 7 19 6 6 -10 -12 -14 -12
-19 -2 -26 10 -6 9 -10 -5 -19 -18 -10 -18 -10 1 -11 14 0 16 -3 8 -11 -6 -6
-9 -18 -6 -25 3 -8 -1 -14 -8 -14 -11 0 -11 -3 1 -10 13 -8 13 -10 -2 -10 -12
0 -15 -5 -11 -17 5 -12 2 -15 -10 -10 -12 4 -14 2 -10 -10 5 -12 2 -15 -10
-10 -10 4 -17 2 -17 -4 0 -6 -6 -9 -14 -6 -8 3 -17 1 -20 -6 -5 -9 -7 -9 -12
1 -5 10 -9 10 -20 1 -11 -9 -16 -5 -24 17 -9 23 -13 25 -20 14 -17 -26 -11
-50 15 -60 29 -11 34 -45 8 -55 -17 -6 -17 -7 1 -21 19 -13 19 -14 -6 -14 -21
0 -28 6 -33 31 -8 35 -38 37 -43 2 -2 -16 5 -26 28 -38 17 -9 34 -13 39 -11 5
3 9 -5 9 -19 0 -23 -17 -37 -48 -39 -11 -1 -15 -15 -16 -53 0 -29 -7 -59 -14
-68 -11 -13 -9 -15 13 -15 14 0 28 -3 30 -7 3 -5 -2 -37 -11 -72 -14 -59 -14
-72 2 -175 14 -85 16 -120 8 -151 -6 -22 -8 -68 -6 -102 2 -35 0 -73 -5 -85
-5 -13 -5 -31 -2 -41 6 -16 19 -7 86 55 44 40 134 120 200 177 223 194 378
355 359 374 -9 9 -76 -13 -122 -40 -36 -20 -43 -29 -38 -47 4 -17 -5 -30 -49
-64 -96 -75 -105 -69 -67 47 22 69 30 81 45 77 15 -4 119 61 147 91 11 13 -95
-8 -135 -26 -35 -15 -43 -23 -38 -39 3 -15 -1 -22 -19 -27 -12 -4 -47 -23 -76
-42 -29 -18 -57 -31 -62 -28 -11 7 1 48 35 115 30 59 45 74 59 60 5 -5 24 3
45 21 41 32 135 69 178 69 84 0 169 -58 198 -133 13 -35 24 -45 61 -61 86 -35
143 -107 144 -180 0 -40 -35 -110 -70 -139 -15 -13 -28 -32 -27 -42 2 -14 -16
-23 -82 -42 -51 -15 -87 -21 -93 -15 -6 6 10 33 42 71 37 44 56 60 72 58 23
-2 40 22 52 78 6 27 2 24 -49 -32 -42 -47 -69 -67 -111 -82 -55 -21 -114 -28
-114 -13 0 17 110 122 127 122 32 0 62 41 68 92 6 54 -3 65 -42 44 -34 -17
-688 -636 -688 -651 0 -5 110 -115 245 -244 135 -129 275 -264 312 -299 66
-64 73 -67 110 -40 14 10 21 9 37 -6 19 -17 22 -17 83 17 96 53 101 53 122 11
9 -20 16 -38 14 -39 -2 -1 -34 -19 -73 -39 -76 -40 -133 -82 -123 -91 3 -3 26
0 50 6 41 11 50 10 94 -12 66 -33 89 -67 89 -134 0 -48 -4 -58 -34 -89 -19
-20 -50 -41 -68 -47 -68 -22 -149 16 -183 87 -19 39 -21 51 -12 87 6 23 9 44
6 47 -9 8 -71 -70 -104 -132 -17 -32 -33 -58 -35 -58 -11 0 -61 26 -67 34 -7
10 25 77 61 130 l19 29 -21 18 -22 17 22 30 22 30 -97 93 c-53 51 -186 177
-294 281 l-197 189 6 -173 c3 -102 1 -196 -5 -228 -6 -30 -7 -57 -4 -60 10 -7
12 -213 2 -225 -5 -6 -2 -35 6 -65 9 -31 13 -74 10 -100 -3 -25 -6 -58 -6 -74
1 -39 -16 -56 -55 -56 -60 0 -59 -1 -56 368 1 83 5 152 10 152 5 0 5 16 0 38
-11 44 -12 268 -3 367 l7 70 -259 -255 c-232 -228 -332 -321 -433 -400 -31
-24 -32 -27 -20 -58 33 -95 -79 -209 -183 -187 -41 9 -105 69 -113 106 -24
108 92 216 193 179 40 -14 28 -22 109 77 29 36 110 114 516 496 81 76 147 142
147 146 0 7 -737 714 -750 719 -13 5 -30 -58 -30 -108 0 -65 38 -186 53 -171
18 18 24 13 42 -33 9 -24 30 -57 46 -72 29 -28 38 -54 19 -54 -6 0 -49 9 -95
21 -77 19 -108 40 -85 54 6 4 -1 21 -15 39 -13 17 -36 58 -51 90 -31 68 -39
174 -22 293 9 58 8 81 -4 118 -16 47 -10 63 20 48 9 -4 105 -8 212 -8 191 0
196 -1 253 -27 32 -15 71 -36 86 -47 16 -12 36 -18 48 -15 18 5 23 -2 36 -48
26 -89 29 -107 23 -124 -5 -13 -13 -9 -46 19 -22 18 -58 39 -80 46 -38 11 -53
35 -28 43 24 8 -87 39 -157 44 -46 4 -83 1 -108 -8 l-39 -14 316 -302 c375
-360 375 -360 386 -342 5 8 4 22 -1 33 -6 10 -10 53 -9 95 1 42 -1 97 -5 122
-4 26 0 80 8 126 15 84 14 147 -3 198 -16 47 -13 56 22 56 30 0 31 1 14 19
-12 13 -17 32 -15 58 3 43 -6 64 -24 58 -18 -6 -48 20 -42 37 3 8 21 20 39 26
46 17 62 78 18 70 -10 -2 -17 -13 -17 -28 0 -21 -6 -26 -39 -31 -21 -3 -42
-12 -46 -19 -11 -19 -27 -4 -32 29 l-4 30 25 -18 c19 -14 32 -16 49 -10 25 9
21 29 -5 29 -10 0 -13 6 -9 16 3 9 6 20 6 25 0 5 9 9 20 9 16 0 20 7 20 30 0
36 -24 41 -35 8 l-7 -23 -7 25 -7 25 -8 -25 c-4 -14 -10 -20 -12 -13 -3 7 -12
9 -20 6 -9 -3 -14 1 -14 12 0 14 -3 15 -15 5 -19 -16 -68 19 -55 40 5 9 4 20
-2 27 -8 10 -7 13 3 13 9 1 8 5 -5 15 -19 14 -19 15 -2 15 15 0 16 3 6 15 -10
12 -10 15 1 15 10 0 10 3 1 12 -15 15 -16 32 -1 22 7 -4 7 1 -1 16 -17 32 -4
37 28 9 l27 -24 -22 26 c-13 14 -23 36 -22 50 0 23 1 23 12 4 7 -11 37 -46 68
-77 45 -46 55 -62 51 -83 -3 -21 0 -25 18 -25 16 0 20 4 16 15 -3 9 0 15 10
15 8 0 12 5 9 10 -3 6 -1 10 4 10 13 0 14 30 2 48 -4 7 -25 19 -46 26 -36 13
-37 14 -18 25 15 7 20 17 16 31 -4 16 0 20 21 20 16 0 26 -5 26 -15 0 -19 14
-19 29 -1 8 10 9 16 1 21 -17 11 -11 37 10 42 11 3 20 10 21 17 0 7 2 6 6 -1
2 -7 12 -13 20 -13z m-158 -42 c-1 -18 -2 -19 -6 -5 -6 25 -28 15 -27 -12 0
-15 -5 -21 -20 -20 -12 0 -15 3 -8 6 6 2 9 10 6 15 -8 12 22 38 43 38 7 0 12
-10 12 -22z m308 10 c19 -25 22 -46 7 -52 -11 -4 -14 1 -12 21 2 14 -3 28 -9
30 -8 3 -13 -5 -14 -19 0 -21 -1 -22 -8 -3 -5 11 -7 23 -4 28 7 11 30 8 40 -5z
m-367 -372 c0 -12 -5 -7 -19 24 -11 24 -11 24 3 6 9 -11 16 -24 16 -30z m418
-22 c4 -30 -30 -56 -63 -48 -15 4 -23 9 -18 13 5 3 14 19 21 34 15 34 55 35
60 1z"/>
<path d="M9455 10106 c-73 -32 -72 -136 3 -172 29 -13 41 -14 73 -5 47 14 69
44 69 93 0 40 -9 51 -30 38 -21 -13 -44 8 -29 27 7 7 10 16 7 18 -12 13 -66
13 -93 1z"/>
<path d="M11279 10113 c-11 -3 -15 -12 -11 -30 4 -23 2 -25 -21 -21 -45 9 -52
-53 -11 -101 50 -59 133 -49 167 21 16 33 17 40 3 72 -21 50 -73 74 -127 59z"/>
<path d="M6418 10399 c-101 -24 -258 -131 -323 -219 -34 -46 -73 -136 -63
-146 12 -11 120 19 186 53 127 63 262 209 274 293 4 29 -15 34 -74 19z"/>
<path d="M9030 5930 l0 -410 183 0 c139 0 196 4 237 16 127 38 190 120 190
248 0 158 -93 236 -302 253 l-78 6 0 58 0 59 160 0 160 0 0 90 0 90 -275 0
-275 0 0 -410z m308 -66 c45 -9 72 -39 72 -80 0 -19 -4 -44 -10 -54 -12 -22
-60 -40 -106 -40 l-34 0 0 90 c0 100 0 100 78 84z"/>
<path d="M9780 5930 l0 -410 115 0 115 0 0 320 0 320 160 0 160 0 0 90 0 90
-275 0 -275 0 0 -410z"/>
<path d="M10410 6250 l0 -90 100 0 100 0 0 -320 0 -320 115 0 115 0 0 320 0
320 100 0 100 0 0 90 0 90 -315 0 -315 0 0 -90z"/>
<path d="M11083 6328 c3 -7 62 -138 131 -290 69 -152 126 -283 126 -291 0 -20
-37 -56 -66 -63 -26 -7 -119 1 -148 12 -14 5 -16 -6 -16 -84 l0 -91 33 -5 c87
-14 132 -16 193 -6 116 19 184 69 242 178 29 55 282 635 282 646 0 3 -54 6
-119 6 -104 0 -120 -2 -126 -17 -33 -85 -114 -315 -120 -340 -10 -50 -20 -47
-38 10 -9 29 -43 117 -75 197 l-59 145 -123 3 c-96 2 -121 0 -117 -10z"/>
<path d="M8574 5280 c-68 -22 -141 -79 -181 -142 -33 -53 -63 -176 -63 -257 1
-200 83 -345 229 -402 81 -32 260 -33 345 -2 141 53 213 161 230 348 21 223
-74 403 -241 455 -87 27 -233 27 -319 0z m208 -170 c83 -24 126 -125 114 -270
-11 -133 -65 -200 -161 -200 -102 0 -155 68 -163 209 -11 195 73 299 210 261z"/>
<path d="M7580 4876 l0 -416 183 0 c108 0 207 6 243 13 126 27 203 100 212
202 9 107 -23 170 -102 206 -40 18 -40 18 -16 27 27 11 72 55 87 87 35 69 20
165 -33 218 -60 60 -110 70 -356 75 l-218 4 0 -416z m347 233 c35 -13 43 -25
43 -66 0 -42 -34 -65 -106 -71 l-54 -4 0 76 0 76 44 0 c25 0 57 -5 73 -11z
m40 -334 c30 -35 30 -79 -2 -110 -21 -22 -33 -25 -90 -25 l-65 0 0 86 0 87 67
-6 c57 -4 71 -9 90 -32z"/>
<path d="M9280 4875 l0 -415 248 2 247 3 0 90 0 90 -132 3 -133 3 0 74 0 75
125 0 125 0 0 90 0 90 -125 0 -125 0 0 65 0 65 133 0 133 0 3 90 2 90 -251 0
-250 0 0 -415z"/>
<path d="M9912 4878 l3 -413 113 -3 112 -3 0 171 0 170 130 0 130 0 0 -170 0
-171 113 3 112 3 3 413 2 412 -115 0 -115 0 0 -155 0 -155 -130 0 -130 0 0
155 0 155 -115 0 -115 0 2 -412z"/>
<path d="M10800 4875 l0 -415 101 0 101 0 -3 289 c-2 159 -3 289 -3 288 1 -1
30 -101 64 -222 34 -121 70 -251 81 -288 l20 -68 107 3 107 3 76 272 c42 149
79 278 82 285 2 7 4 -115 3 -272 l-1 -285 103 -3 102 -3 0 416 0 415 -149 0
-148 0 -56 -192 c-31 -106 -68 -237 -83 -291 -16 -54 -31 -92 -35 -85 -3 7
-32 101 -64 208 -31 107 -68 232 -81 278 l-25 82 -150 0 -149 0 0 -415z"/>
<path d="M11920 4875 l0 -415 245 0 245 0 0 95 0 95 -135 0 -135 0 0 75 0 75
125 0 125 0 0 90 0 90 -125 0 -125 0 0 65 0 65 135 0 135 0 0 90 0 90 -245 0
-245 0 0 -415z"/>
<path d="M12493 5267 c68 -105 229 -360 233 -372 4 -9 -46 -95 -121 -211 -69
-107 -129 -202 -132 -210 -4 -12 16 -14 119 -14 l125 0 77 125 c43 69 82 123
86 120 5 -3 42 -59 82 -125 l73 -120 129 0 c99 0 127 3 123 13 -2 7 -52 80
-109 162 -58 83 -117 169 -132 192 l-28 42 38 63 c21 35 75 123 121 196 47 74
87 140 90 148 4 12 -17 14 -121 14 -119 0 -126 -1 -140 -22 -7 -13 -39 -70
-71 -127 l-57 -103 -74 126 -75 126 -125 0 -126 0 15 -23z"/>
<path d="M9302 4146 c-16 -87 -50 -176 -67 -176 -18 0 -23 -21 -25 -102 l-1
-68 45 0 46 0 0 44 0 45 43 3 c23 2 63 1 90 0 l47 -4 0 -44 0 -44 40 0 40 0 0
85 c0 47 -3 84 -7 84 -31 -5 -33 3 -33 115 0 82 -4 115 -12 119 -7 2 -54 5
-103 6 l-90 2 -13 -65z m128 -96 l0 -80 -46 0 c-40 0 -45 2 -39 18 4 9 14 45
22 80 14 54 19 62 39 62 23 0 24 -3 24 -80z"/>
<path d="M9830 4190 c0 -15 -7 -20 -24 -20 -72 0 -120 -56 -113 -129 6 -56 39
-91 95 -98 36 -5 42 -9 42 -29 0 -21 5 -24 40 -24 36 0 40 3 40 25 0 20 5 25
25 25 60 0 115 55 115 115 0 60 -55 115 -115 115 -18 0 -25 5 -25 20 0 17 -7
20 -40 20 -33 0 -40 -3 -40 -20z m0 -141 c0 -51 -6 -57 -32 -36 -26 20 -29 56
-7 78 28 28 39 16 39 -42z m130 6 c0 -31 -20 -55 -44 -55 -8 0 -8 95 0 103 16
16 44 -15 44 -48z"/>
<path d="M10240 4206 c0 -2 23 -54 50 -116 28 -61 48 -115 45 -121 -4 -5 -24
-9 -46 -9 -39 0 -40 -1 -37 -32 3 -32 5 -33 53 -36 82 -4 103 16 164 154 28
65 54 128 58 141 5 23 3 24 -38 21 l-44 -3 -25 -67 c-14 -37 -27 -68 -30 -68
-3 0 -17 30 -31 68 l-26 67 -47 3 c-25 2 -46 1 -46 -2z"/>
<path d="M8350 4013 l0 -124 47 3 c47 3 49 5 89 65 22 35 43 65 45 68 3 2 5
-26 5 -63 l-1 -67 38 -3 37 -3 0 124 0 123 -44 3 -45 2 -45 -68 c-26 -37 -46
-63 -47 -58 0 6 -1 35 -2 65 l-2 55 -37 1 -38 1 0 -124z"/>
<path d="M8664 4126 c-3 -8 -4 -63 -2 -122 l3 -109 37 -3 37 -3 3 78 3 78 23
-72 c19 -60 27 -74 48 -79 32 -8 35 -5 61 69 22 65 24 64 26 -18 l2 -50 38 -3
37 -3 0 125 0 126 -54 0 -55 0 -23 -71 -22 -71 -24 71 -24 71 -54 0 c-37 0
-56 -4 -60 -14z"/>
<path d="M10605 4131 c-40 -18 -59 -50 -63 -111 -4 -57 -3 -61 31 -95 28 -28
43 -35 75 -35 69 0 92 14 92 55 0 33 -2 35 -20 25 -12 -6 -35 -10 -53 -8 -31
3 -32 4 -32 53 l0 50 45 0 c39 0 46 3 54 27 5 15 7 31 3 34 -11 11 -110 15
-132 5z"/>
<path d="M10765 4130 c-4 -6 -4 -22 -1 -36 5 -20 13 -24 41 -24 l34 0 3 -87 3
-88 40 0 40 0 3 88 3 87 40 0 c39 0 40 1 37 33 l-3 32 -117 3 c-76 2 -119 -1
-123 -8z"/>
<path d="M11047 4133 c-6 -6 -10 -232 -4 -234 1 0 22 -2 47 -5 l45 -4 47 72
48 73 0 -72 0 -73 35 0 35 0 0 125 0 125 -44 0 c-43 0 -44 -1 -87 -67 l-44
-67 -3 67 -3 67 -33 0 c-18 0 -36 -3 -39 -7z"/>
<path d="M11360 4015 l0 -125 40 0 40 0 0 45 c0 45 0 45 35 45 35 0 35 0 35
-45 l0 -45 40 0 40 0 0 125 0 125 -40 0 -40 0 0 -45 c0 -45 0 -45 -35 -45 -35
0 -35 0 -35 45 l0 45 -40 0 -40 0 0 -125z"/>
<path d="M11689 4125 c-62 -34 -71 -145 -15 -201 28 -28 42 -34 75 -34 57 0
100 24 117 65 40 97 -14 186 -113 185 -21 -1 -50 -7 -64 -15z m85 -61 c31 -31
18 -104 -19 -104 -18 0 -25 7 -30 30 -7 33 2 71 19 82 14 10 12 10 30 -8z"/>
<path d="M11928 4134 c-5 -4 -8 -58 -8 -120 0 -90 3 -113 15 -118 8 -3 54 -4
101 -3 80 2 88 4 110 30 29 34 30 48 5 78 -16 19 -16 25 -5 37 20 20 17 56 -7
78 -16 14 -40 19 -112 22 -51 2 -95 1 -99 -4z m142 -69 c0 -10 -10 -15 -30
-15 -20 0 -30 5 -30 15 0 10 10 15 30 15 20 0 30 -5 30 -15z m5 -95 c0 -10
-12 -16 -32 -18 -28 -3 -33 0 -33 18 0 18 5 21 33 18 20 -2 32 -8 32 -18z"/>
<path d="M12248 4128 c-27 -9 -27 -10 -13 -38 14 -27 17 -28 45 -18 32 11 60
5 60 -12 0 -5 -13 -10 -29 -10 -41 0 -90 -19 -101 -40 -16 -31 -11 -79 10
-100 24 -24 77 -26 108 -4 22 15 24 15 36 -1 7 -10 22 -16 37 -13 23 3 24 6
27 87 3 95 -8 133 -44 150 -30 13 -99 13 -136 -1z m92 -147 c0 -17 -18 -31
-41 -31 -10 0 -12 33 -2 43 14 15 43 7 43 -12z"/>
<path d="M9034 3956 c-3 -8 -4 -25 -2 -38 2 -19 9 -23 37 -23 66 0 68 67 2 73
-21 2 -33 -2 -37 -12z"/>
<path d="M9591 3948 c-13 -33 4 -58 39 -58 36 0 56 30 40 60 -16 29 -68 27
-79 -2z"/>
<path d="M10070 3955 c-10 -12 -10 -21 -1 -41 9 -21 17 -25 44 -22 29 3 32 6
32 38 0 32 -3 35 -31 38 -19 2 -36 -3 -44 -13z"/>
</g>
</svg>
