<?xml version="1.0" encoding="UTF-8"?>
<!DOCTYPE svg PUBLIC "-//W3C//DTD SVG 1.1//EN" "http://www.w3.org/Graphics/SVG/1.1/DTD/svg11.dtd">
<!-- Creator: CorelDRAW X8 -->
<svg xmlns="http://www.w3.org/2000/svg" xml:space="preserve" width="200mm" height="200mm" version="1.1" style="shape-rendering:geometricPrecision; text-rendering:geometricPrecision; image-rendering:optimizeQuality; fill-rule:evenodd; clip-rule:evenodd"
viewBox="0 0 20000 20000"
 xmlns:xlink="http://www.w3.org/1999/xlink">
 <defs>
  <style type="text/css">
   <![CDATA[
    .fil9 {fill:#21201E}
    .fil0 {fill:#221E1F}
    .fil11 {fill:#222021}
    .fil12 {fill:#22211F}
    .fil20 {fill:#222222}
    .fil3 {fill:#231F1D}
    .fil5 {fill:#231F20}
    .fil19 {fill:#242424}
    .fil32 {fill:#2A2728}
    .fil27 {fill:#363535}
    .fil18 {fill:#595656}
    .fil21 {fill:#5C5B5B}
    .fil33 {fill:#646363}
    .fil10 {fill:#898787}
    .fil25 {fill:#CCCBCB}
    .fil28 {fill:#D2D0CF}
    .fil31 {fill:#DEDCDC}
    .fil30 {fill:#E2E0DE}
    .fil23 {fill:#E4E3E3}
    .fil29 {fill:#E9E6E6}
    .fil24 {fill:#E9E8E7}
    .fil22 {fill:#F0F0EF}
    .fil26 {fill:#F5F5F3}
    .fil16 {fill:#F8F8F6}
    .fil17 {fill:#F9F7F8}
    .fil6 {fill:#F9F9F7}
    .fil13 {fill:#FAFAFA}
    .fil15 {fill:#FBF8FA}
    .fil14 {fill:#FBFAF7}
    .fil8 {fill:#FBFBFB}
    .fil7 {fill:#FCFCFC}
    .fil2 {fill:#FDFDFD}
    .fil4 {fill:#FEFEFE}
    .fil1 {fill:white}
    .fil34 {fill:black;fill-rule:nonzero}
   ]]>
  </style>
 </defs>
 <g id="Layer_x0020_1">
  <metadata id="CorelCorpID_0Corel-Layer"/>
  <g id="_2710171193344">
   <g>
    <path class="fil0" d="M7065 14609c187,-143 191,-430 210,-639l267 398c-80,89 -360,247 -477,241zm-45 -1289c342,-125 378,-134 624,-388 253,8 337,48 481,239 36,418 -197,799 -625,857l-480 -708zm847 -714l366 -1c68,85 122,216 246,229l-18 -230 554 0c-4,130 -52,155 -75,257 184,5 246,-163 325,-257l1374 0c65,151 136,232 315,263l-79 -262 566 0 -27 231c129,-26 176,-118 235,-232l430 5c-4,255 -146,289 -255,359 -152,98 -377,57 -558,57l-2443 0c-492,0 -574,52 -963,-258l7 -161zm-2096 -733c62,46 396,509 444,600 -47,146 -295,363 -445,434l1 -1034zm4084 -392c55,11 113,44 165,38 54,-6 67,-41 139,-45l56 1016 -435 -1 75 -1008zm2045 1032c10,-289 276,-475 491,-281 281,252 1,380 -123,549 25,-80 66,-194 17,-274 -82,-135 -215,11 -216,12l-169 -6zm-4268 282c-255,-60 -322,-398 -128,-567 216,-188 486,-2 487,290 -95,0 -122,16 -195,-28 -52,-33 -63,-67 -148,-13 -116,72 -43,217 -16,318zm7776 1007c-148,-239 -99,-899 -90,-1203 14,-437 14,-868 14,-1305 0,-454 -24,-2320 5,-2606 58,76 134,168 198,231 74,73 176,124 243,206 36,816 5,1703 5,2527 0,1321 -302,1218 -375,2150zm-4197 -1317c-103,-568 696,-543 568,5l-135 2c-25,-76 -33,-136 -127,-148 -136,-16 -128,53 -120,153l-186 -12zm-730 9c-96,-593 675,-552 567,-1l-166 -1c-17,-250 -184,-139 -222,-78 -46,75 26,83 -179,80zm-1637 1c-89,-557 640,-603 568,1l-151 -4c-26,-84 -33,-143 -145,-145 -139,-3 -79,77 -121,150l-151 -2zm-728 -8c-135,-520 663,-590 566,-8 -71,27 -116,20 -191,11 17,-98 28,-160 -109,-147 -106,11 -99,87 -147,155l-119 -11zm-3238 -1642c118,28 253,231 344,322 35,36 125,148 141,196 60,183 59,77 159,178 50,230 1,914 -83,1149 -55,153 -132,279 -228,404 -45,60 -258,241 -337,252l4 -2501zm-658 -1730c266,-248 121,-78 445,-425 28,1301 -25,2636 15,3931 11,342 62,890 -86,1180 -150,-1090 -379,-884 -379,-2170 0,-595 -26,-2023 5,-2516zm3210 -146c63,99 86,258 142,376 43,91 122,222 185,310l112 -67c46,266 10,934 10,1242 0,267 39,1011 -33,1217 -85,7 -135,-21 -233,-4 -83,15 -115,49 -187,76l4 -3150zm5415 3102c-114,-177 -92,-636 -95,-854 117,69 301,287 412,393 -18,68 -263,420 -317,461zm-7233 -658c527,-216 353,-196 641,-493 354,460 686,889 1061,1320 -24,144 -73,178 -36,348 31,140 84,142 129,243 -104,131 -348,267 -521,286 -79,-64 -516,-714 -625,-863l-649 -841zm4726 -9c395,-32 549,8 1034,-48 -18,55 -11,47 -125,83 -562,177 -407,418 -554,504 -42,24 -92,28 -146,63 -51,33 -57,61 -112,78l-97 -680zm-1711 -26c63,-35 26,-20 112,-3 263,53 634,-24 936,46l-105 663c-314,-28 -343,-329 -410,-412 -156,-192 -392,-183 -533,-294zm2834 -79c334,-252 320,-410 320,-827 0,-319 -30,-836 6,-1130 195,74 139,359 139,541 0,645 18,1430 -2,2043 -191,-92 -428,-402 -463,-627zm-3390 -1458c0,-270 -64,-359 151,-516 7,380 1,766 1,1147 0,702 92,560 318,843 -64,194 -279,547 -470,609l0 -2083zm-860 2032c-47,-30 -601,-667 -617,-750l1 -2303c100,144 138,419 316,541l330 -207c41,379 6,979 6,1382 0,373 37,993 -36,1337zm7101 -544l79 -5c23,-70 1,-46 76,-76l0 -123 217 -56c278,-84 322,-227 439,-322l-5 2607c-94,-46 -170,-130 -258,-172 -84,82 13,24 -97,63 -137,47 0,34 -54,36 286,342 540,503 642,1107 228,1344 -836,2590 -1833,3349 -1541,1175 -3612,1500 -5442,852 -1447,-513 -3225,-1925 -3433,-3537 -120,-934 391,-2005 1442,-2002 855,1 1259,1104 795,1418 -289,197 -552,-10 -659,29 140,453 1473,646 2224,-1135l3111 0 101 198c41,-43 36,-17 53,-115l4 41c39,106 -32,33 37,31l12 -53 -44 -169c285,-254 249,20 886,-684 195,-216 579,-808 661,-880 78,61 78,115 166,136l74 -116c-192,-142 -518,-483 -680,-663 42,-103 290,-423 377,-475 335,148 881,467 1109,716zm-5971 -499c-55,-91 -25,-1475 -25,-1705 0,-245 -26,-1596 15,-1725l3345 7c36,143 13,671 13,854 0,401 29,2457 -22,2556 -35,632 -822,442 -1213,486 -147,16 -339,119 -452,118 -108,-1 -308,-101 -453,-117 -162,-18 -389,-6 -558,-6 -316,1 -631,-110 -650,-468zm-3264 -38c348,-95 500,-298 717,-537l331 490c-64,209 -420,493 -653,507l-395 -460zm8837 0c33,-86 153,-240 213,-322 77,-107 187,-230 332,-116 216,168 -125,477 -218,648 -129,-60 -130,-152 -327,-210zm-1393 -25c79,-102 222,-278 326,-355l223 128 -330 439c-65,-23 -38,-9 -120,-92 -46,-47 -68,-62 -99,-120zm-288 -1114c135,-146 310,-535 325,-727 42,174 14,818 14,1041 0,764 44,420 -232,800 46,97 157,169 232,252l-4 1221c-206,-241 -213,-133 -429,-221 -59,-186 -23,-2071 -21,-2422 66,2 54,19 115,56zm865 -299c166,-129 235,-453 309,-526l1 1729c-82,-19 -264,-127 -347,-175 -359,-206 -221,-91 -309,-120l-2 -1104c115,58 220,157 348,196zm-7613 516c566,-106 6,708 -506,801 -552,99 -16,-703 506,-801zm8390 704c-297,-381 347,-1230 972,-756 422,321 295,977 -204,1126 -72,21 -139,41 -202,8 142,-257 300,-366 337,-421 111,-167 60,-410 -105,-518 -181,-118 -407,-79 -528,95 -39,55 -83,277 -270,466zm-7946 -1081c186,-59 385,-250 497,-386l-1 1816c-123,-86 -65,-125 -120,-206 -36,-52 -86,-38 -157,-139 -318,-459 -155,-250 -295,-589 -52,-126 -80,-60 -85,-210 -5,-188 -3,-410 7,-599l154 313zm-891 -290c141,-50 418,-275 492,-383l-4 944c-480,84 -432,199 -653,320 6,-349 -31,-841 17,-1169l148 288zm8534 -86c131,77 74,152 473,372 62,-57 154,-229 182,-313l1 407c-229,105 -388,214 -489,457 -147,355 20,573 82,754l-249 -122 0 -1555zm895 -296c125,92 140,206 491,383l161 -289 3 994c-231,-239 -287,-318 -655,-357l0 -731zm-10501 258c456,-1039 294,-2665 1281,-2961 356,-107 558,-63 839,142 292,213 572,114 866,188 270,69 408,304 562,511 272,364 309,271 697,363 42,166 11,1016 12,1255 1,303 -126,689 -411,849 -296,-386 -216,-982 -239,-1438 -96,383 -227,1004 -626,1173 -289,-472 -220,-870 -207,-1393 -47,75 -155,588 -265,865 -87,222 -249,519 -453,636 -146,-148 -190,-650 -195,-860 -9,-424 65,-770 62,-963 -109,383 -371,1401 -772,1530 -139,-210 -139,-587 -116,-834 23,-261 117,-577 128,-804 -105,512 -638,1584 -1163,1741zm5329 -1805c156,-50 234,-245 355,-344l75 316 85 -282 211 263c117,-97 142,-176 230,-277l82 295c24,-100 33,-240 90,-309 103,112 179,281 335,337 33,-129 41,-143 112,-250l180 287c-335,-1 -685,-48 -1018,-24 -159,11 -344,-10 -515,-3 -164,5 -343,22 -506,19l170 -270c75,71 89,142 114,242zm6237 -122c93,100 241,1148 339,1494 37,126 137,337 155,432 -367,-130 -853,-837 -958,-1224 -56,-69 -228,-601 -233,-701 29,480 355,936 60,1829 -216,-86 -404,-430 -501,-647 -138,-310 -218,-715 -282,-859 10,358 176,1434 -130,1792 -384,-154 -653,-1186 -728,-1574 -8,286 45,527 9,837 -33,291 -82,385 -208,632 -180,-68 -330,-295 -411,-469 -151,-324 -153,-532 -217,-671 -8,471 37,1007 -241,1410 -284,-232 -405,-492 -405,-856 1,-329 -36,-968 9,-1259 657,-93 513,-186 897,-626 385,-441 711,-150 1138,-378 227,-123 206,-220 515,-240 432,-27 775,150 987,526 73,128 208,413 205,552zm-6868 154c39,-88 193,-238 270,-288l-72 292 -198 -4zm2525 3l-68 -293c66,29 236,222 269,294l-201 -1zm448 -1712c-135,-287 333,-227 492,-226 172,1 487,-12 615,110 -131,84 -434,39 -594,29 -223,-13 -403,109 -513,87zm-4417 -115c128,-121 439,-110 613,-111 345,-2 540,-52 508,215 -104,45 -155,-17 -249,-47 -90,-30 -185,-34 -280,-29 -158,9 -463,55 -592,-28zm5143 -226c299,-181 499,-325 863,-339 129,-4 155,2 174,133 44,299 -45,351 -267,589 -137,-122 -95,-162 -315,-257 -278,-121 -384,-72 -455,-126zm-5524 388c-228,-223 -325,-320 -273,-608 22,-119 54,-122 170,-119 167,5 346,33 488,121 86,52 333,180 381,238 -353,40 -562,79 -766,368zm5343 -446c5,-115 462,-455 569,-548 103,-91 183,-229 345,-220 148,9 285,162 244,303 -392,21 -302,-25 -618,204 -138,99 -356,285 -540,261zm-5558 -464c-42,-139 93,-292 242,-303 164,-12 244,128 346,219 108,96 574,427 568,548 -188,25 -400,-160 -537,-263 -303,-225 -241,-184 -619,-201zm373 -397c38,-91 269,-356 359,-386 211,-70 334,84 631,-105 232,-148 397,-102 667,-100 225,2 501,-20 708,-13 -227,261 -658,250 -875,483 81,26 287,-182 576,-132 205,35 348,134 521,234 -294,226 -718,-8 -874,-13 344,228 583,218 934,754 119,181 387,1072 388,1273 39,-349 213,-1002 391,-1293 234,-385 531,-538 921,-728 -160,-15 -539,233 -873,14 734,-530 970,-47 1098,-113 -197,-212 -730,-252 -879,-485 255,24 468,20 723,19 246,-1 441,-46 650,96 289,197 417,41 630,106 98,30 315,282 361,373 -53,44 -134,43 -208,48 -365,29 -344,-36 -591,-109 -88,57 -103,88 -212,125 -84,28 -197,36 -259,80 82,69 234,76 322,4 150,-121 106,-94 299,-64 3,258 -191,193 89,365l-197 99c-149,-90 -34,-54 -131,-181 -48,-8 -228,40 -265,56 85,98 91,35 208,42l125 165c-38,200 -139,83 -529,276 -438,216 -167,398 -149,444 -75,164 -127,186 -144,399 -38,487 60,891 424,1198 -405,-3 -693,-336 -789,-704 -161,-614 188,-938 262,-1143 -125,36 -299,168 -417,182 -18,-194 -5,-251 14,-436 -184,180 -157,500 -152,742 115,-59 112,-181 268,-225 -33,260 -245,1203 -355,1412 -456,-480 -155,-962 -171,-1502 -73,176 -94,107 -132,355 -56,369 -90,900 -342,1106 -371,-329 -209,-1188 -461,-1446 3,494 244,1091 -170,1479 -96,-116 -340,-1200 -355,-1396 99,6 187,154 263,226 11,-207 23,-613 -152,-749 28,178 41,253 12,436 -144,-26 -272,-141 -418,-185 79,182 193,270 255,499 195,719 -264,1383 -778,1346 217,-163 329,-330 384,-615 53,-268 89,-654 -54,-895 -145,-246 157,-110 16,-351 -67,-114 -174,-160 -292,-214 -333,-153 -627,-41 -314,-410 79,7 159,46 201,-45 -113,-9 -194,-61 -275,-46 -66,97 -9,82 -113,178 -95,-12 -133,-51 -207,-103 98,-67 80,5 146,-124 -26,-114 -72,-91 -58,-226 330,-122 271,243 624,60 -54,-56 -132,-46 -270,-92 -125,-41 -125,-78 -216,-124 -310,120 -441,164 -793,79zm2234 -351c103,-150 403,-254 442,-496 -572,195 -921,51 -1482,80 -312,16 -343,150 -591,180 -343,43 -353,-67 -675,317 -52,62 -63,44 -108,83 -84,73 3,66 -82,128 -29,20 -82,34 -124,66 -270,210 -161,475 -182,553 -108,409 -53,495 265,819 33,34 62,59 97,91l89 96c22,-137 24,-228 193,-243 110,-10 265,13 402,6 204,-11 519,9 703,106 366,193 221,974 24,1173 -105,105 -112,138 -271,82 -206,-71 -325,-368 -581,-620 -400,-393 -787,-81 -1203,-397 -369,-280 -887,-227 -1262,19 -326,213 -502,626 -614,987 -131,424 -177,889 -278,1323 -173,742 -351,749 -478,1125l506 -237c-8,927 0,1856 -1,2783 -1,503 72,705 229,1162 158,456 134,775 150,1257l133 -147c-219,1566 554,2495 1651,3485 980,884 2511,1400 3819,1401 1319,1 2829,-518 3819,-1402 1079,-962 1871,-1934 1654,-3475 66,43 63,77 129,139 40,-519 -27,-739 148,-1262 155,-465 228,-646 228,-1158 -1,-559 -28,-2371 4,-2782l502 232c-128,-357 -338,-456 -483,-1134 -148,-691 -250,-1916 -922,-2322 -363,-219 -881,-267 -1226,3 -405,319 -809,8 -1217,404 -309,301 -521,873 -838,537 -201,-215 -356,-1003 44,-1184 212,-96 476,-111 706,-96 314,19 501,-127 570,232 99,-80 222,-220 319,-330 329,-376 130,-460 124,-721 -2,-76 107,-411 -325,-581 -62,-185 -88,-98 -207,-257 -247,-328 -390,-222 -663,-264 -396,-62 64,-216 -1187,-157 -401,19 -487,-8 -855,-95 45,227 325,339 440,491 -108,84 -506,196 -575,500 187,-1 279,-16 468,25 -56,63 -146,98 -221,142 -86,50 -118,89 -183,155 -136,138 -160,278 -253,423 -78,-92 -129,-283 -265,-433 -122,-135 -244,-177 -400,-275 145,-68 316,-39 471,-36 -67,-310 -502,-441 -577,-501z"/>
    <path class="fil1" d="M14510 13916c-49,70 -76,178 -113,263 -81,185 -58,125 -54,324 23,1177 -1742,1036 -2433,305 -467,-493 -320,-336 -670,-883l-2477 -11c-770,1634 -2725,1870 -3053,881 -67,-202 -72,-510 73,-680 198,-232 380,-187 657,-163 -56,-623 -1223,-287 -1264,697 -54,1282 1158,2473 2170,3038 1923,1073 4195,901 5952,-436 423,-322 971,-913 1241,-1371 336,-570 496,-1455 -29,-1964z"/>
    <path class="fil2" d="M11962 6725c-60,-125 -153,-602 -6,-680 184,-99 561,-49 765,-53 -199,138 -261,137 -418,337 -71,90 -255,363 -341,396zm-3964 2c-62,-49 -266,-323 -330,-406 -151,-193 -235,-198 -409,-330 178,8 632,-47 779,64 108,82 62,578 -40,672zm1744 -2755c3,-6 201,-302 241,-307 102,-14 52,100 252,274 -17,31 -200,217 -249,273 -66,-90 -147,-191 -244,-240zm-511 14c75,60 510,191 577,501 -155,-3 -326,-32 -471,36 156,98 278,140 400,275 136,150 187,341 265,433 93,-145 117,-285 253,-423 65,-66 97,-105 183,-155 75,-44 165,-79 221,-142 -189,-41 -281,-26 -468,-25 69,-304 467,-416 575,-500 -115,-152 -395,-264 -440,-491 368,87 454,114 855,95 1251,-59 791,95 1187,157 273,42 416,-64 663,264 119,159 145,72 207,257 432,170 323,505 325,581 6,261 205,345 -124,721 -97,110 -220,250 -319,330 -69,-359 -256,-213 -570,-232 -230,-15 -494,0 -706,96 -400,181 -245,969 -44,1184 317,336 529,-236 838,-537 408,-396 812,-85 1217,-404 345,-270 863,-222 1226,-3 672,406 774,1631 922,2322 145,678 355,777 483,1134l-502 -232c-32,411 -5,2223 -4,2782 0,512 -73,693 -228,1158 -175,523 -108,743 -148,1262 -66,-62 -63,-96 -129,-139 217,1541 -575,2513 -1654,3475 -990,884 -2500,1403 -3819,1402 -1308,-1 -2839,-517 -3819,-1401 -1097,-990 -1870,-1919 -1651,-3485l-133 147c-16,-482 8,-801 -150,-1257 -157,-457 -230,-659 -229,-1162 1,-927 -7,-1856 1,-2783l-506 237c127,-376 305,-383 478,-1125 101,-434 147,-899 278,-1323 112,-361 288,-774 614,-987 375,-246 893,-299 1262,-19 416,316 803,4 1203,397 256,252 375,549 581,620 159,56 166,23 271,-82 197,-199 342,-980 -24,-1173 -184,-97 -499,-117 -703,-106 -137,7 -292,-16 -402,-6 -169,15 -171,106 -193,243l-89 -96c-35,-32 -64,-57 -97,-91 -318,-324 -373,-410 -265,-819 21,-78 -88,-343 182,-553 42,-32 95,-46 124,-66 85,-62 -2,-55 82,-128 45,-39 56,-21 108,-83 322,-384 332,-274 675,-317 248,-30 279,-164 591,-180 561,-29 910,115 1482,-80 -39,242 -339,346 -442,496zm2209 -2184c-11,182 58,239 -20,465 -38,109 -115,232 -177,329 -235,368 -270,251 -276,739l-1933 0c-16,-408 20,-302 -198,-625 -268,-399 -164,-302 -285,-514 -52,-41 -24,28 -62,-75 0,7 4,48 3,55 -11,58 9,11 -32,57l5 -116c6,-141 -25,-203 3,-309l-45 -5c-7,-1 -13,-2 -20,-3l-51 -13c-46,-26 15,-36 -56,-33 -141,198 -16,638 87,839 192,374 353,368 344,719 -223,0 -415,-25 -643,0 -334,37 -363,145 -503,170 -217,40 -361,-21 -562,111 -160,105 -204,209 -333,320 -93,79 -103,37 -181,155 -51,76 -117,91 -176,162 -266,328 -169,512 -217,772 -18,101 -28,205 -18,307 21,212 108,282 208,443 -329,-146 -328,-210 -744,-205 -247,4 -532,72 -742,203 -430,266 -619,621 -778,1096 -172,513 -203,1043 -340,1554 -95,348 -443,1096 -499,1382l542 -82c12,662 1,1331 2,1994 1,1097 28,798 296,1709 239,810 -277,1722 743,3258 483,726 1325,1486 2075,1926 2884,1693 6455,793 8355,-1936 985,-1415 464,-2346 734,-3266 271,-923 290,-602 290,-1712 1,-657 -10,-1322 3,-1977l562 60c-68,-251 -365,-880 -506,-1386 -139,-503 -188,-1034 -353,-1521 -146,-429 -369,-874 -776,-1098 -242,-134 -461,-198 -741,-203 -357,-7 -439,42 -734,197 86,-204 188,-193 198,-495 4,-118 -18,-204 -36,-317 -18,-112 6,-193 -10,-303 -34,-234 -175,-384 -327,-514 -74,-63 -28,-41 -72,-96 -47,-58 -123,-77 -179,-138 -106,-118 -209,-240 -356,-317 -216,-114 -385,-32 -560,-93 -66,-23 -134,-81 -225,-112 -308,-105 -604,-32 -874,-51 9,-402 182,-337 383,-787 136,-303 150,-788 -31,-943 -50,34 -51,57 -148,66 -6,63 27,96 -14,157z"/>
    <path class="fil2" d="M14709 13281l-52 -8c-20,113 -44,207 -68,317 -32,138 13,135 95,224 394,428 361,1174 163,1713 -244,666 -737,1169 -1245,1641 -1138,1056 -2815,1531 -4340,1310 -1466,-212 -2735,-961 -3638,-2132 -464,-602 -794,-1419 -512,-2172 331,-882 1593,-1078 1451,-86 -198,-53 -457,-121 -632,20 -281,226 -206,1272 1008,1072 600,-99 1093,-443 1447,-932 114,-158 205,-363 307,-502l2615 2c59,69 200,334 267,437 282,429 692,764 1187,919 512,162 1260,187 1423,-449 67,-262 24,-341 -118,-540 -74,33 -327,329 -561,433l280 -68c-99,485 -1439,608 -2129,-920l-101 -198 -3111 0c-751,1781 -2084,1588 -2224,1135 107,-39 370,168 659,-29 464,-314 60,-1417 -795,-1418 -1051,-3 -1562,1068 -1442,2002 208,1612 1986,3024 3433,3537 1830,648 3901,323 5442,-852 997,-759 2061,-2005 1833,-3349 -102,-604 -356,-765 -642,-1107z"/>
    <path class="fil3" d="M9826 8289l-34 -122c7,8 58,62 59,63 36,93 -13,52 -25,59zm298 -370l63 -39c-93,-92 -128,6 -57,-92l94 53c32,27 34,103 31,145 -16,192 -195,121 -151,173 23,65 -17,15 52,23 31,-21 7,-20 45,-8l5 65 -77 26 -41 45 -64 35c-2,117 -6,410 19,504 18,71 32,-23 20,100 -11,111 -42,275 9,386l587 -585c85,-87 155,-101 134,-227 -201,-16 -215,165 -393,239 56,-256 147,-195 315,-311 -94,-62 -218,-18 -293,63 -84,91 69,-15 -185,173 45,-166 130,-271 289,-344 286,-130 361,170 499,244 29,16 70,31 97,49 169,110 124,368 -212,545 16,-38 32,-69 53,-106 80,-136 169,-100 152,-314 -145,117 -103,251 -368,297 63,-73 59,-102 143,-159 77,-54 103,-94 111,-197 -148,-10 -196,37 -285,146 -60,73 -145,142 -212,210 -137,142 -281,274 -415,419 38,79 325,337 408,417 341,325 221,272 451,303 71,-55 98,-93 192,-121l62 66 -258 204c48,29 65,13 79,12 471,-34 215,569 -74,346 -114,-87 -34,-193 -56,-279 -48,-9 -7,-31 -61,33 -64,77 -99,181 -175,205 -132,-149 88,-133 62,-294 -27,-163 48,-65 -170,-275 -124,-120 -358,-375 -484,-462 14,90 27,111 19,208 -12,143 -6,45 35,140 -25,102 3,114 -75,172 80,89 30,94 11,184 -21,103 46,75 26,195 -11,67 -27,27 -21,82 0,0 68,133 -38,253 -160,-21 -89,-252 -89,-266 -1,-50 -19,-32 -19,-107 0,-135 64,-47 16,-180 -27,-77 -43,-102 18,-167 -99,-67 -60,-123 -40,-211 13,-57 -11,-171 -5,-268l-773 754c4,91 55,173 -29,266 -164,181 -465,-61 -309,-267 80,-105 175,-69 279,-57 154,-225 764,-708 845,-880 -68,-77 -159,-158 -234,-228 -79,-75 -144,-162 -223,-239 -95,-92 -387,-398 -476,-448 -54,117 -32,267 38,381 89,146 102,-9 198,245 -37,-11 -157,-33 -172,-63l-14 -29c-2,-4 -4,-10 -7,-14 -16,-29 -1,-7 -25,-37 -199,-252 -111,-225 -139,-514 -8,-77 -33,-144 -46,-220 213,40 244,31 450,44 144,9 222,87 323,167l62 -8c33,-20 30,-21 22,-51l57 89c47,-80 44,62 57,-108 6,-74 -2,-130 78,-139 83,-194 -68,-18 12,-171 -76,-13 -36,-33 -98,12 -27,-89 -66,-72 -68,-187 -1,-45 5,-135 51,-138l25 0 25 -34 48 8 18 0 75 39c-10,-76 -22,-43 32,-90 53,39 29,0 37,91 82,-47 35,-32 69,-22l33 100zm-122 3380c154,-162 308,-129 527,-129 211,0 445,10 654,0 465,-21 342,-640 342,-992 0,-418 24,-2415 -7,-2649l-3031 1c-32,220 -8,2225 -8,2627 0,451 -105,979 322,1012 477,37 985,-97 1201,130z"/>
    <path class="fil2" d="M6997 4337c352,85 483,41 793,-79 91,46 91,83 216,124 138,46 216,36 270,92 -353,183 -294,-182 -624,-60 -14,135 32,112 58,226 -66,129 -48,57 -146,124 74,52 112,91 207,103 104,-96 47,-81 113,-178 81,-15 162,37 275,46 -42,91 -122,52 -201,45 -313,369 -19,257 314,410 118,54 225,100 292,214 141,241 -161,105 -16,351 143,241 107,627 54,895 -55,285 -167,452 -384,615 514,37 973,-627 778,-1346 -62,-229 -176,-317 -255,-499 146,44 274,159 418,185 29,-183 16,-258 -12,-436 175,136 163,542 152,749 -76,-72 -164,-220 -263,-226 15,196 259,1280 355,1396 414,-388 173,-985 170,-1479 252,258 90,1117 461,1446 252,-206 286,-737 342,-1106 38,-248 59,-179 132,-355 16,540 -285,1022 171,1502 110,-209 322,-1152 355,-1412 -156,44 -153,166 -268,225 -5,-242 -32,-562 152,-742 -19,185 -32,242 -14,436 118,-14 292,-146 417,-182 -74,205 -423,529 -262,1143 96,368 384,701 789,704 -364,-307 -462,-711 -424,-1198 17,-213 69,-235 144,-399 -18,-46 -289,-228 149,-444 390,-193 491,-76 529,-276l-125 -165c-117,-7 -123,56 -208,-42 37,-16 217,-64 265,-56 97,127 -18,91 131,181l197 -99c-280,-172 -86,-107 -89,-365 -193,-30 -149,-57 -299,64 -88,72 -240,65 -322,-4 62,-44 175,-52 259,-80 109,-37 124,-68 212,-125 247,73 226,138 591,109 74,-5 155,-4 208,-48 -46,-91 -263,-343 -361,-373 -213,-65 -341,91 -630,-106 -209,-142 -404,-97 -650,-96 -255,1 -468,5 -723,-19 149,233 682,273 879,485 -128,66 -364,-417 -1098,113 334,219 713,-29 873,-14 -390,190 -687,343 -921,728 -178,291 -352,944 -391,1293 -1,-201 -269,-1092 -388,-1273 -351,-536 -590,-526 -934,-754 156,5 580,239 874,13 -173,-100 -316,-199 -521,-234 -289,-50 -495,158 -576,132 217,-233 648,-222 875,-483 -207,-7 -483,15 -708,13 -270,-2 -435,-48 -667,100 -297,189 -420,35 -631,105 -90,30 -321,295 -359,386z"/>
    <path class="fil4" d="M7861 8953c-37,-215 30,-745 70,-983l116 39c2,161 -111,814 -186,944zm-842 -290c-25,-217 27,-753 77,-980l110 32c14,138 -108,847 -187,948zm-859 -99c-7,-181 82,-1014 157,-1148l98 32c10,88 -137,992 -255,1116zm-870 -224c-18,-153 158,-1067 228,-1195l105 43c-23,208 -234,984 -333,1152zm-791 -126c-14,-111 260,-1219 345,-1302l82 29c12,140 -332,1157 -427,1273zm-533 865c525,-157 1058,-1229 1163,-1741 -11,227 -105,543 -128,804 -23,247 -23,624 116,834 401,-129 663,-1147 772,-1530 3,193 -71,539 -62,963 5,210 49,712 195,860 204,-117 366,-414 453,-636 110,-277 218,-790 265,-865 -13,523 -82,921 207,1393 399,-169 530,-790 626,-1173 23,456 -57,1052 239,1438 285,-160 412,-546 411,-849 -1,-239 30,-1089 -12,-1255 -388,-92 -425,1 -697,-363 -154,-207 -292,-442 -562,-511 -294,-74 -574,25 -866,-188 -281,-205 -483,-249 -839,-142 -987,296 -825,1922 -1281,2961z"/>
    <path class="fil2" d="M11952 8000l112 -34c50,233 101,755 77,984 -71,-114 -208,-816 -189,-950zm835 -281l116 -36c32,182 123,840 68,974 -59,-100 -196,-821 -184,-938zm900 -298c61,131 170,1008 144,1156 -78,-121 -266,-983 -248,-1132l104 -24zm800 -272c70,190 239,1001 224,1189 -82,-103 -349,-1031 -327,-1161l103 -28zm581 705c14,-2 55,21 104,-6l-37 -122c2,0 6,-4 7,-5l19 -14c2,-1 7,-2 9,-3l27 -225c8,-128 -109,-374 -137,-531l118 -30 76 266 58 3c67,12 15,-6 60,21 0,198 -31,266 51,325l29 16c4,2 11,5 15,6 11,4 -4,77 34,8 3,-5 12,3 18,3 37,-86 18,-135 18,-231 1,-215 -72,-183 -5,-183 3,-139 -132,-424 -205,-552 -212,-376 -555,-553 -987,-526 -309,20 -288,117 -515,240 -427,228 -753,-63 -1138,378 -384,440 -240,533 -897,626 -45,291 -8,930 -9,1259 0,364 121,624 405,856 278,-403 233,-939 241,-1410 64,139 66,347 217,671 81,174 231,401 411,469 126,-247 175,-341 208,-632 36,-310 -17,-551 -9,-837 75,388 344,1420 728,1574 306,-358 140,-1434 130,-1792 64,144 144,549 282,859 97,217 285,561 501,647 295,-893 -31,-1349 -60,-1829 5,100 177,632 233,701z"/>
    <path class="fil5" d="M14509 13907c525,510 365,1395 29,1965 -270,457 -818,1048 -1241,1370 -1758,1338 -4029,1510 -5952,436 -1013,-565 -2225,-1756 -2171,-3037 42,-984 1209,-1320 1265,-698 -277,-24 -459,-69 -657,164 -145,169 -140,477 -73,679 328,990 2283,754 3052,-880l2477 10c351,547 204,391 670,884 692,731 2457,871 2433,-305 -4,-199 -26,-139 54,-325 37,-85 64,-193 114,-263zm-575 132c-127,308 -771,614 -1205,486 -297,-87 -725,-535 -851,-868 82,39 184,134 269,188 93,60 198,82 294,133 -20,-89 -71,-152 -91,-271 -25,-146 -5,-219 11,-357 -157,84 -372,175 -551,180l-47 -66 -12 53c-69,2 2,75 -37,-31l-4 -41c-17,98 -12,72 -53,115 690,1528 2030,1405 2129,920l-280 68c234,-104 487,-400 561,-433 142,199 185,278 118,540 -163,636 -911,611 -1423,449 -495,-155 -905,-490 -1187,-919 -67,-103 -208,-368 -267,-437l-2615 -2c-102,139 -193,344 -307,502 -354,489 -847,833 -1447,932 -1214,200 -1289,-846 -1008,-1072 175,-141 434,-73 632,-20 142,-992 -1120,-796 -1451,86 -282,753 48,1570 512,2172 903,1171 2172,1920 3638,2132 1525,221 3202,-254 4340,-1310 508,-472 1001,-975 1245,-1641 198,-539 231,-1285 -163,-1713 -82,-89 -127,-86 -95,-224 24,-110 48,-204 68,-317 -135,34 41,-33 -40,15 -4,3 -11,7 -15,10 -3,2 -22,31 -23,35l-58 -60c-35,217 -141,701 -265,862 -71,-91 -76,-246 -103,-364 -94,80 -113,192 -219,268z"/>
    <path class="fil3" d="M10108 2843c0,-90 20,-218 64,-288 49,87 71,74 85,176l-149 112zm-267 -304l72 315 -196 -156 124 -159zm625 -9l40 56 -114 46 74 -102zm-962 10c49,13 43,13 72,74 -91,-5 -83,-4 -72,-74zm-681 -4c120,11 264,31 347,121 -72,37 -63,6 -123,64 44,35 11,30 155,43 80,7 113,7 175,47 -86,69 -92,18 -140,118 413,-41 396,-69 764,114 402,-239 641,-77 763,-134l-143 -96c126,-86 236,-15 333,-92l-125 -59c79,-99 231,-118 351,-124l-308 423c-66,103 -11,120 -89,166 -89,57 -58,8 -131,0 -115,-12 -33,31 -158,12 -123,-18 -19,-19 -141,1 -136,21 -46,-23 -157,-13 -84,8 0,34 -142,8 -146,-27 -56,11 -157,9 -98,-1 -9,-35 -140,-13 -152,25 -57,0 -157,-6 -99,-5 -27,30 -140,16 -145,-18 -57,-11 -157,2 -154,20 -112,-85 -173,-179 -78,-119 -257,-323 -307,-428zm2109 -366l117 173c-54,98 -51,106 -164,106l-66 -106 113 -173zm-423 174c27,-55 69,-130 121,-164l104 164c-35,64 -69,128 -122,168l-103 -168zm-207 -177l116 177c-30,66 -68,127 -122,168l-98 -172 104 -173zm-739 176c39,-77 65,-120 124,-168l101 169c-31,61 -74,134 -123,169l-102 -170zm-194 -168l107 171 -110 161c-47,-33 -87,-95 -122,-167l125 -165zm-315 1l107 168 -59 108c-114,-12 -115,-6 -174,-111l126 -165zm-314 243c-105,-82 -75,-165 -6,-242 46,58 98,116 106,188 -52,58 -28,48 -100,54zm2427 -14c-50,-95 10,-138 77,-226 13,10 31,21 52,52 49,72 25,118 -33,191l-96 -17zm-383 -581l109 164 -118 167 -112 -172 121 -159zm-314 -1l109 166 -119 164 -112 -170 122 -160zm-946 -2l112 170 -124 164 -111 -174 123 -160zm-316 0l113 169 -125 164 -109 -172 121 -161zm-316 -5l109 170c-25,58 -67,132 -118,167l-110 -170 119 -167zm2422 134c22,-29 14,-16 40,-32l5 171 -67 -102c3,-5 20,-35 22,-37zm-215 -129l110 168 -104 168c-54,-44 -97,-106 -129,-175l123 -161zm-2445 122c47,49 42,60 -20,119l20 -119zm2612 -145c-77,-39 -164,-106 -85,-193 65,45 121,119 85,193zm-322 -271l99 142 -93 128c-66,-36 -82,-62 -131,-133l125 -137zm-323 1l107 141 -92 128c-77,-31 -79,-57 -132,-134l117 -135zm-239 99c32,28 51,19 18,81 -19,36 -36,46 -65,59l47 -140zm-746 53c22,139 7,45 -19,88l-51 -114 41 -39c8,14 26,44 29,65zm-272 -147l107 137c-47,69 -46,91 -125,129l-101 -134 119 -132zm-319 -3l112 140c-45,71 -46,93 -128,130l-96 -133 112 -137zm-336 274c7,-92 36,-155 118,-183 24,89 -39,146 -118,183zm2408 -287c-77,0 -71,-3 -102,-82 65,28 74,19 102,82zm-2251 2c20,-70 25,-62 100,-81 -31,84 -22,78 -100,81zm1909 -28c-58,-71 -72,-26 -104,-117 25,-25 69,-27 110,-24 30,2 77,19 108,28 -34,62 -51,79 -114,113zm-345 -16c-13,-74 -7,-106 42,-169l98 90c-62,65 -67,89 -140,79zm-886 -169c12,82 31,86 11,168 -77,13 -80,-10 -143,-78 43,-53 67,-71 132,-90zm-234 68c-20,61 -49,80 -111,119l-99 -97c53,-53 140,-55 210,-22zm-759 822c121,212 17,115 285,514 218,323 182,217 198,625l1933 0c6,-488 41,-371 276,-739 62,-97 139,-220 177,-329 78,-226 9,-283 20,-465 -98,-121 -103,-278 -395,-439 -166,-91 -491,-131 -684,-135 -83,147 -282,1249 -354,1521 -123,-187 -236,-1227 -363,-1519 -263,-11 -601,59 -814,215 -240,176 -311,448 -279,751z"/>
    <path class="fil2" d="M11763 13464l47 66c179,-5 394,-96 551,-180 -16,138 -36,211 -11,357 20,119 71,182 91,271 -96,-51 -201,-73 -294,-133 -85,-54 -187,-149 -269,-188 126,333 554,781 851,868 434,128 1078,-178 1205,-486l-55 -12c-89,-11 79,-28 -27,4 -3,1 -18,12 -24,16l47 -118c-7,-3 -15,-4 -21,-6l-77 -71c-20,3 -732,356 -1029,3 -78,-92 -104,-260 -45,-354 -44,-381 817,-1425 852,-1572l-123 -62c-88,-21 -88,-75 -166,-136 -82,72 -466,664 -661,880 -637,704 -601,430 -886,684l44 169z"/>
    <path class="fil4" d="M4220 9115c-31,493 -5,1921 -5,2516 0,1286 229,1080 379,2170 148,-290 97,-838 86,-1180 -40,-1295 13,-2630 -15,-3931 -324,347 -179,177 -445,425z"/>
    <path class="fil4" d="M15408 13802c73,-932 375,-829 375,-2150 0,-824 31,-1711 -5,-2527 -67,-82 -169,-133 -243,-206 -64,-63 -140,-155 -198,-231 -29,286 -5,2152 -5,2606 0,437 0,868 -14,1305 -9,304 -58,964 90,1203z"/>
    <path class="fil3" d="M13244 12664c26,-80 103,-194 164,-251l-5 344 -159 -93zm979 239c-257,-123 -448,-369 -548,-629 -57,-146 -77,-161 10,-284 98,12 438,181 543,239l-5 674zm499 -1215l210 173c-8,91 -154,347 -209,445l-308 -134 307 -484zm-410 -359l302 255c-38,122 -232,410 -316,516 -174,-29 -590,-276 -792,-349l-74 116 123 62c-35,147 -896,1191 -852,1572l10 84c-4,-6 -5,-35 5,-57l25 -28c0,0 -8,-89 27,-79l-3 -144c16,6 110,14 43,105l53 -45 122 -255c142,15 189,13 237,41 -138,127 -362,342 -389,553 27,88 0,55 73,71 39,-56 18,-33 39,-115l11 -43c39,55 3,32 62,63 36,-23 363,-816 1210,-560l-246 134c-20,124 -25,-127 28,56l8 64c145,-75 380,-199 536,-228l-33 155 58 60c1,-4 20,-33 23,-35 4,-3 11,-7 15,-10 81,-48 -95,19 40,-15l52 8c54,-2 -83,11 54,-36 110,-39 13,19 97,-63 -23,-79 -86,-78 -122,-157 -30,-66 5,-38 -51,-99 -12,-12 -19,10 -71,-98 -65,-135 -128,-325 -125,-477l294 130 315 -616c-90,-173 -618,-477 -633,-617 -75,30 -53,6 -76,76l-79 5z"/>
    <path class="fil2" d="M10002 11299c-216,-227 -724,-93 -1201,-130 -427,-33 -322,-561 -322,-1012 0,-402 -24,-2407 8,-2627l3031 -1c31,234 7,2231 7,2649 0,352 123,971 -342,992 -209,10 -443,0 -654,0 -219,0 -373,-33 -527,129zm-1661 -469c19,358 334,469 650,468 169,0 396,-12 558,6 145,16 345,116 453,117 113,1 305,-102 452,-118 391,-44 1178,146 1213,-486l-1 -3397 -3329 0 4 3410z"/>
    <path class="fil4" d="M5612 11413l649 841c109,149 546,799 625,863 173,-19 417,-155 521,-286 -45,-101 -98,-103 -129,-243 -37,-170 12,-204 36,-348 -375,-431 -707,-860 -1061,-1320 -288,297 -114,277 -641,493z"/>
    <path class="fil6" d="M10969 10533c7,-3 39,-11 44,-14l84 -80c262,82 -75,392 -128,94zm-1907 -2c-22,118 -125,173 -196,89 -78,-94 0,-175 105,-185 40,93 -20,47 91,96zm856 -2333c-3,-25 14,-38 30,2 19,48 -28,15 -30,-2zm206 -279l-46 106 -37 -111 83 5zm-171 -79l70 10 -49 73 -21 -83zm0 0l-75 -39 -27 86 84 61 -37 83c-4,-5 -9,-10 -11,-14 -2,-3 -8,-9 -10,-13 -98,-157 -72,-63 -115,-177 -46,3 -52,93 -51,138 2,115 41,98 68,187 62,-45 22,-25 98,-12 -80,153 71,-23 -12,171l86 31c19,90 2,409 -19,504 -23,101 -37,13 4,133 25,72 19,280 1,356 -56,-25 -849,-816 -870,-863 406,-83 449,125 497,166 34,28 93,52 135,81 -22,-84 -44,-109 -48,-199l-62 8c-101,-80 -179,-158 -323,-167 -206,-13 -237,-4 -450,-44 13,76 38,143 46,220 28,289 -60,262 139,514 24,30 9,8 25,37 3,4 5,10 7,14l14 29c15,30 135,52 172,63 -96,-254 -109,-99 -198,-245 -70,-114 -92,-264 -38,-381 89,50 381,356 476,448 79,77 144,164 223,239 75,70 166,151 234,228 -81,172 -691,655 -845,880 -104,-12 -199,-48 -279,57 -156,206 145,448 309,267 84,-93 33,-175 29,-266l773 -754c-6,97 18,211 5,268 -20,88 -59,144 40,211 -61,65 -45,90 -18,167 48,133 -16,45 -16,180 0,75 18,57 19,107 0,14 -71,245 89,266 106,-120 38,-253 38,-253 -6,-55 10,-15 21,-82 20,-120 -47,-92 -26,-195 19,-90 69,-95 -11,-184 78,-58 50,-70 75,-172 -41,-95 -47,3 -35,-140 8,-97 -5,-118 -19,-208 126,87 360,342 484,462 218,210 143,112 170,275 26,161 -194,145 -62,294 76,-24 111,-128 175,-205 54,-64 13,-42 61,-33 22,86 -58,192 56,279 289,223 545,-380 74,-346 -14,1 -31,17 -79,-12l258 -204 -62 -66c-94,28 -121,66 -192,121 -230,-31 -110,22 -451,-303 -83,-80 -370,-338 -408,-417 134,-145 278,-277 415,-419 67,-68 152,-137 212,-210 89,-109 137,-156 285,-146 -8,103 -34,143 -111,197 -84,57 -80,86 -143,159 265,-46 223,-180 368,-297 17,214 -72,178 -152,314 -21,37 -37,68 -53,106 336,-177 381,-435 212,-545 -27,-18 -68,-33 -97,-49 -138,-74 -213,-374 -499,-244 -159,73 -244,178 -289,344 254,-188 101,-82 185,-173 75,-81 199,-125 293,-63 -168,116 -259,55 -315,311 178,-74 192,-255 393,-239 21,126 -49,140 -134,227l-587 585c-51,-111 -20,-275 -9,-386 12,-123 -2,-29 -20,-100 -25,-94 -21,-387 -19,-504l64 -35c-36,-108 -58,-30 -79,-120 56,6 23,26 79,49l16 -80c-44,-52 135,19 151,-173 3,-42 1,-118 -31,-145l-94 -53c-71,98 -36,0 57,92l-63 39 -33 -100c-34,-10 13,-25 -69,22 -8,-91 16,-52 -37,-91 -54,47 -42,14 -32,90z"/>
    <path class="fil7" d="M10097 1447c51,140 -40,622 -99,766 -34,-86 -158,-661 -99,-751 56,-87 141,-60 198,-15zm-210 -605l223 5 -63 180 197 -52 -9 221c-71,-28 -100,-53 -186,-52l65 180 -234 -2c45,-79 52,-88 67,-186l-193 61 9 -232 175 74c3,-77 -19,-133 -51,-197zm-1591 912c71,-3 10,7 56,33l51 13c7,1 13,2 20,3l45 5c-28,106 3,168 -3,309l-5 116c41,-46 21,1 32,-57 1,-7 -3,-48 -3,-55 38,103 10,34 62,75 -32,-303 39,-575 279,-751 213,-156 551,-226 814,-215 127,292 240,1332 363,1519 72,-272 271,-1374 354,-1521 193,4 518,44 684,135 292,161 297,318 395,439 41,-61 8,-94 14,-157 97,-9 98,-32 148,-66 -50,-173 -240,-328 -396,-418 -219,-126 -396,-139 -649,-172 -124,-243 -236,-427 -555,-434 -314,-7 -462,179 -577,433 -275,39 -483,50 -715,211 -186,129 -360,322 -414,555z"/>
    <path class="fil4" d="M7211 11873c73,-344 36,-964 36,-1337 0,-403 35,-1003 -6,-1382l-330 207c-178,-122 -216,-397 -316,-541l-1 2303c16,83 570,720 617,750z"/>
    <path class="fil2" d="M7860 12767c389,310 471,258 963,258l2443 0c181,0 406,41 558,-57 109,-70 251,-104 255,-359l-430 -5c-59,114 -106,206 -235,232l27 -231 -566 0 79 262c-179,-31 -250,-112 -315,-263l-1374 0c-79,94 -141,262 -325,257 23,-102 71,-127 75,-257l-554 0 18 230c-124,-13 -178,-144 -246,-229l-366 1 -7 161z"/>
    <path class="fil4" d="M13506 11751c202,73 618,320 792,349 84,-106 278,-394 316,-516l-302 -255c-228,-249 -774,-568 -1109,-716 -87,52 -335,372 -377,475 162,180 488,521 680,663z"/>
    <path class="fil4" d="M4874 13346c79,-11 292,-192 337,-252 96,-125 173,-251 228,-404 84,-235 133,-919 83,-1149 -100,-101 -99,5 -159,-178 -16,-48 -106,-160 -141,-196 -91,-91 -226,-294 -344,-322l-4 2501z"/>
    <path class="fil4" d="M7426 12119c72,-27 104,-61 187,-76 98,-17 148,11 233,4 72,-206 33,-950 33,-1217 0,-308 36,-976 -10,-1242l-112 67c-63,-88 -142,-219 -185,-310 -56,-118 -79,-277 -142,-376l-4 3150z"/>
    <path class="fil4" d="M12233 9653c-61,-37 -49,-54 -115,-56 -2,351 -38,2236 21,2422 216,88 223,-20 429,221l4 -1221c-75,-83 -186,-155 -232,-252 276,-380 232,-36 232,-800 0,-223 28,-867 -14,-1041 -15,192 -190,581 -325,727z"/>
    <path class="fil2" d="M14467 11248c15,140 543,444 633,617l-315 616 -294 -130c-3,152 60,342 125,477 52,108 59,86 71,98 56,61 21,33 51,99 36,79 99,78 122,157 88,42 164,126 258,172l5 -2607c-117,95 -161,238 -439,322l-217 56 0 123z"/>
    <path class="fil4" d="M13098 9354c-128,-39 -233,-138 -348,-196l2 1104c88,29 -50,-86 309,120 83,48 265,156 347,175l-1 -1729c-74,73 -143,397 -309,526z"/>
    <path class="fil2" d="M7020 13320l480 708c428,-58 661,-439 625,-857 -144,-191 -228,-231 -481,-239 -246,254 -282,263 -624,388z"/>
    <path class="fil2" d="M5929 9493l-154 -313c-10,189 -12,411 -7,599 5,150 33,84 85,210 140,339 -23,130 295,589 71,101 121,87 157,139 55,81 -3,120 120,206l1 -1816c-112,136 -311,327 -497,386z"/>
    <path class="fil7" d="M15254 7184c92,289 229,726 248,1023 -178,-186 -159,-536 -305,-728l-27 225c-2,1 -7,2 -9,3l-19 14c-1,1 -5,5 -7,5l37 122c-49,27 -90,4 -104,6 105,387 591,1094 958,1224 -18,-95 -118,-306 -155,-432 -98,-346 -246,-1394 -339,-1494 -67,0 6,-32 5,183 0,96 19,145 -18,231 -6,0 -15,-8 -18,-3 -38,69 -23,-4 -34,-8 -4,-1 -11,-4 -15,-6l-29 -16c-82,-59 -51,-127 -51,-325 -45,-27 7,-9 -60,-21l-58 -3z"/>
    <path class="fil7" d="M13875 10574c187,-189 231,-411 270,-466 121,-174 347,-213 528,-95 165,108 216,351 105,518 -37,55 -195,164 -337,421 63,33 130,13 202,-8 499,-149 626,-805 204,-1126 -625,-474 -1269,375 -972,756z"/>
    <path class="fil2" d="M5038 9203l-148 -288c-48,328 -11,820 -17,1169 221,-121 173,-236 653,-320l4 -944c-74,108 -351,333 -492,383z"/>
    <path class="fil7" d="M8071 11924c191,-62 406,-415 470,-609 -226,-283 -318,-141 -318,-843 0,-381 6,-767 -1,-1147 -215,157 -151,246 -151,516l0 2083z"/>
    <path class="fil2" d="M11461 11299c35,225 272,535 463,627 20,-613 2,-1398 2,-2043 0,-182 56,-467 -139,-541 -36,294 -6,811 -6,1130 0,417 14,575 -320,827z"/>
    <path class="fil2" d="M5077 10792l395 460c233,-14 589,-298 653,-507l-331 -490c-217,239 -369,442 -717,537z"/>
    <path class="fil8" d="M8823 2536c50,105 229,309 307,428 61,94 19,199 173,179 100,-13 12,-20 157,-2 113,14 41,-21 140,-16 100,6 5,31 157,6 131,-22 42,12 140,13 101,2 11,-36 157,-9 142,26 58,0 142,-8 111,-10 21,34 157,13 122,-20 18,-19 141,-1 125,19 43,-24 158,-12 73,8 42,57 131,0 78,-46 23,-63 89,-166l308 -423c-120,6 -272,25 -351,124l125 59c-97,77 -207,6 -333,92l143 96c-122,57 -361,-105 -763,134 -368,-183 -351,-155 -764,-114 48,-100 54,-49 140,-118 -62,-40 -95,-40 -175,-47 -144,-13 -111,-8 -155,-43 60,-58 51,-27 123,-64 -83,-90 -227,-110 -347,-121z"/>
    <path class="fil7" d="M14018 13346l-389 193 337 97c-67,119 -143,134 -189,216l77 71c6,2 14,3 21,6l-47 118c6,-4 21,-15 24,-16 106,-32 -62,-15 27,-4l55 12c106,-76 125,-188 219,-268 27,118 32,273 103,364 124,-161 230,-645 265,-862l33 -155c-156,29 -391,153 -536,228z"/>
    <path class="fil7" d="M13572 10672l249 122c-62,-181 -229,-399 -82,-754 101,-243 260,-352 489,-457l-1 -407c-28,84 -120,256 -182,313 -399,-220 -342,-295 -473,-372l0 1555z"/>
    <path class="fil2" d="M14467 9552c368,39 424,118 655,357l-3 -994 -161 289c-351,-177 -366,-291 -491,-383l0 731z"/>
    <path class="fil5" d="M13018 13652c-59,-31 -23,-8 -62,-63l-11 43c-21,82 0,59 -39,115 -73,-16 -46,17 -73,-71 -37,-47 -24,22 -28,-85 -1,-17 10,-70 14,-89 14,-57 30,-108 44,-165l-53 45c67,-91 -27,-99 -43,-105l3 144c-35,-10 -27,79 -27,79l-25 28c-10,22 -9,51 -5,57l-10 -84c-59,94 -33,262 45,354 297,353 1009,0 1029,-3 46,-82 122,-97 189,-216l-337 -97 389 -193 -8 -64c-53,-183 -48,68 -28,-56l-712 332 217 80 -79 215c-169,26 -259,41 -429,-2 -15,-75 15,-122 39,-199z"/>
    <path class="fil2" d="M6929 5377c2,-81 0,-111 63,-164l94 73 -157 91zm-90 267c204,-289 413,-328 766,-368 -48,-58 -295,-186 -381,-238 -142,-88 -321,-116 -488,-121 -116,-3 -148,0 -170,119 -52,288 45,385 273,608z"/>
    <path class="fil7" d="M12968 5207c70,57 72,72 81,164l-161 -78 80 -86zm-605 49c71,54 177,5 455,126 220,95 178,135 315,257 222,-238 311,-290 267,-589 -19,-131 -45,-137 -174,-133 -364,14 -564,158 -863,339z"/>
    <path class="fil9" d="M9651 8520c4,90 26,115 48,199 -42,-29 -101,-53 -135,-81 -48,-41 -91,-249 -497,-166 21,47 814,838 870,863 18,-76 24,-284 -1,-356 -41,-120 -27,-32 -4,-133 21,-95 38,-414 19,-504l-86 -31c-80,9 -72,65 -78,139 -13,170 -10,28 -57,108l-57 -89c8,30 11,31 -22,51z"/>
    <path class="fil7" d="M13018 13652c-24,77 -54,124 -39,199 170,43 260,28 429,2l79 -215 -217 -80 712 -332 246 -134c-847,-256 -1174,537 -1210,560z"/>
    <path class="fil2" d="M9855 11481l-75 1008 435 1 -56 -1016c-72,4 -85,39 -139,45 -52,6 -110,-27 -165,-38z"/>
    <path class="fil8" d="M4944 10458c11,-196 339,-439 535,-430 -9,195 -337,434 -535,430zm541 -588c-522,98 -1058,900 -506,801 512,-93 1072,-907 506,-801z"/>
    <path class="fil8" d="M9295 7274c-25,-100 -39,-171 -114,-242l-170 270c163,3 342,-14 506,-19 171,-7 356,14 515,3 333,-24 683,23 1018,24l-180 -287c-71,107 -79,121 -112,250 -156,-56 -232,-225 -335,-337 -57,69 -66,209 -90,309l-82 -295c-88,101 -113,180 -230,277l-211 -263 -85 282 -75 -316c-121,99 -199,294 -355,344z"/>
    <path class="fil2" d="M8627 11378c141,111 377,102 533,294 67,83 96,384 410,412l105 -663c-302,-70 -673,7 -936,-46 -86,-17 -49,-32 -112,3z"/>
    <path class="fil2" d="M14223 12903l5 -674c-105,-58 -445,-227 -543,-239 -87,123 -67,138 -10,284 100,260 291,506 548,629z"/>
    <path class="fil2" d="M10338 11404l97 680c55,-17 61,-45 112,-78 54,-35 104,-39 146,-63 147,-86 -8,-327 554,-504 114,-36 107,-28 125,-83 -485,56 -639,16 -1034,48z"/>
    <path class="fil0" d="M7998 6727c102,-94 148,-590 40,-672 -147,-111 -601,-56 -779,-64 174,132 258,137 409,330 64,83 268,357 330,406z"/>
    <path class="fil0" d="M11962 6725c86,-33 270,-306 341,-396 157,-200 219,-199 418,-337 -204,4 -581,-46 -765,53 -147,78 -54,555 6,680z"/>
    <path class="fil8" d="M6624 4734c378,17 316,-24 619,201 137,103 349,288 537,263 6,-121 -460,-452 -568,-548 -102,-91 -182,-231 -346,-219 -149,11 -284,164 -242,303z"/>
    <path class="fil8" d="M12182 5198c184,24 402,-162 540,-261 316,-229 226,-183 618,-204 41,-141 -96,-294 -244,-303 -162,-9 -242,129 -345,220 -107,93 -564,433 -569,548z"/>
    <path class="fil2" d="M5770 12907c150,-71 398,-288 445,-434 -48,-91 -382,-554 -444,-600l-1 1034z"/>
    <path class="fil7" d="M13914 10792c197,58 198,150 327,210 93,-171 434,-480 218,-648 -145,-114 -255,9 -332,116 -60,82 -180,236 -213,322z"/>
    <path class="fil10" d="M8341 10830l-4 -3410 3329 0 1 3397c51,-99 22,-2155 22,-2556 0,-183 23,-711 -13,-854l-3345 -7c-41,129 -15,1480 -15,1725 0,230 -30,1614 25,1705z"/>
    <path class="fil7" d="M7632 12795c-27,-101 -100,-246 16,-318 85,-54 96,-20 148,13 73,44 100,28 195,28 -1,-292 -271,-478 -487,-290 -194,169 -127,507 128,567z"/>
    <path class="fil7" d="M12845 12071c54,-41 299,-393 317,-461 -111,-106 -295,-324 -412,-393 3,218 -19,677 95,854z"/>
    <path class="fil7" d="M11900 12513l169 6c1,-1 134,-147 216,-12 49,80 8,194 -17,274 124,-169 404,-297 123,-549 -215,-194 -481,-8 -491,281z"/>
    <path class="fil8" d="M10481 12494c205,3 133,-5 179,-80 38,-61 205,-172 222,78l166 1c108,-551 -663,-592 -567,1z"/>
    <path class="fil8" d="M8116 12487l119 11c48,-68 41,-144 147,-155 137,-13 126,49 109,147 75,9 120,16 191,-11 97,-582 -701,-512 -566,8z"/>
    <path class="fil7" d="M11211 12485l186 12c-8,-100 -16,-169 120,-153 94,12 102,72 127,148l135 -2c128,-548 -671,-573 -568,-5z"/>
    <path class="fil8" d="M8844 12495l151 2c42,-73 -18,-153 121,-150 112,2 119,61 145,145l151 4c72,-604 -657,-558 -568,-1z"/>
    <path class="fil2" d="M11637 5597c110,22 290,-100 513,-87 160,10 463,55 594,-29 -128,-122 -443,-109 -615,-110 -159,-1 -627,-61 -492,226z"/>
    <path class="fil7" d="M14415 12172l308 134c55,-98 201,-354 209,-445l-210 -173 -307 484z"/>
    <path class="fil7" d="M7220 5482c129,83 434,37 592,28 95,-5 190,-1 280,29 94,30 145,92 249,47 32,-267 -163,-217 -508,-215 -174,1 -485,-10 -613,111z"/>
    <path class="fil8" d="M12521 10767c31,58 53,73 99,120 82,83 55,69 120,92l330 -439 -223 -128c-104,77 -247,253 -326,355z"/>
    <path class="fil11" d="M15197 7479c146,192 127,542 305,728 -19,-297 -156,-734 -248,-1023l-76 -266 -118 30c28,157 145,403 137,531z"/>
    <path class="fil11" d="M4499 8214c95,-116 439,-1133 427,-1273l-82 -29c-85,83 -359,1191 -345,1302z"/>
    <path class="fil9" d="M9742 3972c97,49 178,150 244,240 49,-56 232,-242 249,-273 -200,-174 -150,-288 -252,-274 -40,5 -238,301 -241,307z"/>
    <path class="fil11" d="M9887 842c32,64 54,120 51,197l-175 -74 -9 232 193 -61c-15,98 -22,107 -67,186l234 2 -65 -180c86,-1 115,24 186,52l9 -221 -197 52 63 -180 -223 -5z"/>
    <path class="fil11" d="M14384 7177c-22,130 245,1058 327,1161 15,-188 -154,-999 -224,-1189l-103 28z"/>
    <path class="fil11" d="M5290 8340c99,-168 310,-944 333,-1152l-105 -43c-70,128 -246,1042 -228,1195z"/>
    <path class="fil11" d="M6160 8564c118,-124 265,-1028 255,-1116l-98 -32c-75,134 -164,967 -157,1148z"/>
    <path class="fil12" d="M10097 1447c-57,-45 -142,-72 -198,15 -59,90 65,665 99,751 59,-144 150,-626 99,-766z"/>
    <path class="fil5" d="M13583 7445c-18,149 170,1011 248,1132 26,-148 -83,-1025 -144,-1156l-104 24z"/>
    <path class="fil8" d="M7065 14609c117,6 397,-152 477,-241l-267 -398c-19,209 -23,496 -210,639z"/>
    <path class="fil9" d="M4944 10458c198,4 526,-235 535,-430 -196,-9 -524,234 -535,430z"/>
    <path class="fil11" d="M7019 8663c79,-101 201,-810 187,-948l-110 -32c-50,227 -102,763 -77,980z"/>
    <path class="fil11" d="M11952 8000c-19,134 118,836 189,950 24,-229 -27,-751 -77,-984l-112 34z"/>
    <path class="fil11" d="M12971 8657c55,-134 -36,-792 -68,-974l-116 36c-12,117 125,838 184,938z"/>
    <path class="fil11" d="M7861 8953c75,-130 188,-783 186,-944l-116 -39c-40,238 -107,768 -70,983z"/>
    <path class="fil13" d="M12863 13337c-14,57 -30,108 -44,165 -4,19 -15,72 -14,89 4,107 -9,38 28,85 27,-211 251,-426 389,-553 -48,-28 -95,-26 -237,-41l-122 255z"/>
    <path class="fil6" d="M9563 2343l102 170c49,-35 92,-108 123,-169l-101 -169c-59,48 -85,91 -124,168z"/>
    <path class="fil14" d="M10976 1982c32,69 75,131 129,175l104 -168 -110 -168 -123 161z"/>
    <path class="fil14" d="M10509 2344l103 168c53,-40 87,-104 122,-168l-104 -164c-52,34 -94,109 -121,164z"/>
    <path class="fil6" d="M9244 2340c35,72 75,134 122,167l110 -161 -107 -171 -125 165z"/>
    <path class="fil14" d="M8773 1983l110 170c51,-35 93,-109 118,-167l-109 -170 -119 167z"/>
    <path class="fil13" d="M10198 2340l98 172c54,-41 92,-102 122,-168l-116 -177 -104 173z"/>
    <polygon class="fil6" points="9401,1981 9512,2155 9636,1991 9524,1821 "/>
    <polygon class="fil14" points="9087,1982 9196,2154 9321,1990 9208,1821 "/>
    <polygon class="fil14" points="10663,1983 10775,2155 10893,1988 10784,1824 "/>
    <polygon class="fil14" points="10348,1983 10460,2153 10579,1989 10470,1823 "/>
    <path class="fil6" d="M8928 2341c59,105 60,99 174,111l59 -108 -107 -168 -126 165z"/>
    <path class="fil14" d="M10819 2343l66 106c113,0 110,-8 164,-106l-117 -173 -113 173z"/>
    <path class="fil13" d="M11189 7309l201 1c-33,-72 -203,-265 -269,-294l68 293z"/>
    <path class="fil6" d="M8664 7306l198 4 72 -292c-77,50 -231,200 -270,288z"/>
    <path class="fil12" d="M9062 10531c-111,-49 -51,-3 -91,-96 -105,10 -183,91 -105,185 71,84 174,29 196,-89z"/>
    <path class="fil12" d="M10969 10533c53,298 390,-12 128,-94l-84 80c-5,3 -37,11 -44,14z"/>
    <path class="fil6" d="M8933 1667l96 133c82,-37 83,-59 128,-130l-112 -140 -112 137z"/>
    <path class="fil14" d="M10504 1663c53,77 55,103 132,134l92 -128 -107 -141 -117 135z"/>
    <path class="fil14" d="M9245 1665l101 134c79,-38 78,-60 125,-129l-107 -137 -119 132z"/>
    <path class="fil14" d="M10819 1664c49,71 65,97 131,133l93 -128 -99 -142 -125 137z"/>
    <path class="fil6" d="M13244 12664l159 93 5 -344c-61,57 -138,171 -164,251z"/>
    <path class="fil15" d="M11167 2405l96 17c58,-73 82,-119 33,-191 -21,-31 -39,-42 -52,-52 -67,88 -127,131 -77,226z"/>
    <path class="fil13" d="M8740 2419c72,-6 48,4 100,-54 -8,-72 -60,-130 -106,-188 -69,77 -99,160 6,242z"/>
    <polygon class="fil6" points="9717,2698 9913,2854 9841,2539 "/>
    <path class="fil16" d="M10108 2843l149 -112c-14,-102 -36,-89 -85,-176 -44,70 -64,198 -64,288z"/>
    <path class="fil17" d="M10671 1374c32,91 46,46 104,117 63,-34 80,-51 114,-113 -31,-9 -78,-26 -108,-28 -41,-3 -85,-1 -110,24z"/>
    <path class="fil13" d="M9100 1396l99 97c62,-39 91,-58 111,-119 -70,-33 -157,-31 -210,22z"/>
    <path class="fil17" d="M9412 1396c63,68 66,91 143,78 20,-82 1,-86 -11,-168 -65,19 -89,37 -132,90z"/>
    <path class="fil8" d="M10430 1475c73,10 78,-14 140,-79l-98 -90c-49,63 -55,95 -42,169z"/>
    <path class="fil17" d="M11266 1798c36,-74 -20,-148 -85,-193 -79,87 8,154 85,193z"/>
    <path class="fil18" d="M9787 7827l-25 0c43,114 17,20 115,177 2,4 8,10 10,13 2,4 7,9 11,14l37 -83 -84 -61 27 -86 -18 0c-3,4 -7,10 -9,11l-27 25c-39,17 -2,46 -37,-10z"/>
    <path class="fil19" d="M12888 5293l161 78c-9,-92 -11,-107 -81,-164l-80 86z"/>
    <path class="fil20" d="M6929 5377l157 -91 -94 -73c-63,53 -61,83 -63,164z"/>
    <path class="fil13" d="M8709 1804c79,-37 142,-94 118,-183 -82,28 -111,91 -118,183z"/>
    <path class="fil21" d="M10088 8310l41 -45 27 -83c-69,-8 -29,42 -52,-23l-16 80c-56,-23 -23,-43 -79,-49 21,90 43,12 79,120z"/>
    <path class="fil22" d="M9566 1654l51 114c26,-43 41,51 19,-88 -3,-21 -21,-51 -29,-65l-41 39z"/>
    <path class="fil23" d="M11292 1987l67 102 -5 -171c-26,16 -18,3 -40,32 -2,2 -19,32 -22,37z"/>
    <path class="fil24" d="M10335 1767c29,-13 46,-23 65,-59 33,-62 14,-53 -18,-81l-47 140z"/>
    <path class="fil25" d="M8866 1519c78,-3 69,3 100,-81 -75,19 -80,11 -100,81z"/>
    <path class="fil26" d="M10156 8182l-27 83 77 -26 -5 -65c-38,-12 -14,-13 -45,8z"/>
    <polygon class="fil27" points="10124,7919 10041,7914 10078,8025 "/>
    <polygon class="fil23" points="10392,2632 10506,2586 10466,2530 "/>
    <path class="fil28" d="M11117 1517c-28,-63 -37,-54 -102,-82 31,79 25,82 102,82z"/>
    <path class="fil29" d="M9826 8289c12,-7 61,34 25,-59 -1,-1 -52,-55 -59,-63l34 122z"/>
    <path class="fil30" d="M9576 2614c-29,-61 -23,-61 -72,-74 -11,70 -19,69 72,74z"/>
    <path class="fil31" d="M8634 2062c62,-59 67,-70 20,-119l-20 119z"/>
    <polygon class="fil32" points="9953,7840 9974,7923 10023,7850 "/>
    <path class="fil25" d="M9787 7827c35,56 -2,27 37,10l27 -25c2,-1 6,-7 9,-11l-48 -8 -25 34z"/>
    <path class="fil33" d="M9918 8198c2,17 49,50 30,2 -16,-40 -33,-27 -30,-2z"/>
   </g>
   <path class="fil34" d="M9126 15381c0,101 -35,177 -103,231 -69,53 -168,80 -297,80l-307 0 0 -956 629 0 0 208 -369 0 0 146 37 0c134,0 235,24 305,73 70,48 105,121 105,218zm-447 111l34 0c54,0 93,-9 117,-26 23,-18 35,-45 35,-79 0,-35 -13,-61 -38,-77 -25,-17 -63,-25 -115,-25l-33 0 0 207zm1243 -756l0 209 -378 0 0 747 -259 0 0 -956 637 0zm585 956l-258 0 0 -744 -234 0 0 -212 725 0 0 212 -233 0 0 744zm492 13c-61,0 -117,-6 -168,-20l0 -205c41,16 93,24 156,24 27,0 50,-6 68,-18 19,-13 34,-34 45,-66l-311 -684 278 0 118 292c4,11 9,25 16,40 6,16 12,32 18,49 6,17 12,34 17,50 5,17 10,31 13,43l9 0c15,-59 37,-128 66,-208l97 -266 278 0 -290 671c-36,84 -71,145 -106,185 -35,39 -77,68 -125,86 -49,18 -108,27 -179,27zm-4257 252l333 0c130,0 226,19 289,58 63,39 95,98 95,180 0,54 -14,99 -41,137 -28,38 -64,62 -109,73l0 7c59,15 102,42 129,78 26,37 40,84 40,143 0,87 -33,155 -98,205 -65,49 -154,74 -266,74l-372 0 0 -955zm258 367l78 0c37,0 66,-8 86,-23 20,-15 30,-38 30,-68 0,-54 -40,-80 -121,-80l-73 0 0 171zm0 188l0 201 91 0c80,0 121,-34 121,-102 0,-32 -11,-56 -33,-73 -21,-17 -52,-26 -93,-26l-86 0zm1537 -78c0,160 -39,283 -118,366 -79,84 -194,126 -346,126 -150,0 -265,-42 -345,-126 -80,-84 -120,-207 -120,-367 0,-159 40,-281 120,-365 79,-84 194,-126 346,-126 152,0 267,42 346,125 78,83 117,206 117,367zm-657 -1c0,185 64,277 193,277 65,0 114,-22 145,-67 32,-45 48,-115 48,-210 0,-95 -16,-165 -49,-211 -31,-45 -79,-68 -143,-68 -129,0 -194,93 -194,279zm1397 479l-567 0 0 -955 567 0 0 208 -309 0 0 149 286 0 0 208 -286 0 0 180 309 0 0 210zm985 0l-259 0 0 -389 -300 0 0 389 -259 0 0 -955 259 0 0 355 300 0 0 -355 259 0 0 955zm623 0l-195 -688 -6 0c9,118 14,209 14,273l0 415 -229 0 0 -955 344 0 199 679 5 0 196 -679 344 0 0 955 -237 0 0 -418c0,-22 0,-46 1,-73 1,-27 3,-92 9,-195l-6 0 -193 686 -246 0zm1445 0l-567 0 0 -955 567 0 0 208 -309 0 0 149 286 0 0 208 -286 0 0 180 309 0 0 210zm1027 0l-298 0 -187 -298 -184 298 -292 0 317 -488 -298 -467 286 0 173 295 166 -295 294 0 -302 487 325 468zm-5754 419l0 70c0,4 0,8 0,13 0,4 -1,33 -3,87l111 -170 106 0 0 278 -86 0 0 -75c0,-27 2,-58 4,-94l-111 169 -106 0 0 -278 85 0zm645 278l-86 0 0 -208c-5,22 -11,43 -18,66 -7,22 -22,70 -46,142l-65 0 -29 -89c-9,-30 -20,-63 -30,-100l-6 -19 0 208 -85 0 0 -278 131 0 21 65c4,12 10,32 17,59 7,27 12,46 13,56 1,-7 7,-29 18,-65l10 -32 26 -83 129 0 0 278zm54 -41c0,-15 4,-27 13,-35 9,-8 22,-12 39,-12 16,0 28,4 37,12 9,8 13,20 13,35 0,15 -4,26 -13,34 -9,9 -21,13 -37,13 -16,0 -29,-4 -38,-12 -10,-9 -14,-20 -14,-35zm653 152l-94 0 0 -111 -209 0 0 111 -94 0 0 -191 30 0c21,-36 39,-78 52,-125 14,-48 23,-99 27,-154l239 0 0 279 49 0 0 191zm-146 -191l0 -199 -64 0c-7,70 -25,136 -55,199l119 0zm176 39c0,-15 5,-27 14,-35 9,-8 22,-12 39,-12 16,0 28,4 37,12 9,8 13,20 13,35 0,15 -5,26 -14,34 -8,9 -21,13 -36,13 -17,0 -29,-4 -39,-12 -9,-9 -14,-20 -14,-35zm432 -323l94 0 0 45 7 0c30,0 57,5 80,16 23,12 41,28 53,48 12,20 19,44 19,70 0,27 -6,50 -18,71 -13,20 -30,36 -54,47 -23,11 -51,17 -84,17l-3 0 0 55 -94 0 0 -55 -5 0c-33,0 -61,-6 -84,-17 -23,-11 -40,-26 -52,-46 -12,-20 -18,-45 -18,-73 0,-27 7,-50 19,-71 13,-21 30,-36 53,-47 22,-10 48,-15 78,-15l9 0 0 -45zm94 240l3 0c20,0 36,-5 46,-15 10,-10 15,-26 15,-47 0,-19 -5,-33 -16,-44 -10,-10 -25,-16 -44,-16l-4 0 0 122zm-94 -122l-5 0c-19,0 -34,5 -44,16 -10,10 -15,24 -15,44 0,22 5,38 14,48 10,9 25,14 45,14l5 0 0 -122zm272 205c0,-15 5,-27 14,-35 8,-8 21,-12 38,-12 17,0 29,4 38,12 8,8 13,20 13,35 0,15 -5,26 -14,34 -9,9 -21,13 -37,13 -16,0 -29,-4 -38,-12 -9,-9 -14,-20 -14,-35zm339 46c-23,0 -43,-3 -62,-8l0 -77c15,6 34,9 58,9 10,0 19,-2 25,-7 7,-4 13,-12 17,-24l-116 -257 104 0 44 110c2,4 4,9 6,15 2,6 5,12 7,18 2,7 4,13 6,19 2,6 4,12 5,16l3 0c6,-22 14,-48 25,-78l37 -100 104 0 -109 252c-13,31 -26,54 -40,69 -13,15 -28,26 -46,33 -19,6 -41,10 -68,10zm407 0c-46,0 -80,-13 -104,-37 -23,-25 -35,-60 -35,-106 0,-46 13,-81 38,-107 26,-25 62,-38 108,-38 33,0 63,7 91,21l-28 71c-12,-5 -22,-9 -32,-12 -10,-3 -20,-5 -31,-5 -15,0 -27,6 -36,19 -8,12 -12,29 -12,51 0,44 16,66 49,66 28,0 55,-8 81,-24l0 76c-25,16 -55,25 -89,25zm401 -212l-91 0 0 207 -96 0 0 -207 -91 0 0 -71 278 0 0 71zm131 -71l0 70c0,4 -1,8 -1,13 0,4 -1,33 -3,87l111 -170 106 0 0 278 -85 0 0 -75c0,-27 1,-58 3,-94l-110 169 -107 0 0 -278 86 0zm375 0l0 100 76 0 0 -100 96 0 0 278 -96 0 0 -107 -76 0 0 107 -96 0 0 -278 96 0zm503 138c0,46 -13,81 -37,107 -24,25 -59,38 -102,38 -43,0 -76,-13 -101,-39 -25,-26 -37,-61 -37,-106 0,-45 12,-80 36,-105 25,-25 59,-38 103,-38 27,0 51,6 72,18 21,11 37,28 49,50 11,21 17,46 17,75zm-180 0c0,24 3,42 9,55 7,12 18,18 33,18 14,0 25,-6 31,-18 6,-13 9,-31 9,-55 0,-23 -3,-41 -9,-53 -6,-13 -17,-19 -32,-19 -15,0 -25,6 -32,18 -6,12 -9,30 -9,54zm506 -66c0,16 -4,30 -14,40 -9,11 -22,18 -39,20l0 2c20,2 35,9 46,21 11,11 16,26 16,43 0,53 -43,80 -129,80l-152 0 0 -278 152 0c40,0 71,6 90,18 20,12 30,30 30,54zm-88 117c0,-9 -3,-15 -9,-19 -6,-3 -15,-5 -26,-5l-53 0 0 50 52 0c24,0 36,-9 36,-26zm-7 -104c0,-15 -9,-22 -26,-22l-55 0 0 42 51 0c10,0 18,-2 23,-6 5,-4 7,-9 7,-14zm341 193l-19 -37 -2 0c-13,16 -26,27 -39,33 -14,6 -31,9 -52,9 -26,0 -47,-8 -62,-24 -15,-16 -22,-38 -22,-66 0,-30 10,-52 30,-66 21,-15 51,-23 90,-24l46 -2 0 -4c0,-23 -11,-34 -34,-34 -20,0 -46,7 -77,21l-27 -64c32,-16 73,-25 122,-25 36,0 63,9 83,27 19,17 29,42 29,74l0 182 -66 0zm-71 -63c11,0 21,-4 29,-11 9,-7 13,-17 13,-29l0 -21 -22 1c-32,1 -48,12 -48,34 0,17 9,26 28,26z"/>
  </g>
 </g>
</svg>
