<svg width="616.000000" height="238.000000" viewBox="0 0 616 238" fill="none" xmlns="http://www.w3.org/2000/svg" xmlns:xlink="http://www.w3.org/1999/xlink">
	<desc>
			Created with Pixso.
	</desc>
	<defs/>
	<path id="Прямоугольник 54" d="M53.48 196.02C6.52 150.29 0 196.02 0 196.02L0 86.71L0 0L79.03 0L165.93 0L278.39 0L363.59 0L466.67 0C466.67 0 538.39 0 575.72 0C613.05 0 616 0 616 0L616 98.01C616 98.01 592.19 262.98 560.39 196.02C528.58 129.07 501.43 223.78 469.23 196.02C437.03 168.27 459.02 148.64 401.07 196.02C343.12 243.4 363.59 142.11 303.95 196.02C244.31 249.94 237.34 130.69 180.42 196.02C123.49 261.36 100.43 241.76 53.48 196.02Z" fill="#1449B3" fill-opacity="1.000000" fill-rule="evenodd"/>
</svg>
