<svg width="40.000000" height="40.000000" viewBox="0 0 40 40" fill="none" xmlns="http://www.w3.org/2000/svg" xmlns:xlink="http://www.w3.org/1999/xlink">
	<desc>
			Created with Pixso.
	</desc>
	<defs>
		<clipPath id="clip266_265">
			<rect id="discord_1qqf4wmagfli" width="40.000000" height="40.000000" fill="white" fill-opacity="0"/>
		</clipPath>
	</defs>
	<g clip-path="url(#clip266_265)">
		<path id="path" d="M15.23 18.75L15.23 18.74C13.74 18.74 12.53 19.98 12.53 21.5C12.53 23.01 13.74 24.25 15.23 24.25C16.73 24.25 17.94 23.01 17.94 21.51C17.94 19.99 16.72 18.75 15.23 18.75Z" fill="#FFFFFF" fill-opacity="1.000000" fill-rule="nonzero"/>
		<path id="path" d="M20 0.46C9.21 0.46 0.46 9.21 0.46 20C0.46 30.78 9.21 39.53 20 39.53C30.78 39.53 39.53 30.78 39.53 20C39.53 9.21 30.78 0.46 20 0.46ZM27.22 30.3C27.22 30.3 26.24 29.21 25.53 28.24C28.94 27.28 30.22 25.34 30.22 25.34C26.68 27.54 23.37 28.38 20 28.27C16.62 28.38 13.31 27.54 9.77 25.34C9.77 25.34 11.05 27.28 14.46 28.24C13.75 29.21 12.77 30.3 12.77 30.3C6.92 30.17 4.65 26.59 4.52 26.75C4.52 18.78 8.39 12.29 8.39 12.29C11.85 9.81 15.08 9.7 15.69 9.69L16.09 10.06C11.67 11.3 9.53 13.23 9.53 13.23C13.32 11.4 16.9 10.75 20 10.71C23.09 10.75 26.67 11.4 30.46 13.23C30.46 13.23 28.32 11.3 23.9 10.06L24.3 9.69C24.91 9.7 28.14 9.81 31.6 12.29C31.6 12.29 35.47 18.78 35.47 26.75C35.34 26.59 33.07 30.17 27.22 30.3Z" fill="#FFFFFF" fill-opacity="1.000000" fill-rule="nonzero"/>
		<path id="path" d="M24.76 18.74L24.76 18.75C23.27 18.75 22.05 19.99 22.05 21.51C22.05 23.01 23.26 24.25 24.76 24.25C26.25 24.25 27.46 23.01 27.46 21.49C27.46 19.98 26.25 18.74 24.76 18.74Z" fill="#FFFFFF" fill-opacity="1.000000" fill-rule="nonzero"/>
	</g>
</svg>
