<svg width="40.000000" height="40.000000" viewBox="0 0 40 40" fill="none" xmlns="http://www.w3.org/2000/svg" xmlns:xlink="http://www.w3.org/1999/xlink">
	<desc>
			Created with Pixso.
	</desc>
	<defs>
		<clipPath id="clip851_344">
			<rect id="discord_1qqf4wmagfli" width="40.000000" height="40.000000" fill="white" fill-opacity="0"/>
		</clipPath>
	</defs>
	<g clip-path="url(#clip851_344)">
		<path id="path" d="M15.23 18.75L15.23 18.74C13.74 18.74 12.53 19.98 12.53 21.5C12.53 23.01 13.74 24.25 15.23 24.25C16.73 24.25 17.94 23.01 17.94 21.51C17.94 19.99 16.72 18.75 15.23 18.75Z" fill="#1E66F5" fill-opacity="1.000000" fill-rule="nonzero"/>
		<path id="path" d="M20 0C8.95 0 0 8.95 0 20C0 31.04 8.95 40 20 40C31.04 40 40 31.04 40 20C40 8.95 31.04 0 20 0ZM27.39 30.55C27.39 30.55 26.39 29.43 25.66 28.44C29.15 27.45 30.47 25.47 30.47 25.47C26.84 27.72 23.45 28.58 20 28.47C16.54 28.58 13.15 27.72 9.52 25.47C9.52 25.47 10.84 27.45 14.33 28.44C13.6 29.43 12.6 30.55 12.6 30.55C6.61 30.42 4.28 26.75 4.15 26.91C4.15 18.75 8.11 12.11 8.11 12.11C11.66 9.56 14.96 9.45 15.59 9.44L15.99 9.82C11.47 11.09 9.28 13.07 9.28 13.07C13.16 11.19 16.82 10.53 20 10.49C23.17 10.53 26.83 11.19 30.71 13.07C30.71 13.07 28.52 11.09 24 9.82L24.4 9.44C25.03 9.45 28.33 9.56 31.88 12.11C31.88 12.11 35.84 18.75 35.84 26.91C35.71 26.75 33.38 30.42 27.39 30.55Z" fill="#1E66F5" fill-opacity="1.000000" fill-rule="nonzero"/>
		<path id="path" d="M24.76 18.74L24.76 18.75C23.27 18.75 22.05 19.99 22.05 21.51C22.05 23.01 23.26 24.25 24.76 24.25C26.25 24.25 27.46 23.01 27.46 21.5C27.46 19.98 26.25 18.74 24.76 18.74Z" fill="#1E66F5" fill-opacity="1.000000" fill-rule="nonzero"/>
	</g>
</svg>
