<svg width="40.000000" height="40.000000" viewBox="0 0 40 40" fill="none" xmlns="http://www.w3.org/2000/svg" xmlns:xlink="http://www.w3.org/1999/xlink">
	<desc>
			Created with Pixso.
	</desc>
	<defs>
		<clipPath id="clip266_269">
			<rect id="at_symbol_inside_a_circle_600viugmcub1" width="40.000000" height="40.000000" fill="white" fill-opacity="0"/>
		</clipPath>
	</defs>
	<g clip-path="url(#clip266_269)">
		<path id="path" d="M20.84 15.52C20.15 15.52 19.51 15.72 18.93 16.11C18.34 16.5 17.84 17 17.41 17.62C16.99 18.24 16.66 18.93 16.43 19.7C16.2 20.47 16.09 21.22 16.09 21.95C16.09 22.71 16.25 23.33 16.56 23.81C16.86 24.29 17.4 24.53 18.15 24.53C18.47 24.53 18.82 24.43 19.19 24.24C19.55 24.04 19.91 23.79 20.25 23.46C20.59 23.14 20.93 22.78 21.25 22.36C21.57 21.95 21.85 21.52 22.11 21.06L22.97 16.31C22.67 16.06 22.36 15.87 22.04 15.73C21.72 15.59 21.32 15.52 20.84 15.52Z" fill="#FFFFFF" fill-opacity="1.000000" fill-rule="nonzero"/>
		<path id="path" d="M19.99 0C8.95 0 0 8.95 0 19.99C0 31.04 8.95 39.99 19.99 39.99C31.04 39.99 39.99 31.04 39.99 19.99C39.99 8.95 31.04 0 19.99 0ZM32.78 25.05C31.88 25.99 30.82 26.73 29.62 27.28C28.42 27.83 27.13 28.11 25.75 28.11C25.18 28.11 24.65 28.04 24.15 27.92C23.66 27.79 23.25 27.58 22.92 27.28C22.58 26.98 22.34 26.59 22.17 26.11C22.01 25.63 21.97 25.03 22.04 24.32L21.9 24.32C21.56 24.8 21.18 25.28 20.78 25.73C20.38 26.19 19.94 26.6 19.46 26.95C18.98 27.31 18.45 27.59 17.88 27.8C17.3 28 16.68 28.11 15.99 28.11C15.44 28.11 14.91 27.99 14.41 27.74C13.9 27.5 13.47 27.17 13.1 26.73C12.73 26.3 12.44 25.77 12.22 25.15C12 24.53 11.9 23.84 11.9 23.09C11.9 21.66 12.13 20.28 12.58 18.94C13.04 17.6 13.67 16.42 14.46 15.39C15.25 14.35 16.17 13.52 17.21 12.89C18.25 12.26 19.36 11.95 20.53 11.95C21.33 11.95 22.01 12.07 22.55 12.31C23.1 12.55 23.61 12.86 24.07 13.25L25.13 12.15L27.54 12.15L25.89 21.47C25.71 22.55 25.7 23.33 25.87 23.81C26.05 24.29 26.43 24.53 27.02 24.53C27.62 24.53 28.21 24.39 28.78 24.12C29.35 23.84 29.87 23.42 30.33 22.85C30.78 22.27 31.16 21.55 31.44 20.68C31.73 19.81 31.87 18.78 31.87 17.58C31.87 15.87 31.58 14.4 31.01 13.18C30.44 11.97 29.65 10.97 28.66 10.18C27.66 9.39 26.49 8.81 25.13 8.44C23.78 8.07 22.33 7.89 20.77 7.89C18.98 7.89 17.32 8.21 15.78 8.85C14.25 9.5 12.91 10.38 11.78 11.5C10.64 12.62 9.75 13.96 9.11 15.5C8.47 17.05 8.15 18.73 8.15 20.54C8.15 22.33 8.42 23.93 8.96 25.35C9.5 26.78 10.28 27.99 11.31 28.98C12.34 29.98 13.62 30.75 15.15 31.29C16.67 31.82 18.42 32.09 20.39 32.09C21.05 32.09 21.81 32.01 22.66 31.85C23.51 31.69 24.27 31.45 24.96 31.13L26.03 34.43C25.09 34.89 24.13 35.21 23.16 35.39C22.18 35.58 21.06 35.67 19.8 35.67C17.58 35.67 15.52 35.35 13.63 34.71C11.74 34.07 10.1 33.11 8.72 31.85C7.33 30.59 6.25 29.03 5.47 27.16C4.69 25.29 4.3 23.13 4.3 20.68C4.3 18.18 4.75 15.92 5.64 13.91C6.53 11.89 7.74 10.17 9.25 8.75C10.76 7.33 12.52 6.24 14.51 5.47C16.5 4.7 18.61 4.31 20.83 4.31C22.94 4.31 24.9 4.62 26.71 5.23C28.52 5.83 30.09 6.7 31.42 7.84C32.75 8.97 33.8 10.36 34.55 12C35.31 13.64 35.69 15.5 35.69 17.59C35.69 19.05 35.43 20.43 34.91 21.71C34.4 22.99 33.69 24.11 32.78 25.05Z" fill="#FFFFFF" fill-opacity="1.000000" fill-rule="nonzero"/>
	</g>
</svg>
