<svg width="30.000000" height="30.000000" viewBox="0 0 30 30" fill="none" xmlns="http://www.w3.org/2000/svg" xmlns:xlink="http://www.w3.org/1999/xlink">
	<desc>
			Created with Pixso.
	</desc>
	<defs>
		<clipPath id="clip266_243">
			<rect id="location_pointer_ddprgqpk49dc" width="29.981262" height="30.000000" transform="translate(-0.014984 0.000000)" fill="white" fill-opacity="0"/>
		</clipPath>
	</defs>
	<g clip-path="url(#clip266_243)">
		<path id="path" d="M14.91 0C9.25 0 4.66 4.43 4.66 9.9C4.66 12.7 7.49 17.71 7.49 17.71L14.54 29.34L21.89 17.85C21.89 17.85 25.16 13.06 25.16 9.9C25.16 4.43 20.57 0 14.91 0ZM14.87 15.35C11.62 15.35 9 12.8 9 9.64C9 6.49 11.62 3.94 14.87 3.94C18.1 3.94 20.73 6.49 20.73 9.64C20.73 12.8 18.1 15.35 14.87 15.35Z" fill="#FFFFFF" fill-opacity="1.000000" fill-rule="nonzero"/>
	</g>
</svg>
