<svg width="24.000000" height="24.000000" viewBox="0 0 24 24" fill="none" xmlns="http://www.w3.org/2000/svg" xmlns:xlink="http://www.w3.org/1999/xlink">
	<desc>
			Created with Pixso.
	</desc>
	<defs>
		<clipPath id="clip266_287">
			<rect id="phone_igzlhwt7yiv9" width="23.985010" height="24.000000" transform="translate(-0.017456 0.000000)" fill="white" fill-opacity="0"/>
		</clipPath>
	</defs>
	<g clip-path="url(#clip266_287)">
		<path id="path" d="M22.35 15.97C21.13 14.99 20.02 14.52 18.93 14.52C17.37 14.52 16.24 15.51 15.22 16.53C15.1 16.65 14.96 16.7 14.77 16.7C13.91 16.7 12.4 15.63 10.28 13.5C7.78 11 6.84 9.41 7.47 8.78C9.19 7.06 9.73 5.33 7.09 2.05C6.15 0.87 5.23 0.3 4.27 0.3C2.98 0.3 2 1.33 1.14 2.24C0.99 2.4 0.85 2.55 0.71 2.69C-0.27 3.66 -0.27 5.8 0.71 8.39C1.78 11.24 3.9 14.33 6.68 17.11C8.82 19.25 11.15 20.99 13.42 22.15C15.41 23.17 17.33 23.71 18.84 23.71C19.78 23.71 20.55 23.51 21.06 23.09C22.09 22.24 24 20.66 23.99 18.79C23.98 17.78 23.43 16.84 22.35 15.97Z" fill="#FFFFFF" fill-opacity="1.000000" fill-rule="nonzero"/>
	</g>
</svg>
