<svg width="32.000000" height="32.000000" viewBox="0 0 32 32" fill="none" xmlns="http://www.w3.org/2000/svg" xmlns:xlink="http://www.w3.org/1999/xlink">
	<desc>
			Created with Pixso.
	</desc>
	<defs>
		<clipPath id="clip266_279">
			<rect id="planet_4vzublpxcss6" width="31.980013" height="32.000000" transform="translate(-0.014343 0.000000)" fill="white" fill-opacity="0"/>
		</clipPath>
	</defs>
	<g clip-path="url(#clip266_279)">
		<path id="path" d="M25.81 4.61C23.14 1.63 19.6 0 15.83 0C12.06 0 8.51 1.63 5.85 4.61C3.18 7.58 1.71 11.54 1.71 15.75C1.71 19.96 3.18 23.91 5.85 26.89C8.51 29.86 12.06 31.5 15.83 31.5C19.6 31.5 23.14 29.86 25.81 26.89C28.48 23.91 29.94 19.96 29.94 15.75C29.94 11.54 28.48 7.58 25.81 4.61ZM26.79 9.2C26.8 9.2 26.82 9.21 26.83 9.21C27.34 10.27 27.72 11.4 27.96 12.58C26.84 12.33 25.7 12.12 24.56 11.95C24.49 10.83 24.39 9.72 24.25 8.61C25.1 8.78 25.95 8.98 26.79 9.2ZM22.89 11.71C21.83 11.58 20.76 11.48 19.7 11.41C19.63 10.25 19.54 9.08 19.43 7.92C20.47 8.01 21.51 8.14 22.54 8.3C22.69 9.44 22.81 10.57 22.89 11.71ZM21.7 3.48C21.91 4.44 22.1 5.42 22.26 6.39C21.25 6.25 20.23 6.13 19.22 6.05C19.05 4.76 18.86 3.48 18.64 2.2C19.71 2.47 20.74 2.9 21.7 3.48ZM14.78 1.89C15.13 1.86 15.48 1.84 15.83 1.84C16.19 1.84 16.54 1.86 16.89 1.89C17.14 3.24 17.35 4.6 17.53 5.96C17.1 5.94 16.67 5.93 16.23 5.93C15.54 5.93 14.84 5.94 14.14 5.97C14.31 4.6 14.53 3.24 14.78 1.89ZM13.92 7.83C14.69 7.79 15.46 7.78 16.22 7.78C16.73 7.78 17.24 7.8 17.75 7.82C17.87 8.99 17.96 10.16 18.03 11.33C17.35 11.3 16.67 11.29 15.99 11.29C15.21 11.29 14.42 11.31 13.64 11.34C13.7 10.17 13.8 9 13.92 7.83ZM10.03 3.43C10.98 2.88 11.99 2.46 13.03 2.19C12.81 3.48 12.61 4.77 12.45 6.07C11.45 6.15 10.46 6.27 9.47 6.42C9.63 5.42 9.82 4.42 10.03 3.43ZM9.19 8.33C10.2 8.16 11.22 8.03 12.24 7.94C12.13 9.1 12.04 10.27 11.97 11.43C10.93 11.51 9.89 11.61 8.85 11.75C8.93 10.6 9.04 9.46 9.19 8.33ZM4.82 9.22L5.6 9.07L5.65 9.06C6.25 8.91 6.86 8.77 7.48 8.64C7.34 9.75 7.24 10.87 7.17 11.99C6 12.17 4.84 12.39 3.68 12.65C3.92 11.45 4.31 10.3 4.82 9.22ZM3.37 15.75C3.37 15.36 3.39 14.98 3.41 14.6C4.63 14.31 5.85 14.07 7.08 13.87C7.07 14.28 7.06 14.7 7.06 15.11C7.05 15.94 7.06 16.77 7.08 17.6C5.85 17.4 4.63 17.15 3.41 16.87C3.38 16.5 3.37 16.12 3.37 15.75ZM5.58 22.49L4.81 22.26C4.3 21.17 3.91 20.02 3.67 18.82C4.83 19.08 6 19.3 7.17 19.48C7.24 20.63 7.34 21.78 7.48 22.92C6.84 22.79 6.21 22.65 5.58 22.49ZM7.02 25.58C6.72 25.24 6.43 24.89 6.16 24.52C6.69 24.64 7.22 24.75 7.74 24.85C7.83 25.44 7.93 26.02 8.04 26.6C7.68 26.28 7.34 25.94 7.02 25.58ZM7.74 6.71C7.19 6.82 6.65 6.93 6.1 7.06C6.39 6.66 6.69 6.28 7.02 5.92C7.35 5.55 7.69 5.21 8.04 4.89C7.93 5.5 7.83 6.1 7.74 6.71ZM8.71 15.13C8.72 14.63 8.73 14.12 8.75 13.62C9.79 13.48 10.84 13.37 11.89 13.29C11.87 14.1 11.85 14.9 11.85 15.71C11.85 16.53 11.87 17.35 11.89 18.17C10.84 18.1 9.79 17.99 8.75 17.85C8.72 16.94 8.7 16.04 8.71 15.13ZM8.84 19.72C9.89 19.85 10.93 19.96 11.98 20.03C12.04 21.23 12.14 22.42 12.26 23.61C11.23 23.53 10.21 23.4 9.19 23.23C9.04 22.07 8.92 20.9 8.84 19.72ZM9.98 28.03L9.86 27.3L9.86 27.25C9.71 26.55 9.59 25.85 9.47 25.14C10.47 25.29 11.47 25.41 12.47 25.48C12.63 26.76 12.82 28.04 13.05 29.31C11.98 29.04 10.94 28.61 9.98 28.03ZM16.88 29.6C16.53 29.64 16.18 29.65 15.83 29.65C15.48 29.65 15.14 29.64 14.79 29.61C14.55 28.27 14.33 26.93 14.16 25.58C14.72 25.6 15.29 25.62 15.86 25.62C16 25.62 16.14 25.62 16.28 25.61C16.69 25.61 17.11 25.6 17.52 25.58C17.34 26.93 17.13 28.27 16.88 29.6ZM17.74 23.72C17.25 23.75 16.76 23.76 16.27 23.77C15.49 23.77 14.71 23.76 13.94 23.72C13.81 22.53 13.71 21.33 13.64 20.13C14.42 20.16 15.2 20.18 15.98 20.18C16.66 20.18 17.35 20.16 18.03 20.14C17.96 21.33 17.86 22.53 17.74 23.72ZM18.12 18.28C17.4 18.31 16.69 18.33 15.98 18.33C15.17 18.33 14.36 18.31 13.55 18.27C13.53 17.42 13.51 16.56 13.51 15.71C13.51 14.87 13.53 14.03 13.55 13.19C14.36 13.16 15.18 13.14 15.99 13.14C16.7 13.14 17.41 13.15 18.12 13.18C18.15 14.03 18.16 14.87 18.16 15.72C18.16 16.57 18.15 17.43 18.12 18.28ZM21.89 27.32L21.72 28.01C20.75 28.59 19.71 29.03 18.62 29.3C18.85 28.04 19.04 26.76 19.2 25.49C20.23 25.41 21.26 25.29 22.29 25.14C22.17 25.87 22.04 26.6 21.89 27.32ZM22.57 23.23C21.52 23.4 20.47 23.53 19.42 23.62C19.54 22.43 19.63 21.24 19.7 20.05C20.77 19.98 21.84 19.88 22.9 19.75C22.83 20.91 22.71 22.07 22.57 23.23ZM23 17.87C21.93 18.01 20.85 18.12 19.78 18.19C19.8 17.37 19.82 16.54 19.82 15.72C19.82 14.9 19.8 14.09 19.78 13.27C20.85 13.34 21.92 13.45 22.99 13.59C23.01 14.13 23.03 14.68 23.03 15.23C23.04 16.11 23.03 16.99 23 17.87ZM24.64 5.92C24.95 6.26 25.24 6.62 25.51 7C25.01 6.88 24.5 6.78 23.99 6.68C23.9 6.11 23.8 5.54 23.7 4.97C24.02 5.26 24.34 5.58 24.64 5.92ZM24.64 25.58C24.35 25.9 24.05 26.2 23.74 26.49C23.84 25.94 23.93 25.39 24.02 24.84C24.51 24.75 25 24.65 25.49 24.54C25.22 24.9 24.94 25.25 24.64 25.58ZM26.82 22.31C25.98 22.54 25.13 22.74 24.28 22.91C24.41 21.79 24.51 20.65 24.58 19.51C25.72 19.34 26.85 19.13 27.97 18.88C27.72 20.08 27.34 21.23 26.82 22.31ZM24.67 17.63C24.69 16.82 24.7 16.01 24.69 15.21C24.68 14.75 24.67 14.29 24.66 13.83C25.86 14.02 27.05 14.25 28.24 14.52C28.27 14.93 28.29 15.34 28.29 15.75C28.29 16.15 28.27 16.54 28.24 16.94C27.06 17.21 25.86 17.44 24.67 17.63Z" fill="#FFFFFF" fill-opacity="1.000000" fill-rule="nonzero"/>
	</g>
</svg>
