<svg width="40.000000" height="40.000000" viewBox="0 0 40 40" fill="none" xmlns="http://www.w3.org/2000/svg" xmlns:xlink="http://www.w3.org/1999/xlink">
	<desc>
			Created with Pixso.
	</desc>
	<defs/>
	<path id="path" d="M20 0C8.95 0 0 8.95 0 20C0 31.04 8.95 40 20 40C31.04 40 40 31.04 40 20C40 8.95 31.04 0 20 0ZM30.14 22.16C31.07 23.07 32.06 23.93 32.9 24.93C33.27 25.37 33.62 25.83 33.88 26.35C34.26 27.09 33.92 27.9 33.26 27.94L29.16 27.94C28.1 28.03 27.26 27.6 26.55 26.88C25.98 26.3 25.46 25.68 24.91 25.09C24.69 24.84 24.45 24.61 24.17 24.43C23.62 24.07 23.13 24.18 22.81 24.76C22.48 25.36 22.41 26.01 22.38 26.68C22.33 27.64 22.04 27.89 21.07 27.94C19 28.04 17.04 27.72 15.21 26.68C13.6 25.76 12.35 24.46 11.26 22.98C9.15 20.12 7.53 16.97 6.07 13.73C5.74 13 5.98 12.61 6.79 12.59C8.13 12.57 9.46 12.57 10.8 12.59C11.34 12.6 11.7 12.91 11.91 13.42C12.64 15.2 13.52 16.89 14.63 18.46C14.93 18.88 15.23 19.3 15.66 19.59C16.13 19.92 16.5 19.81 16.72 19.28C16.86 18.94 16.93 18.58 16.96 18.22C17.06 16.99 17.08 15.75 16.89 14.52C16.78 13.75 16.34 13.25 15.58 13.1C15.18 13.03 15.24 12.89 15.43 12.66C15.76 12.28 16.07 12.04 16.69 12.04L21.32 12.04C22.05 12.18 22.21 12.51 22.31 13.24L22.32 18.39C22.31 18.67 22.46 19.51 22.97 19.7C23.38 19.83 23.65 19.51 23.89 19.25C25 18.07 25.79 16.68 26.5 15.24C26.81 14.61 27.08 13.95 27.35 13.29C27.54 12.8 27.84 12.56 28.39 12.57L32.85 12.58C32.98 12.58 33.12 12.58 33.25 12.6C34 12.73 34.2 13.05 33.97 13.79C33.6 14.94 32.89 15.9 32.2 16.86C31.45 17.89 30.66 18.88 29.92 19.92C29.25 20.86 29.3 21.34 30.14 22.16Z" fill="#1E66F5" fill-opacity="1.000000" fill-rule="nonzero"/>
</svg>
