<svg width="40.000000" height="40.000000" viewBox="0 0 40 40" fill="none" xmlns="http://www.w3.org/2000/svg" xmlns:xlink="http://www.w3.org/1999/xlink">
	<desc>
			Created with Pixso.
	</desc>
	<defs>
		<clipPath id="clip266_247">
			<rect id="social_6oh1prbg3eui" width="40.000000" height="40.000000" fill="white" fill-opacity="0"/>
		</clipPath>
	</defs>
	<g clip-path="url(#clip266_247)">
		<path id="path" d="M19.94 2.35C8.93 2.35 0 10.75 0 21.12C0 31.49 8.93 39.9 19.94 39.9C30.96 39.9 39.89 31.49 39.89 21.12C39.89 10.75 30.96 2.35 19.94 2.35ZM30.06 23.16C30.99 24.01 31.98 24.81 32.81 25.76C33.18 26.17 33.53 26.61 33.8 27.09C34.17 27.78 33.83 28.54 33.17 28.58L29.09 28.58C28.03 28.66 27.19 28.26 26.48 27.58C25.92 27.04 25.39 26.46 24.85 25.91C24.63 25.68 24.39 25.46 24.11 25.29C23.56 24.95 23.07 25.05 22.75 25.6C22.43 26.16 22.35 26.78 22.32 27.4C22.28 28.3 21.99 28.54 21.02 28.58C18.95 28.67 16.99 28.38 15.17 27.4C13.56 26.53 12.32 25.31 11.24 23.93C9.12 21.24 7.51 18.28 6.06 15.24C5.73 14.55 5.97 14.19 6.77 14.17C8.1 14.15 9.44 14.15 10.77 14.17C11.32 14.18 11.67 14.47 11.88 14.96C12.6 16.62 13.49 18.21 14.59 19.69C14.89 20.08 15.19 20.47 15.62 20.75C16.09 21.05 16.45 20.95 16.68 20.45C16.82 20.14 16.88 19.8 16.91 19.46C17.02 18.3 17.03 17.14 16.85 15.98C16.73 15.26 16.3 14.79 15.54 14.66C15.15 14.59 15.2 14.45 15.39 14.24C15.72 13.88 16.03 13.65 16.65 13.65L21.26 13.65C21.99 13.79 22.16 14.09 22.25 14.78L22.26 19.61C22.25 19.88 22.4 20.67 22.91 20.85C23.32 20.97 23.59 20.67 23.83 20.42C24.94 19.32 25.73 18.01 26.43 16.66C26.75 16.06 27.02 15.45 27.28 14.83C27.47 14.37 27.77 14.15 28.32 14.16L32.77 14.16C32.9 14.16 33.03 14.16 33.16 14.18C33.91 14.3 34.12 14.61 33.88 15.3C33.52 16.38 32.81 17.28 32.12 18.18C31.37 19.15 30.58 20.08 29.85 21.05C29.17 21.94 29.22 22.38 30.06 23.16Z" fill="#FFFFFF" fill-opacity="1.000000" fill-rule="nonzero"/>
	</g>
</svg>
