<svg width="23.000000" height="23.000000" viewBox="0 0 23 23" fill="none" xmlns="http://www.w3.org/2000/svg" xmlns:xlink="http://www.w3.org/1999/xlink">
	<desc>
			Created with Pixso.
	</desc>
	<defs>
		<clipPath id="clip253_407">
			<rect id="svg" width="23.000000" height="23.000000" fill="white" fill-opacity="0"/>
		</clipPath>
	</defs>
	<g clip-path="url(#clip253_407)">
		<path id="path" d="M7.22 12.49L9.06 12.49L9.1 13.64L10.99 14.29L12.87 13.64L13.01 11.57L8.96 11.57L8.87 9.73L13.1 9.73L13.24 7.89L6.89 7.89L6.76 6.05L15.17 6.05L14.94 9.73L14.62 15.02L10.99 16.22L7.35 15.02L7.22 12.49Z" fill="#1E66F5" fill-opacity="1.000000" fill-rule="evenodd"/>
		<path id="path" d="M3.17 2.37L3.17 2.37L3.95 2.37L17.88 2.4L18.67 2.4L18.67 2.4L18.6 3.16L18.6 3.16L17.32 17.4L17.32 17.4L17.27 17.89L17.27 17.89L16.8 18.03L11.1 19.6L10.89 19.65L10.71 19.6L5.01 18.01L4.54 17.87L4.54 17.87L4.49 17.38L4.49 17.38L3.86 10.27L3.23 3.16L3.23 3.16L3.17 2.37ZM4.74 3.81L5.31 10.29L5.89 16.77L10.92 18.16L15.93 16.77L16.51 10.3L17.09 3.83L4.74 3.81L4.74 3.81Z" fill="#1E66F5" fill-opacity="1.000000" fill-rule="evenodd"/>
	</g>
</svg>
