<svg width="16.000000" height="17.000000" viewBox="0 0 16 17" fill="none" xmlns="http://www.w3.org/2000/svg" xmlns:xlink="http://www.w3.org/1999/xlink">
	<desc>
			Created with Pixso.
	</desc>
	<defs/>
	<path id="path" d="M-0.5 0L-0.5 0L0.31 0L14.68 0.02L15.5 0.02L15.5 0.02L15.43 0.77L15.43 0.77L14.1 14.78L14.1 14.78L14.06 15.27L14.06 15.27L13.57 15.4L7.68 16.95L7.47 17L7.29 16.95L1.4 15.38L0.91 15.25L0.91 15.25L0.86 14.76L0.86 14.76L0.21 7.77L-0.44 0.77L-0.44 0.77L-0.5 0ZM1.12 1.41L1.71 7.79L2.3 14.17L7.5 15.54L12.67 14.17L13.27 7.8L13.87 1.43L1.12 1.41L1.12 1.41ZM2.9 3.53L2.9 3.53L12.09 3.53L12.09 3.53L11.92 5.28L11.92 5.28L4.9 5.28L5.06 7.07L11.76 7.07L11.76 7.07L11.25 12.44L11.25 12.44L7.47 13.44L3.72 12.44L3.72 12.44L3.46 9.63L3.46 9.63L5.32 9.63L5.32 9.63L5.43 11.09L7.5 11.62L9.54 11.09L9.74 8.82L3.39 8.82L3.39 8.82L2.9 3.53Z" fill="#FF6D00" fill-opacity="1.000000" fill-rule="evenodd"/>
</svg>
