<svg width="23.000000" height="23.000000" viewBox="0 0 23 23" fill="none" xmlns="http://www.w3.org/2000/svg" xmlns:xlink="http://www.w3.org/1999/xlink">
	<desc>
			Created with Pixso.
	</desc>
	<defs>
		<clipPath id="clip253_410">
			<rect id="svg" width="23.000000" height="23.000000" fill="white" fill-opacity="0"/>
		</clipPath>
	</defs>
	<g clip-path="url(#clip253_410)">
		<path id="path" d="M13.17 17.25C12.97 17.25 12.8 17.32 12.66 17.46C12.52 17.6 12.45 17.77 12.45 17.96C12.45 18.16 12.52 18.33 12.66 18.47C12.8 18.61 12.97 18.68 13.17 18.68C13.37 18.68 13.54 18.61 13.68 18.47C13.82 18.33 13.89 18.16 13.89 17.96C13.89 17.77 13.82 17.6 13.68 17.46C13.54 17.32 13.37 17.25 13.17 17.25ZM9.1 5.03C9.1 5.03 9.1 5.03 9.1 5.03Z" fill="#FFC107" fill-opacity="1.000000" fill-rule="nonzero"/>
		<path id="path" d="M8.14 14.85L8.14 14.92L8.14 17.9C8.14 18.33 8.17 18.74 8.25 19.01C8.34 19.29 8.42 19.4 8.62 19.49C9.36 19.81 9.93 20.12 11.5 20.12C13.06 20.12 13.63 19.81 14.37 19.49C14.62 19.38 14.71 19.22 14.79 18.81C14.82 18.62 14.92 18.47 15.09 18.35C15.25 18.24 15.43 18.21 15.63 18.24C15.82 18.28 15.97 18.38 16.09 18.55C16.2 18.71 16.24 18.89 16.2 19.08C16.07 19.73 15.71 20.47 14.95 20.8C14.25 21.1 13.28 21.56 11.5 21.56C9.71 21.56 8.73 21.1 8.04 20.8C7.42 20.53 7.04 19.97 6.88 19.43C6.72 18.9 6.7 18.37 6.7 17.9L6.7 16.29L8.14 14.85Z" fill="#FFC107" fill-opacity="1.000000" fill-rule="evenodd"/>
		<path id="path" d="M8.04 2.19C8.74 1.89 9.71 1.43 11.5 1.43C13.28 1.43 14.26 1.89 14.95 2.19C15.57 2.46 15.95 3.02 16.11 3.56C16.27 4.09 16.29 4.62 16.29 5.09L16.29 6.7C14.85 6.75 14.85 6.74 14.85 7.54C14.84 7.46 14.84 7.38 14.85 7.3L14.85 5.09C14.85 4.66 14.82 4.25 14.74 3.98C14.65 3.7 14.57 3.59 14.37 3.5C13.63 3.18 13.06 2.87 11.5 2.87C9.93 2.87 9.36 3.18 8.62 3.5C8.42 3.59 8.34 3.7 8.25 3.98C8.17 4.25 8.14 4.66 8.14 5.09C8.14 5.29 8.07 5.47 7.93 5.61C7.79 5.75 7.62 5.82 7.42 5.82C7.22 5.82 7.05 5.75 6.91 5.61C6.77 5.47 6.7 5.29 6.7 5.09C6.7 4.62 6.72 4.09 6.88 3.56C7.04 3.02 7.42 2.46 8.04 2.19Z" fill="#1E66F5" fill-opacity="1.000000" fill-rule="evenodd"/>
		<path id="path" d="M9.31 4.52C9.45 4.38 9.62 4.31 9.82 4.31C10.02 4.31 10.19 4.38 10.33 4.52C10.47 4.66 10.54 4.83 10.54 5.03C10.54 5.22 10.47 5.39 10.33 5.53C10.19 5.67 10.02 5.75 9.82 5.75C9.62 5.75 9.45 5.67 9.31 5.53C9.17 5.39 9.1 5.22 9.1 5.03C9.1 4.83 9.17 4.66 9.31 4.52Z" fill="#1E66F5" fill-opacity="1.000000" fill-rule="evenodd"/>
		<path id="path" d="M9.82 10.78C8.11 10.78 6.7 12.18 6.7 13.89L6.7 14.85L5.09 14.85C4.66 14.85 4.25 14.82 3.98 14.74C3.7 14.65 3.59 14.57 3.5 14.37C3.18 13.63 2.87 13.06 2.87 11.5C2.87 9.93 3.18 9.36 3.5 8.62C3.59 8.42 3.7 8.34 3.98 8.25C4.25 8.17 4.66 8.14 5.09 8.14L11.26 8.14C11.46 8.14 11.63 8.07 11.77 7.93C11.91 7.79 11.98 7.62 11.98 7.42C11.98 7.22 11.91 7.05 11.77 6.91C11.63 6.77 11.46 6.7 11.26 6.7L5.09 6.7C4.62 6.7 4.09 6.72 3.56 6.88C3.02 7.04 2.46 7.42 2.19 8.04C1.89 8.73 1.43 9.71 1.43 11.5C1.43 13.28 1.89 14.25 2.19 14.95C2.46 15.57 3.02 15.95 3.56 16.11C4.09 16.27 4.62 16.29 5.09 16.29L6.7 16.29L6.7 17.9C6.7 18.37 6.72 18.9 6.88 19.43C7.04 19.97 7.42 20.53 8.04 20.8C8.73 21.1 9.71 21.56 11.5 21.56C13.28 21.56 14.25 21.1 14.95 20.8C15.71 20.47 16.07 19.73 16.2 19.08C16.24 18.89 16.2 18.71 16.09 18.55C15.97 18.38 15.82 18.28 15.63 18.24C15.43 18.21 15.25 18.24 15.09 18.35C14.92 18.47 14.82 18.62 14.79 18.81C14.71 19.22 14.62 19.38 14.37 19.49C13.63 19.81 13.06 20.12 11.5 20.12C9.93 20.12 9.36 19.81 8.62 19.49C8.42 19.4 8.34 19.29 8.25 19.01C8.17 18.74 8.14 18.33 8.14 17.9L8.14 14.92C8.14 14.89 8.14 14.87 8.14 14.85L8.14 13.89C8.14 12.96 8.88 12.21 9.82 12.21L9.82 10.78ZM6.7 17.9L6.7 16.29C8.12 16.25 8.14 16.24 8.14 14.92L8.14 17.9C8.14 18.33 8.17 18.74 8.25 19.01C8.34 19.29 8.42 19.4 8.62 19.49C9.36 19.81 9.93 20.12 11.5 20.12C13.06 20.12 13.63 19.81 14.37 19.49C14.62 19.38 14.71 19.22 14.79 18.81C14.82 18.62 14.92 18.47 15.09 18.35C15.25 18.24 15.43 18.21 15.63 18.24C15.82 18.28 15.97 18.38 16.09 18.55C16.2 18.71 16.24 18.89 16.2 19.08C16.07 19.73 15.71 20.47 14.95 20.8C14.25 21.1 13.28 21.56 11.5 21.56C9.71 21.56 8.73 21.1 8.04 20.8C7.42 20.53 7.04 19.97 6.88 19.43C6.72 18.9 6.7 18.37 6.7 17.9Z" fill="#1E66F5" fill-opacity="1.000000" fill-rule="evenodd"/>
		<path id="path" d="M14.85 9.1L14.85 7.54C14.85 6.74 14.85 6.75 16.29 6.7L17.9 6.7C18.37 6.7 18.9 6.72 19.43 6.88C19.97 7.04 20.53 7.42 20.8 8.04C21.1 8.74 21.56 9.71 21.56 11.5C21.56 13.28 21.1 14.26 20.8 14.95C20.53 15.57 19.97 15.95 19.43 16.11C18.9 16.27 18.37 16.29 17.9 16.29L11.73 16.29C11.53 16.29 11.36 16.22 11.22 16.08C11.08 15.94 11.01 15.77 11.01 15.57C11.01 15.37 11.08 15.2 11.22 15.06C11.36 14.92 11.53 14.85 11.73 14.85L17.9 14.85C18.33 14.85 18.74 14.82 19.01 14.74C19.29 14.65 19.4 14.57 19.49 14.37C19.81 13.63 20.12 13.06 20.12 11.5C20.12 9.93 19.81 9.36 19.49 8.62C19.4 8.42 19.29 8.34 19.01 8.25C18.74 8.17 18.33 8.14 17.9 8.14L16.29 8.14L16.29 9.1C16.29 10.81 14.88 12.21 13.17 12.21L13.17 10.78C14.11 10.78 14.85 10.03 14.85 9.1Z" fill="#FFC107" fill-opacity="1.000000" fill-rule="evenodd"/>
	</g>
</svg>
