<svg width="16.000000" height="16.000000" viewBox="0 0 16 16" fill="none" xmlns="http://www.w3.org/2000/svg" xmlns:xlink="http://www.w3.org/1999/xlink">
	<desc>
			Created with Pixso.
	</desc>
	<defs>
		<clipPath id="clip253_420">
			<rect id="svg" width="10.432600" height="6.420062" transform="translate(3.487305 7.400391)" fill="white" fill-opacity="0"/>
		</clipPath>
	</defs>
	<path id="path" d="M-0.5 1.45L-0.5 14.54C-0.5 15.34 0.15 16 0.95 16L14.04 16C14.84 16 15.5 15.34 15.5 14.54L15.5 1.45C15.5 0.65 14.84 0 14.04 0L0.95 0C0.15 0 -0.5 0.65 -0.5 1.45ZM0.95 1.98C0.95 1.69 1.19 1.45 1.48 1.45L13.51 1.45C13.8 1.45 14.04 1.69 14.04 1.98L14.04 14.02C14.04 14.31 13.81 14.54 13.52 14.54L1.47 14.54C1.18 14.54 0.95 14.31 0.95 14.02L0.95 1.98Z" fill="#1E66F5" fill-opacity="1.000000" fill-rule="nonzero"/>
	<g clip-path="url(#clip253_420)">
		<path id="path" d="M4.44 7.69L4.44 8.77L6.05 8.77L6.05 13.64L7.38 13.64L7.38 8.77L9.02 8.77L9.02 7.69L4.44 7.69ZM11.09 7.71C10.17 7.77 9.25 8.14 9.25 9.36C9.25 11.15 11.77 11.15 11.77 11.96C11.77 12.04 11.81 12.59 10.92 12.59C10.03 12.59 9.28 12.06 9.28 12.06L9.28 13.36C9.28 13.36 13.16 14.56 13.16 11.85C13.16 10.09 10.62 10.18 10.62 9.3C10.62 8.96 10.87 8.65 11.57 8.65C12.26 8.65 12.88 9.04 12.88 9.04L12.92 7.88C12.92 7.88 12 7.64 11.09 7.71Z" fill="#1E66F5" fill-opacity="1.000000" fill-rule="nonzero"/>
	</g>
</svg>
